<svg width="20" height="20" viewBox="0 0 20 20" fill="none" xmlns="http://www.w3.org/2000/svg">
<g clip-path="url(#clip0_51_2360)">
<path d="M18.9743 3.33325H1.02566C0.461523 3.33325 0 3.79478 0 4.35888V15.6409C0 16.205 0.461523 16.6666 1.02566 16.6666H18.9744C19.5384 16.6666 20 16.2051 20 15.6409V4.35888C20 3.79478 19.5385 3.33325 18.9743 3.33325ZM18.5895 4.10243L10.59 10.1025C10.4462 10.212 10.2254 10.2804 9.99996 10.2794C9.77457 10.2804 9.55383 10.212 9.40996 10.1025L1.41051 4.10243H18.5895ZM14.3164 10.4984L18.6754 15.8831C18.6798 15.8884 18.6851 15.8925 18.6898 15.8974H1.31023C1.31484 15.8923 1.32023 15.8884 1.32461 15.8831L5.68359 10.4984C5.71538 10.4591 5.73911 10.414 5.75344 10.3655C5.76777 10.3171 5.77241 10.2663 5.7671 10.216C5.76179 10.1658 5.74663 10.1171 5.72249 10.0727C5.69835 10.0283 5.6657 9.98912 5.62641 9.95735C5.46129 9.8238 5.21922 9.84911 5.08563 10.0143L0.769219 15.3463V4.58321L8.94867 10.7178C9.25613 10.9468 9.6302 11.0476 9.99992 11.0486C10.3691 11.0478 10.7435 10.947 11.0512 10.7178L19.2306 4.58321V15.3463L14.9143 10.0143C14.7807 9.84915 14.5384 9.82376 14.3736 9.95735C14.2082 10.0909 14.1828 10.3333 14.3164 10.4984Z" fill="white"/>
</g>
<defs>
<clipPath id="clip0_51_2360">
<rect width="20" height="20" fill="white"/>
</clipPath>
</defs>
</svg>
