<svg width="27" height="25" viewBox="0 0 27 25" fill="none" xmlns="http://www.w3.org/2000/svg">
<rect x="0.847412" width="25.4237" height="25" rx="12.5" fill="#C700D9"/>
<path d="M13.5614 6.35191C15.5994 6.35191 15.8386 6.36084 16.6441 6.39657C17.3891 6.42933 17.7918 6.55142 18.0613 6.65564C18.4187 6.79261 18.673 6.95341 18.9395 7.21546C19.206 7.4775 19.3726 7.72763 19.5088 8.07901C19.6118 8.34403 19.739 8.74007 19.7723 9.4726C19.8086 10.2647 19.8177 10.4999 19.8177 12.504C19.8177 14.508 19.8086 14.7432 19.7723 15.5353C19.739 16.2679 19.6148 16.6639 19.5088 16.9289C19.3695 17.2803 19.206 17.5304 18.9395 17.7925C18.673 18.0545 18.4187 18.2183 18.0613 18.3523C17.7918 18.4535 17.3891 18.5786 16.6441 18.6114C15.8386 18.6471 15.5994 18.656 13.5614 18.656C11.5234 18.656 11.2841 18.6471 10.4786 18.6114C9.73367 18.5786 9.33091 18.4565 9.0614 18.3523C8.70407 18.2153 8.44969 18.0545 8.18321 17.7925C7.91672 17.5304 7.75017 17.2803 7.6139 16.9289C7.51094 16.6639 7.38375 16.2679 7.35044 15.5353C7.3141 14.7432 7.30502 14.508 7.30502 12.504C7.30502 10.4999 7.3141 10.2647 7.35044 9.4726C7.38375 8.74007 7.50791 8.34403 7.6139 8.07901C7.7532 7.72763 7.91672 7.4775 8.18321 7.21546C8.44969 6.95341 8.70407 6.78964 9.0614 6.65564C9.33091 6.55439 9.73367 6.42933 10.4786 6.39657C11.2841 6.35786 11.5264 6.35191 13.5614 6.35191ZM13.5614 5C11.49 5 11.2296 5.00893 10.415 5.04467C9.60345 5.0804 9.04929 5.20844 8.56477 5.39307C8.06208 5.58364 7.63813 5.84271 7.21417 6.25959C6.79022 6.67648 6.52979 7.09635 6.33296 7.58768C6.1452 8.06412 6.01499 8.60905 5.97865 9.41007C5.94231 10.2081 5.93323 10.4642 5.93323 12.501C5.93323 14.5378 5.94231 14.7939 5.97865 15.5949C6.01499 16.3929 6.1452 16.9379 6.33296 17.4173C6.52676 17.9116 6.79022 18.3285 7.21417 18.7454C7.63813 19.1623 8.06511 19.4183 8.56477 19.6119C9.04929 19.7965 9.60345 19.9246 10.418 19.9603C11.2326 19.996 11.49 20.005 13.5644 20.005C15.6387 20.005 15.8961 19.996 16.7107 19.9603C17.5223 19.9246 18.0765 19.7965 18.564 19.6119C19.0667 19.4213 19.4907 19.1623 19.9146 18.7454C20.3386 18.3285 20.599 17.9086 20.7958 17.4173C20.9836 16.9408 21.1138 16.3959 21.1501 15.5949C21.1865 14.7939 21.1955 14.5408 21.1955 12.501C21.1955 10.4612 21.1865 10.2081 21.1501 9.40709C21.1138 8.60905 20.9836 8.06412 20.7958 7.5847C20.602 7.09039 20.3386 6.6735 19.9146 6.25662C19.4907 5.83973 19.0637 5.58364 18.564 5.39009C18.0795 5.20547 17.5253 5.07742 16.7107 5.04169C15.8931 5.00893 15.6327 5 13.5614 5Z" fill="white"/>
<path d="M13.5612 8.65063C11.3991 8.65063 9.6427 10.3748 9.6427 12.5039C9.6427 14.633 11.396 16.3571 13.5612 16.3571C15.7264 16.3571 17.4798 14.633 17.4798 12.5039C17.4798 10.3748 15.7264 8.65063 13.5612 8.65063ZM13.5612 15.0022C12.1561 15.0022 11.0175 13.8826 11.0175 12.5009C11.0175 11.1192 12.1561 9.99956 13.5612 9.99956C14.9663 9.99956 16.105 11.1192 16.105 12.5009C16.105 13.8826 14.9663 15.0022 13.5612 15.0022Z" fill="white"/>
<path d="M17.6343 9.39525C18.1393 9.39525 18.5488 8.99263 18.5488 8.49597C18.5488 7.9993 18.1393 7.59668 17.6343 7.59668C17.1292 7.59668 16.7197 7.9993 16.7197 8.49597C16.7197 8.99263 17.1292 9.39525 17.6343 9.39525Z" fill="white"/>
</svg>
