<svg width="26" height="25" viewBox="0 0 26 25" fill="none" xmlns="http://www.w3.org/2000/svg">
<rect x="0.271118" width="25.4237" height="25" rx="12.5" fill="#0A66C2"/>
<path d="M18.9423 5.625H7.02368C6.74991 5.625 6.48736 5.73194 6.29379 5.92229C6.10021 6.11264 5.99146 6.37082 5.99146 6.64002V18.36C5.99146 18.6292 6.10021 18.8874 6.29379 19.0777C6.48736 19.2681 6.74991 19.375 7.02368 19.375H18.9423C19.216 19.375 19.4786 19.2681 19.6722 19.0777C19.8658 18.8874 19.9745 18.6292 19.9745 18.36V6.64002C19.9745 6.37082 19.8658 6.11264 19.6722 5.92229C19.4786 5.73194 19.216 5.625 18.9423 5.625ZM10.1592 17.3383H8.05687V10.7717H10.1592V17.3383ZM9.10657 9.86172C8.8681 9.8604 8.63537 9.78964 8.43775 9.65838C8.24014 9.52712 8.08649 9.34124 7.9962 9.1242C7.90592 8.90715 7.88304 8.66867 7.93046 8.43885C7.97787 8.20904 8.09346 7.99818 8.26263 7.8329C8.43179 7.66761 8.64696 7.55531 8.88098 7.51016C9.11499 7.46501 9.35736 7.48904 9.5775 7.57921C9.79764 7.66938 9.98568 7.82166 10.1179 8.01682C10.2501 8.21198 10.3206 8.44128 10.3204 8.67578C10.3226 8.83278 10.2927 8.98862 10.2324 9.134C10.1721 9.27939 10.0827 9.41135 9.96938 9.52202C9.85611 9.63269 9.72135 9.7198 9.57311 9.77816C9.42488 9.83652 9.26621 9.86494 9.10657 9.86172ZM17.9081 17.344H15.8068V13.7566C15.8068 12.6986 15.3494 12.372 14.759 12.372C14.1356 12.372 13.5239 12.8342 13.5239 13.7833V17.344H11.4215V10.7765H13.4433V11.6865H13.4704C13.6734 11.2826 14.3842 10.5922 15.4689 10.5922C16.6419 10.5922 17.9091 11.2768 17.9091 13.282L17.9081 17.344Z" fill="white"/>
</svg>
