<svg width="20" height="20" viewBox="0 0 20 20" fill="none" xmlns="http://www.w3.org/2000/svg">
<path d="M10.0032 17.6563C9.91493 17.6563 9.82884 17.6292 9.75651 17.5787C9.68418 17.5281 9.62908 17.4567 9.59864 17.3739C9.013 15.7778 7.94566 14.4991 6.81578 13.1455C5.79933 11.9276 4.74837 10.6688 4.08295 9.15898C4.05884 9.10697 4.04535 9.05067 4.04326 8.99338C4.04116 8.9361 4.05051 8.87896 4.07076 8.82533C4.09101 8.7717 4.12174 8.72264 4.16117 8.68103C4.2006 8.63941 4.24793 8.60608 4.30039 8.58297C4.35286 8.55986 4.4094 8.54745 4.46672 8.54645C4.52404 8.54546 4.58098 8.5559 4.63421 8.57716C4.68745 8.59843 4.73591 8.6301 4.77676 8.67032C4.81762 8.71054 4.85004 8.7585 4.87214 8.81139C5.48839 10.2095 6.45483 11.3674 7.47775 12.593C8.60504 13.9441 9.77071 15.3405 10.4081 17.0767C10.4321 17.1419 10.4399 17.2119 10.431 17.2808C10.4221 17.3496 10.3967 17.4153 10.3569 17.4723C10.3172 17.5292 10.2642 17.5756 10.2026 17.6077C10.141 17.6397 10.0726 17.6564 10.0032 17.6563Z" fill="white"/>
<path d="M10.0037 17.6564C9.93432 17.6562 9.866 17.6393 9.80451 17.6072C9.74302 17.575 9.69018 17.5285 9.65046 17.4716C9.61074 17.4147 9.58531 17.3491 9.57631 17.2803C9.56731 17.2115 9.57501 17.1415 9.59877 17.0763C10.2362 15.3401 11.4018 13.9433 12.5291 12.5926C13.552 11.367 14.5185 10.2095 15.1347 8.811C15.1822 8.70852 15.268 8.62877 15.3737 8.58888C15.4794 8.54899 15.5965 8.55215 15.6998 8.59767C15.8032 8.6432 15.8846 8.72746 15.9265 8.83234C15.9684 8.93723 15.9675 9.05437 15.9239 9.15858C15.2585 10.6684 14.208 11.9272 13.1911 13.1451C12.0612 14.4988 10.9939 15.7774 10.4082 17.3735C10.3779 17.4564 10.3228 17.5279 10.2504 17.5785C10.1781 17.6291 10.092 17.6563 10.0037 17.6564ZM10.0037 10.0025C8.13338 10.0025 6.55371 8.42287 6.55371 6.55254C6.55371 4.68221 8.13338 3.10254 10.0037 3.10254C11.874 3.10254 13.4537 4.68221 13.4537 6.55254C13.4537 8.42287 11.874 10.0025 10.0037 10.0025ZM10.0037 3.96504C8.60129 3.96504 7.41621 5.15011 7.41621 6.55254C7.41621 7.95496 8.60129 9.14004 10.0037 9.14004C11.4061 9.14004 12.5912 7.95496 12.5912 6.55254C12.5912 5.15011 11.4061 3.96504 10.0037 3.96504Z" fill="white"/>
<path d="M15.5286 9.41612C15.457 9.41603 15.3864 9.39808 15.3234 9.36388C15.2604 9.32969 15.2069 9.28032 15.1678 9.22026C15.1287 9.1602 15.1052 9.09134 15.0993 9.01989C15.0935 8.94845 15.1056 8.87668 15.1345 8.81107C15.8529 7.17879 15.7361 5.3339 14.8128 3.74906C13.8895 2.16465 12.3426 1.15294 10.568 0.973104C9.70508 0.888218 8.83423 1.00343 8.0231 1.30978C7.21197 1.61613 6.48239 2.10538 5.89106 2.7395C4.39333 4.35454 3.98407 6.79412 4.87202 8.81107C4.89612 8.86308 4.90962 8.91938 4.91171 8.97667C4.91381 9.03396 4.90445 9.09109 4.88421 9.14472C4.86396 9.19835 4.83323 9.24741 4.7938 9.28903C4.75437 9.33064 4.70704 9.36398 4.65457 9.38708C4.60211 9.41019 4.54557 9.4226 4.48825 9.4236C4.43093 9.4246 4.37399 9.41416 4.32075 9.39289C4.26752 9.37162 4.21906 9.33995 4.17821 9.29973C4.13735 9.25951 4.10493 9.21156 4.08283 9.15866C3.05818 6.83163 3.53083 4.016 5.25885 2.153C6.63109 0.673385 8.65063 -0.0851835 10.6551 0.114485C12.7078 0.322348 14.4945 1.48931 15.558 3.31436C16.6219 5.13984 16.7551 7.27022 15.9241 9.15866C15.8903 9.23532 15.8349 9.30049 15.7647 9.3462C15.6944 9.39192 15.6124 9.41621 15.5286 9.41612ZM10.0233 19.9171C8.54195 19.9171 6.74968 19.8079 5.11524 19.224C4.47139 18.9937 2.51265 18.293 2.9577 16.8543C3.08147 16.4545 3.40059 16.0936 3.90645 15.7822C4.70512 15.2906 5.59393 15.0616 6.36414 14.8861C6.47421 14.8643 6.58844 14.8863 6.68258 14.9473C6.77671 15.0084 6.84334 15.1037 6.86832 15.2131C6.89329 15.3225 6.87465 15.4373 6.81634 15.5332C6.75804 15.6291 6.66467 15.6985 6.55605 15.7266C5.68363 15.9258 4.97595 16.1363 4.3584 16.5166C4.04014 16.7124 3.84047 16.9177 3.78095 17.1096C3.6477 17.5404 4.19409 17.979 5.40547 18.4124C7.11107 19.0222 9.04997 19.0731 10.5438 19.0507C12.5845 19.0196 14.1551 18.71 15.3449 18.1045C15.6774 17.9355 16.4256 17.4917 16.1897 17.0272C15.799 16.2579 14.466 15.9569 13.5837 15.7572L13.45 15.727C13.3948 15.7145 13.3426 15.6911 13.2964 15.6584C13.2503 15.6256 13.211 15.5841 13.1809 15.5361C13.1507 15.4882 13.1304 15.4348 13.1209 15.379C13.1114 15.3232 13.1131 15.266 13.1257 15.2108C13.1379 15.1554 13.161 15.103 13.1937 15.0566C13.2263 15.0102 13.2679 14.9708 13.3159 14.9406C13.364 14.9104 13.4175 14.8901 13.4735 14.8808C13.5295 14.8715 13.5867 14.8735 13.6419 14.8865L13.7734 14.9163C14.8132 15.1509 16.3847 15.5062 16.9587 16.637C17.3662 17.4404 16.9095 18.2766 15.7356 18.8739C14.4264 19.5401 12.7324 19.8804 10.5572 19.9136C10.3851 19.9153 10.2066 19.9171 10.0233 19.9171Z" fill="white"/>
</svg>
