<svg width="26" height="25" viewBox="0 0 26 25" fill="none" xmlns="http://www.w3.org/2000/svg">
<rect width="25.4237" height="25" rx="12.5" fill="#1D9BF0"/>
<path d="M10.3856 19.0938C16.0233 19.0938 19.106 14.5 19.106 10.5188C19.106 10.3875 19.106 10.2563 19.0996 10.1313C19.6971 9.70625 20.2182 9.175 20.6314 8.56875C20.0848 8.80625 19.4937 8.96875 18.8708 9.04375C19.5064 8.66875 19.9894 8.08125 20.2182 7.375C19.6271 7.71875 18.9725 7.96875 18.2733 8.10625C17.714 7.51875 16.9195 7.15625 16.036 7.15625C14.3454 7.15625 12.9725 8.50625 12.9725 10.1688C12.9725 10.4063 12.9979 10.6375 13.0551 10.8563C10.5064 10.7313 8.25002 9.53125 6.73731 7.70625C6.47672 8.15 6.32418 8.66875 6.32418 9.21875C6.32418 10.2625 6.86443 11.1875 7.6907 11.725C7.18858 11.7125 6.71824 11.575 6.30511 11.35C6.30511 11.3625 6.30511 11.375 6.30511 11.3875C6.30511 12.85 7.36019 14.0625 8.76485 14.3438C8.51062 14.4125 8.23731 14.45 7.95765 14.45C7.76062 14.45 7.56994 14.4313 7.37926 14.3938C7.76697 15.5938 8.89833 16.4625 10.2394 16.4875C9.1907 17.2938 7.86867 17.775 6.43223 17.775C6.18434 17.775 5.94282 17.7625 5.70129 17.7313C7.0424 18.5938 8.6568 19.0938 10.3856 19.0938Z" fill="white"/>
</svg>
