<svg width="38" height="28" viewBox="0 0 38 28" fill="none" xmlns="http://www.w3.org/2000/svg">
<path d="M10.3398 9.80281C12.3695 11.9437 15.7329 13.1831 19.2703 13.1831C22.9237 13.1831 26.2872 11.8873 28.3169 9.6338L28.6648 9.29577C27.1571 6.25352 25.8813 3.77465 27.9109 0H10.8617C12.9494 3.83098 11.5576 6.36619 10.0498 9.46479L10.3398 9.80281Z" fill="#C61E72"/>
<path d="M29.1867 10.4225C27.0411 12.7887 23.3877 14.3098 19.2703 14.3098C15.211 14.3098 11.6736 12.845 9.46991 10.5352C8.89001 11.7746 8.36809 13.1267 8.07814 14.6479C13.5293 17.1267 16.6028 21.8591 19.3283 21.8591C22.0539 21.8591 25.1854 17.0704 30.6365 14.6479C30.3465 13.0704 29.8246 11.662 29.1867 10.4225ZM37.3634 4.73238H31.6223L33.71 2.70421C33.9419 2.47885 33.9419 2.14083 33.71 1.91547C33.478 1.69012 33.1301 1.69012 32.8981 1.91547L29.8246 4.90139C29.5927 5.12674 29.5927 5.46477 29.8246 5.69012L32.8981 8.67604C33.0141 8.78871 33.1881 8.84505 33.3041 8.84505C33.42 8.84505 33.594 8.78871 33.71 8.67604C33.9419 8.45068 33.9419 8.11266 33.71 7.8873L31.6223 5.85914H37.3634C37.7113 5.85914 37.9433 5.63378 37.9433 5.29576C37.9433 4.95773 37.7113 4.73238 37.3634 4.73238ZM8.948 4.90139L5.8745 1.91547C5.64253 1.69012 5.29459 1.69012 5.06263 1.91547C4.83067 2.14083 4.83067 2.47885 5.06263 2.70421L7.15029 4.73238H1.40922C1.06128 4.73238 0.829315 4.95773 0.829315 5.29576C0.829315 5.63378 1.06128 5.85914 1.40922 5.85914H7.15029L5.06263 7.8873C4.83067 8.11266 4.83067 8.45068 5.06263 8.67604C5.12062 8.84505 5.29459 8.90139 5.41057 8.90139C5.52655 8.90139 5.70053 8.84505 5.81651 8.73237L8.89001 5.74646C9.17996 5.52111 9.17996 5.12674 8.948 4.90139ZM24.8374 19.9436C23.0397 21.4648 21.532 22.7042 19.9662 22.9296V27.9436H27.9689C30.6365 22.7042 31.2164 18.8732 30.8684 15.831C28.4328 16.9577 26.5192 18.5352 24.8374 19.9436ZM7.96216 15.8873C7.61422 18.9296 8.25211 22.7605 10.8617 28H18.8064V22.9859C17.2407 22.7605 15.7329 21.5211 13.9352 20C12.1955 18.5352 10.2818 16.9577 7.96216 15.8873Z" fill="#C61E72"/>
</svg>
