<svg width="83" height="65" viewBox="0 0 83 65" fill="none" xmlns="http://www.w3.org/2000/svg">
<path d="M21.2688 22.5656C25.8079 27.4937 33.3297 30.3469 41.2407 30.3469C49.411 30.3469 56.9329 27.3641 61.4719 22.1766L62.25 21.3984C58.8782 14.3953 56.0251 8.68906 60.5641 0H22.436C27.1047 8.81875 23.9922 14.6547 20.6204 21.7875L21.2688 22.5656Z" fill="white"/>
<path d="M63.4172 23.9921C58.6188 29.439 50.4484 32.9406 41.2406 32.9406C32.1625 32.9406 24.2516 29.5687 19.3234 24.2515C18.0266 27.1046 16.8594 30.2171 16.2109 33.7187C28.4016 39.4249 35.275 50.3187 41.3703 50.3187C47.4656 50.3187 54.4688 39.2953 66.6594 33.7187C66.0109 30.0875 64.8438 26.8453 63.4172 23.9921ZM81.7031 10.8937H68.8641L73.5328 6.22495C74.0516 5.7062 74.0516 4.92808 73.5328 4.40933C73.0141 3.89058 72.2359 3.89058 71.7172 4.40933L64.8438 11.2828C64.325 11.8015 64.325 12.5796 64.8438 13.0984L71.7172 19.9718C71.9766 20.2312 72.3656 20.3609 72.625 20.3609C72.8844 20.3609 73.2734 20.2312 73.5328 19.9718C74.0516 19.4531 74.0516 18.675 73.5328 18.1562L68.8641 13.4875H81.7031C82.4812 13.4875 83 12.9687 83 12.1906C83 11.4125 82.4812 10.8937 81.7031 10.8937ZM18.1562 11.2828L11.2828 4.40933C10.7641 3.89058 9.98594 3.89058 9.46719 4.40933C8.94844 4.92808 8.94844 5.7062 9.46719 6.22495L14.1359 10.8937H1.29688C0.51875 10.8937 0 11.4125 0 12.1906C0 12.9687 0.51875 13.4875 1.29688 13.4875H14.1359L9.46719 18.1562C8.94844 18.675 8.94844 19.4531 9.46719 19.9718C9.59688 20.3609 9.98594 20.4906 10.2453 20.4906C10.5047 20.4906 10.8938 20.3609 11.1531 20.1015L18.0266 13.2281C18.675 12.7093 18.675 11.8015 18.1562 11.2828ZM53.6906 45.9093C49.6703 49.4109 46.2984 52.264 42.7969 52.7828V64.325H60.6937C66.6594 52.264 67.9562 43.4453 67.1781 36.4421C61.7313 39.0359 57.4516 42.6671 53.6906 45.9093ZM15.9516 36.5718C15.1734 43.575 16.6 52.3937 22.4359 64.4546H40.2031V52.9125C36.7016 52.3937 33.3297 49.5406 29.3094 46.039C25.4188 42.6671 21.1391 39.0359 15.9516 36.5718Z" fill="white"/>
</svg>
