<svg width="49" height="12" viewBox="0 0 49 12" fill="none" xmlns="http://www.w3.org/2000/svg">
<path d="M17.723 5.47248H21.2002V10.0187C20.7415 10.1743 20.2623 10.2972 19.7626 10.3873C19.2711 10.4774 18.71 10.5224 18.0793 10.5224C17.211 10.5224 16.4697 10.3504 15.8553 10.0064C15.2492 9.66235 14.7864 9.15449 14.4669 8.4828C14.1556 7.81111 14 6.98378 14 6.00082C14 5.08339 14.1761 4.28883 14.5283 3.61714C14.8888 2.94545 15.4089 2.4253 16.0888 2.05668C16.7687 1.68807 17.6001 1.50377 18.5831 1.50377C19.05 1.50377 19.5087 1.55292 19.9592 1.65121C20.4097 1.74951 20.8193 1.88057 21.1879 2.0444L20.5736 3.53113C20.3032 3.39187 19.9961 3.2772 19.652 3.18709C19.308 3.09699 18.9476 3.05193 18.5708 3.05193C18.0301 3.05193 17.5591 3.1748 17.1578 3.42054C16.7646 3.66628 16.4574 4.01442 16.2362 4.46494C16.0233 4.90727 15.9168 5.43152 15.9168 6.03768C15.9168 6.61107 15.9946 7.11894 16.1502 7.56127C16.3059 8.0036 16.5516 8.35174 16.8875 8.60567C17.2233 8.85141 17.6615 8.97428 18.2022 8.97428C18.3824 8.97428 18.538 8.97018 18.6691 8.96199C18.8083 8.94561 18.9353 8.92923 19.05 8.91284C19.1646 8.88827 19.2752 8.86779 19.3817 8.85141V7.02064H17.723V5.47248Z" fill="white"/>
<path d="M25.9016 3.56799C26.5242 3.56799 27.0566 3.68676 27.4989 3.92431C27.9494 4.16186 28.2976 4.5059 28.5433 4.95642C28.7891 5.40695 28.9119 5.95986 28.9119 6.61517V7.49984H24.5869C24.6033 8.01589 24.7548 8.42136 25.0415 8.71625C25.3364 9.01114 25.7419 9.15858 26.2579 9.15858C26.6921 9.15858 27.0853 9.11763 27.4375 9.03571C27.7897 8.94561 28.1542 8.81045 28.531 8.63024V10.0432C28.2034 10.2071 27.8552 10.3259 27.4866 10.3996C27.1262 10.4815 26.688 10.5224 26.1719 10.5224C25.5002 10.5224 24.9064 10.3996 24.3903 10.1538C23.8743 9.8999 23.4688 9.519 23.1739 9.01114C22.879 8.50328 22.7316 7.86435 22.7316 7.09436C22.7316 6.30799 22.8626 5.65678 23.1247 5.14073C23.3951 4.61648 23.7678 4.2233 24.2429 3.96117C24.718 3.69905 25.2709 3.56799 25.9016 3.56799ZM25.9139 4.87041C25.5617 4.87041 25.2668 4.98509 25.0292 5.21445C24.7999 5.44381 24.6647 5.80013 24.6238 6.28342H27.1918C27.1918 6.01311 27.1426 5.77146 27.0443 5.55849C26.9542 5.34551 26.8149 5.17759 26.6265 5.05472C26.4381 4.93185 26.2006 4.87041 25.9139 4.87041Z" fill="white"/>
<path d="M33.2225 9.06029C33.4273 9.06029 33.6238 9.03981 33.8122 8.99885C34.0006 8.9579 34.189 8.90875 34.3774 8.85141V10.2153C34.1809 10.2972 33.9351 10.3668 33.6402 10.4241C33.3535 10.4897 33.0382 10.5224 32.6941 10.5224C32.2928 10.5224 31.9323 10.4569 31.6129 10.3259C31.3016 10.1948 31.0518 9.96953 30.8634 9.65006C30.6832 9.32241 30.593 8.87189 30.593 8.29849V5.067H29.7207V4.29292L30.7282 3.67857L31.2565 2.26556H32.4238V3.69086H34.3037V5.067H32.4238V8.29849C32.4238 8.55242 32.4975 8.74492 32.645 8.87598C32.7924 8.99885 32.9849 9.06029 33.2225 9.06029Z" fill="white"/>
<path d="M39.4347 5.067H37.8497V10.3996H36.0189V5.067H35.0114V4.18234L36.0189 3.69086V3.19938C36.0189 2.62598 36.1131 2.18365 36.3015 1.87238C36.4981 1.55292 36.7725 1.32765 37.1248 1.19659C37.4852 1.06553 37.907 1 38.3903 1C38.7507 1 39.0743 1.02867 39.361 1.08601C39.6559 1.14335 39.8934 1.20888 40.0736 1.2826L39.6067 2.62189C39.4675 2.58093 39.3159 2.54407 39.1521 2.5113C38.9883 2.47035 38.7999 2.44987 38.5869 2.44987C38.333 2.44987 38.1446 2.52769 38.0217 2.68332C37.907 2.83896 37.8497 3.03555 37.8497 3.2731V3.69086H39.4347V5.067ZM42.3099 3.69086V10.3996H40.4791V3.69086H42.3099ZM41.4006 1.06144C41.6709 1.06144 41.9044 1.12697 42.101 1.25803C42.2976 1.3809 42.3959 1.61435 42.3959 1.95839C42.3959 2.29423 42.2976 2.52769 42.101 2.65875C41.9044 2.78981 41.6709 2.85534 41.4006 2.85534C41.1221 2.85534 40.8846 2.78981 40.688 2.65875C40.4996 2.52769 40.4054 2.29423 40.4054 1.95839C40.4054 1.61435 40.4996 1.3809 40.688 1.25803C40.8846 1.12697 41.1221 1.06144 41.4006 1.06144Z" fill="white"/>
<path d="M47.0574 9.06029C47.2622 9.06029 47.4587 9.03981 47.6471 8.99885C47.8355 8.9579 48.0239 8.90875 48.2123 8.85141V10.2153C48.0158 10.2972 47.77 10.3668 47.4751 10.4241C47.1884 10.4897 46.8731 10.5224 46.529 10.5224C46.1277 10.5224 45.7672 10.4569 45.4478 10.3259C45.1365 10.1948 44.8867 9.96953 44.6983 9.65006C44.5181 9.32241 44.4279 8.87189 44.4279 8.29849V5.067H43.5556V4.29292L44.5631 3.67857L45.0914 2.26556H46.2587V3.69086H48.1386V5.067H46.2587V8.29849C46.2587 8.55242 46.3324 8.74492 46.4799 8.87598C46.6273 8.99885 46.8198 9.06029 47.0574 9.06029Z" fill="white"/>
<circle cx="6" cy="6" r="6" fill="white"/>
<mask id="mask0_845_5250" style="mask-type:alpha" maskUnits="userSpaceOnUse" x="0" y="0" width="12" height="12">
<circle cx="6" cy="6" r="6" fill="#D9D9D9"/>
</mask>
<g mask="url(#mask0_845_5250)">
<path fill-rule="evenodd" clip-rule="evenodd" d="M5.82271 3.62946L4.70468 9.1368C4.63156 9.49701 4.12669 9.52304 4.01691 9.17227L2.91482 5.65089L2.39391 6.42761C2.32789 6.52606 2.21715 6.58513 2.09862 6.58513H-0.533333V6.0518H2.00379L2.67843 5.04585C2.84467 4.79797 3.2239 4.85285 3.31305 5.13769L4.31949 8.35347L5.42314 2.91695C5.49418 2.56704 5.97892 2.52844 6.10445 2.86268L7.50562 6.59353L8.36257 5.02889C8.48425 4.80672 8.7926 4.77943 8.95141 4.97676L9.81658 6.0518H12.5778V6.58513H9.73145C9.6238 6.58513 9.52195 6.53636 9.45446 6.45249L8.70262 5.51828L7.78726 7.18956C7.6412 7.45625 7.24947 7.42843 7.14256 7.14377L5.82271 3.62946Z" fill="#C61E72"/>
<path fill-rule="evenodd" clip-rule="evenodd" d="M5.27614 2.88699C5.37715 2.38945 6.06638 2.33457 6.24487 2.80982L7.5311 6.23462L8.23101 4.95671C8.40402 4.64082 8.84246 4.60201 9.06827 4.8826L9.8884 5.90167H12.7278V6.73501H9.73145C9.57839 6.73501 9.43356 6.66566 9.3376 6.54642L8.72641 5.78697L7.91882 7.26149C7.71113 7.6407 7.15415 7.60114 7.00214 7.19638L5.86585 4.17082L4.85168 9.16652C4.74771 9.67868 4.02985 9.71571 3.87375 9.21695L2.86512 5.99418L2.51849 6.51104C2.42461 6.65102 2.26716 6.73501 2.09862 6.73501H-0.683334V5.90167H1.92377L2.55385 4.96218C2.79022 4.60972 3.32945 4.68776 3.4562 5.09276L4.28849 7.75209L5.27614 2.88699ZM5.96402 2.9153C5.89145 2.72206 5.61121 2.74439 5.57014 2.94667L4.46649 8.38319L4.17634 8.39815L3.1699 5.18237C3.11836 5.01769 2.89911 4.98597 2.803 5.12927L2.0838 6.20167H-0.383334V6.43501H2.09862C2.16714 6.43501 2.23116 6.40086 2.26933 6.34394L2.96452 5.30736L4.16006 9.12734C4.22353 9.33013 4.5154 9.31508 4.55768 9.10684L5.77958 3.08785L7.28299 7.09091C7.34479 7.25548 7.57126 7.27156 7.6557 7.11738L8.67882 5.24934L9.57131 6.35833C9.61033 6.40681 9.66922 6.43501 9.73145 6.43501H12.4278V6.20167H9.74475L8.83455 5.07068C8.74274 4.9566 8.56448 4.97238 8.49413 5.10082L7.48013 6.9522L5.96402 2.9153Z" fill="#C61E72"/>
</g>
</svg>
