<svg width="24" height="17" viewBox="0 0 24 17" fill="none" xmlns="http://www.w3.org/2000/svg">
<path d="M13.6279 0H3.11959C1.7336 0 0.599609 1.37454 0.599609 3.05453V13.3483C0.599609 15.0283 1.7336 16.4028 3.11959 16.4028H13.6279C15.0139 16.4028 16.1479 15.0283 16.1479 13.3483V3.05453C16.1479 1.34399 15.0139 0 13.6279 0ZM21.7675 1.67999C21.6163 1.71053 21.4651 1.80217 21.3391 1.89381L17.4079 4.64288V11.7294L21.3643 14.4785C22.0951 14.9977 23.0023 14.6923 23.4307 13.8065C23.5567 13.5316 23.6323 13.2261 23.6323 12.8901V3.45161C23.6323 2.32144 22.7503 1.40508 21.7675 1.67999Z" fill="#1F1F1F" fill-opacity="0.3"/>
</svg>
