<svg width="52" height="52" viewBox="0 0 52 52" fill="none" xmlns="http://www.w3.org/2000/svg">
<path d="M26 52C40.3598 52 52 40.3598 52 26C52 11.6402 40.3598 0 26 0C11.6402 0 0 11.6402 0 26C0 40.3598 11.6402 52 26 52Z" fill="#D1D1D1"/>
<path d="M25.9999 12.818C20.6179 12.818 16.2499 17.186 16.2499 22.568C16.2499 27.846 20.3839 32.136 25.8699 32.292H26.3379C28.8618 32.209 31.2546 31.1482 33.0108 29.3338C34.7671 27.5193 35.7493 25.0932 35.7499 22.568C35.7499 17.186 31.3819 12.818 25.9999 12.818ZM43.6279 45.11C38.8296 49.5451 32.534 52.0057 25.9999 52C19.1879 52 12.9999 49.374 8.37195 45.11C8.99595 42.744 10.6859 40.586 13.1559 38.922C20.2539 34.19 31.7979 34.19 38.8439 38.922C41.3399 40.586 43.0039 42.744 43.6279 45.11Z" fill="#C61E72"/>
</svg>
