<svg width="17" height="20" viewBox="0 0 17 20" fill="none" xmlns="http://www.w3.org/2000/svg">
<path d="M8.79351 0C6.36861 0 4.39646 1.94833 4.39646 4.34333C4.39646 6.73917 6.36903 8.68792 8.79351 8.68792C11.218 8.68792 13.191 6.73917 13.191 4.34333C13.191 1.94833 11.218 0 8.79351 0ZM12.1914 9.91375C12.3479 10.5825 12.5952 11.7983 12.5129 12.5033C13.1598 13.0696 14.8568 14.7387 14.4876 16.3858C14.4851 16.4054 14.3104 17.3525 13.1205 17.7546C13.0681 17.7726 13.0126 17.7801 12.9572 17.7768C12.9019 17.7735 12.8477 17.7593 12.7979 17.7352C12.7481 17.711 12.7037 17.6774 12.6671 17.6361C12.6306 17.5949 12.6027 17.5469 12.5851 17.495C12.5671 17.4432 12.5596 17.3884 12.5631 17.3338C12.5665 17.2791 12.5809 17.2257 12.6053 17.1766C12.6297 17.1274 12.6637 17.0835 12.7054 17.0473C12.747 17.0112 12.7955 16.9835 12.8479 16.9658C13.556 16.7267 13.6589 16.2308 13.6606 16.2262C13.9129 15.0967 12.6471 13.7254 11.9433 13.1158C11.1011 13.5196 9.5087 14.51 9.44709 15.6442C9.44456 15.6792 9.4184 16.1812 10.0273 16.5904C10.1199 16.6526 10.1837 16.7485 10.2046 16.8571C10.2256 16.9657 10.202 17.0781 10.1391 17.1696C10.0761 17.261 9.97898 17.324 9.86899 17.3447C9.759 17.3654 9.64518 17.3422 9.55258 17.28C8.51165 16.5808 8.60152 15.6192 8.60532 15.5783C8.7011 13.8179 11.0311 12.6183 11.6813 12.3167C11.7201 11.6917 11.4572 10.4008 11.2635 9.67167C11.2576 9.64875 11.2619 9.62667 11.2593 9.60375C10.6324 9.43267 9.98524 9.34495 9.33486 9.34292H8.25173C7.5049 9.34292 6.78422 9.45542 6.10448 9.66083C6.0973 9.69042 6.09562 9.72125 6.08085 9.75C6.07157 9.76875 5.15806 11.6412 4.72136 14.505C5.45511 14.705 5.99857 15.3629 5.99857 16.1496C5.99801 16.6035 5.81517 17.0386 5.49015 17.3596C5.16513 17.6806 4.72446 17.8611 4.26482 17.8617C3.80505 17.8612 3.36424 17.6807 3.03906 17.3598C2.71388 17.0388 2.53089 16.6036 2.53022 16.1496C2.53022 15.34 3.10448 14.6629 3.87114 14.4862C4.16777 12.4687 4.68507 10.9325 5.01587 10.0942C2.58211 11.2792 0.899414 13.7487 0.899414 16.6054V19.5833C0.899414 19.6938 0.943869 19.7998 1.023 19.878C1.10213 19.9561 1.20945 20 1.32136 20H16.2673C16.5007 20 16.6893 19.8079 16.6893 19.5775V16.6054C16.6884 13.6012 14.8319 11.0171 12.1914 9.91375Z" fill="#1F1F1F" fill-opacity="0.3"/>
</svg>
