<svg width="19" height="18" viewBox="0 0 19 18" fill="none" xmlns="http://www.w3.org/2000/svg">
<path d="M9.00531 11.2461C7.7619 11.2461 6.75391 12.2541 6.75391 13.4975V18.0003H11.2567V13.4975C11.2567 12.2541 10.2487 11.2461 9.00531 11.2461Z" fill="#C61E72"/>
<path d="M12.758 13.4972V18H15.7598C17.0032 18 18.0112 16.992 18.0112 15.7486V8.9036C18.0114 8.51372 17.8599 8.13907 17.5887 7.85895L11.2112 0.964381C10.086 -0.253135 8.18677 -0.327889 6.96925 0.79739C6.91142 0.850842 6.85571 0.906549 6.80226 0.964381L0.436033 7.8567C0.156647 8.13799 -0.000104656 8.51839 5.24241e-08 8.91486V15.7486C5.24241e-08 16.992 1.00799 18 2.2514 18H5.25326V13.4972C5.2673 11.4508 6.91951 9.77971 8.91436 9.73159C10.9759 9.68184 12.7422 11.3814 12.758 13.4972Z" fill="#C61E72"/>
<path d="M9.00531 11.2461C7.7619 11.2461 6.75391 12.2541 6.75391 13.4975V18.0003H11.2567V13.4975C11.2567 12.2541 10.2487 11.2461 9.00531 11.2461Z" fill="#C61E72"/>
</svg>
