<svg width="20" height="20" viewBox="0 0 20 20" fill="none" xmlns="http://www.w3.org/2000/svg">
<path d="M17.9159 0H12.5337C11.6667 0 10.9639 0.712459 10.9639 1.59132V7.04728C10.9639 7.92614 11.6667 8.6386 12.5337 8.6386H17.9159C18.7829 8.6386 19.4857 7.92614 19.4857 7.04728V1.59132C19.4857 0.712459 18.7829 0 17.9159 0Z" fill="#1F1F1F" fill-opacity="0.3"/>
<path d="M19.47 14.1064L16.334 10.9274C16.0393 10.6298 15.6403 10.4628 15.2244 10.4628C14.8084 10.4628 14.4094 10.6298 14.1147 10.9274L10.9787 14.1064C10.685 14.405 10.52 14.8095 10.52 15.2312C10.52 15.6529 10.685 16.0574 10.9787 16.356L14.1147 19.535C14.4093 19.8328 14.8084 20 15.2244 20C15.6404 20 16.0394 19.8328 16.334 19.535L19.47 16.356C19.764 16.0575 19.9291 15.653 19.9291 15.2312C19.9291 14.8094 19.764 14.4049 19.47 14.1064Z" fill="#1F1F1F" fill-opacity="0.3"/>
<path d="M7.15127 0H1.76904C0.90205 0 0.199219 0.712459 0.199219 1.59132V7.04728C0.199219 7.92614 0.90205 8.6386 1.76904 8.6386H7.15127C8.01825 8.6386 8.72108 7.92614 8.72108 7.04728V1.59132C8.72108 0.712459 8.01825 0 7.15127 0Z" fill="#1F1F1F" fill-opacity="0.3"/>
<path d="M7.15127 10.9119H1.76904C0.90205 10.9119 0.199219 11.6244 0.199219 12.5032V17.9592C0.199219 18.8381 0.90205 19.5505 1.76904 19.5505H7.15127C8.01825 19.5505 8.72108 18.8381 8.72108 17.9592V12.5032C8.72108 11.6244 8.01825 10.9119 7.15127 10.9119Z" fill="#1F1F1F" fill-opacity="0.3"/>
</svg>
