<svg width="18" height="20" viewBox="0 0 18 20" fill="none" xmlns="http://www.w3.org/2000/svg">
<path d="M17.6078 14.7545L16.3866 12.9977C16.2199 12.7589 16.1301 12.4748 16.1295 12.1835V7.14158C16.1295 5.24751 15.377 3.43103 14.0377 2.09172C12.6984 0.752414 10.8819 0 8.98788 0C7.09382 0 5.27733 0.752414 3.93802 2.09172C2.59871 3.43103 1.8463 5.24751 1.8463 7.14158V12.1835C1.84561 12.4748 1.7559 12.7589 1.5892 12.9977L0.367994 14.7545C0.183084 14.9594 0.06149 15.2134 0.0179158 15.486C-0.0256583 15.7585 0.0106538 16.0378 0.122461 16.2901C0.234268 16.5424 0.416782 16.757 0.647931 16.9078C0.87908 17.0585 1.14896 17.1391 1.42495 17.1398H5.48851C5.65242 17.947 6.09035 18.6727 6.7281 19.194C7.36585 19.7152 8.1642 20 8.98788 20C9.81156 20 10.6099 19.7152 11.2477 19.194C11.8854 18.6727 12.3233 17.947 12.4873 17.1398H16.5508C16.8268 17.1391 17.0967 17.0585 17.3278 16.9078C17.559 16.757 17.7415 16.5424 17.8533 16.2901C17.9651 16.0378 18.0014 15.7585 17.9578 15.486C17.9143 15.2134 17.7927 14.9594 17.6078 14.7545ZM8.98788 18.5681C8.54586 18.5669 8.11504 18.4289 7.75448 18.1732C7.39393 17.9175 7.1213 17.5565 6.97395 17.1398H11.0018C10.8545 17.5565 10.5818 17.9175 10.2213 18.1732C9.86072 18.4289 9.4299 18.5669 8.98788 18.5681ZM1.42495 15.7115C1.45723 15.6815 1.48598 15.648 1.51065 15.6115L2.76042 13.8118C3.09382 13.3342 3.27324 12.766 3.27462 12.1835V7.14158C3.27462 5.62633 3.87655 4.17314 4.94799 3.10169C6.01944 2.03025 7.47263 1.42832 8.98788 1.42832C10.5031 1.42832 11.9563 2.03025 13.0278 3.10169C14.0992 4.17314 14.7011 5.62633 14.7011 7.14158V12.1835C14.7025 12.766 14.8819 13.3342 15.2153 13.8118L16.4651 15.6115C16.4898 15.648 16.5185 15.6815 16.5508 15.7115H1.42495Z" fill="#101011" fill-opacity="0.9"/>
</svg>
