<svg width="21" height="20" viewBox="0 0 21 20" fill="none" xmlns="http://www.w3.org/2000/svg">
<path fill-rule="evenodd" clip-rule="evenodd" d="M9.61443 13.8338C9.66483 13.8827 9.70487 13.9413 9.73217 14.006C9.75948 14.0708 9.77349 14.1403 9.77338 14.2106V18.4211C9.77338 18.8398 9.60703 19.2414 9.31092 19.5375C9.01481 19.8336 8.61321 20 8.19445 20H5.5629C5.14414 20 4.74254 19.8336 4.44643 19.5375C4.15032 19.2414 3.98397 18.8398 3.98397 18.4211V16.0369C3.9842 15.9166 3.94293 15.7998 3.86713 15.7064L0.885061 12.0148C0.506212 11.547 0.299595 10.9632 0.299805 10.3612V3.6844C0.299805 3.26564 0.466156 2.86404 0.762262 2.56793C1.05837 2.27182 1.45998 2.10547 1.87873 2.10547C2.29749 2.10547 2.6991 2.27182 2.99521 2.56793C3.29131 2.86404 3.45766 3.26564 3.45766 3.6844V8.50856C3.11508 8.60125 2.8029 8.78239 2.55241 9.03381C2.34948 9.23673 2.1885 9.47764 2.07867 9.74277C1.96885 10.0079 1.91232 10.2921 1.91232 10.5791C1.91232 10.866 1.96885 11.1502 2.07867 11.4153C2.1885 11.6805 2.34948 11.9214 2.55241 12.1243L4.10502 13.678C4.15642 13.7292 4.22499 13.7597 4.2975 13.7634C4.37 13.767 4.44131 13.7438 4.49765 13.698C4.52364 13.6768 4.5449 13.6505 4.56005 13.6206C4.57519 13.5908 4.58389 13.558 4.58558 13.5246C4.58727 13.4911 4.58191 13.4577 4.56984 13.4265C4.55777 13.3952 4.53928 13.3669 4.51555 13.3432L2.92399 11.7527C2.61307 11.4415 2.43843 11.0195 2.43843 10.5796C2.43843 10.1396 2.61307 9.71769 2.92399 9.40644L2.92504 9.40539C3.20591 9.12468 3.58597 8.96577 3.98306 8.96302C4.38015 8.96026 4.76237 9.11387 5.04712 9.39065L9.61443 13.8338ZM10.9849 13.8338C10.9345 13.8827 10.8945 13.9413 10.8672 14.006C10.8399 14.0708 10.8259 14.1403 10.826 14.2106V18.4211C10.826 18.8398 10.9923 19.2414 11.2885 19.5375C11.5846 19.8336 11.9862 20 12.4049 20H15.0365C15.4552 20 15.8568 19.8336 16.1529 19.5375C16.4491 19.2414 16.6154 18.8398 16.6154 18.4211V16.0369C16.6154 15.9158 16.6565 15.8 16.7322 15.7064L19.7143 12.0148C20.0933 11.5475 20.2996 10.9633 20.2996 10.3612V3.6844C20.2996 3.26564 20.1332 2.86404 19.8371 2.56793C19.541 2.27182 19.1394 2.10547 18.7206 2.10547C18.3019 2.10547 17.9003 2.27182 17.6042 2.56793C17.3081 2.86404 17.1417 3.26564 17.1417 3.6844V8.50856C17.4733 8.59803 17.787 8.77382 18.047 9.03381C18.2499 9.23673 18.4109 9.47764 18.5207 9.74277C18.6305 10.0079 18.6871 10.2921 18.6871 10.5791C18.6871 10.866 18.6305 11.1502 18.5207 11.4153C18.4109 11.6805 18.2499 11.9214 18.047 12.1243L16.4944 13.678C16.443 13.7292 16.3744 13.7597 16.3019 13.7634C16.2294 13.767 16.1581 13.7438 16.1017 13.698C16.0757 13.6768 16.0545 13.6505 16.0393 13.6206C16.0242 13.5908 16.0155 13.558 16.0138 13.5246C16.0121 13.4911 16.0175 13.4577 16.0295 13.4265C16.0416 13.3952 16.0601 13.3669 16.0838 13.3432L17.6754 11.7527C17.9863 11.4415 18.1609 11.0195 18.1609 10.5796C18.1609 10.1396 17.9863 9.71769 17.6754 9.40644L17.6743 9.40539C17.3935 9.12468 17.0134 8.96577 16.6163 8.96302C16.2192 8.96026 15.837 9.11387 15.5523 9.39065L10.9849 13.8338ZM10.826 9.47381C10.826 9.56356 10.849 9.65182 10.8927 9.7302C10.9364 9.80858 10.9994 9.87447 11.0758 9.92162C11.1522 9.96877 11.2393 9.99561 11.329 9.99958C11.4187 10.0036 11.5079 9.98454 11.5881 9.94433L14.746 8.3654C14.8333 8.32165 14.9067 8.25446 14.958 8.17137C15.0093 8.08827 15.0365 7.99254 15.0365 7.89488V3.6844C15.0365 3.59465 15.0135 3.50639 14.9698 3.42801C14.9261 3.34963 14.863 3.28374 14.7867 3.23659C14.7103 3.18944 14.6231 3.1626 14.5335 3.15863C14.4438 3.15465 14.3546 3.17367 14.2744 3.21388L11.1165 4.79281C11.0292 4.83656 10.9558 4.90374 10.9045 4.98684C10.8532 5.06994 10.826 5.16567 10.826 5.26333V9.47381ZM9.01128 9.94433C9.09152 9.98454 9.18071 10.0036 9.27037 9.99958C9.36004 9.99561 9.44719 9.96877 9.52356 9.92162C9.59993 9.87447 9.66297 9.80858 9.7067 9.7302C9.75042 9.65182 9.77338 9.56356 9.77338 9.47381V5.26333C9.77338 5.16567 9.7462 5.06994 9.69489 4.98684C9.64358 4.90374 9.57017 4.83656 9.48286 4.79281L6.325 3.21388C6.24476 3.17367 6.15557 3.15465 6.06591 3.15863C5.97624 3.1626 5.88909 3.18944 5.81272 3.23659C5.73635 3.28374 5.67331 3.34963 5.62958 3.42801C5.58586 3.50639 5.5629 3.59465 5.5629 3.6844V7.89488C5.5629 7.99254 5.59008 8.08827 5.64139 8.17137C5.6927 8.25446 5.76611 8.32165 5.85342 8.3654L9.01128 9.94433ZM13.6933 2.57599C13.7806 2.53224 13.854 2.46505 13.9053 2.38196C13.9566 2.29886 13.9838 2.20313 13.9838 2.10547C13.9838 2.00782 13.9566 1.91208 13.9053 1.82899C13.854 1.74589 13.7806 1.67871 13.6933 1.63495L10.5355 0.0560219C10.4623 0.0191867 10.3816 0 10.2997 0C10.2178 0 10.137 0.0191867 10.0639 0.0560219L6.90604 1.63495C6.81874 1.67871 6.74533 1.74589 6.69403 1.82899C6.64273 1.91208 6.61556 2.00782 6.61556 2.10547C6.61556 2.20313 6.64273 2.29886 6.69403 2.38196C6.74533 2.46505 6.81874 2.53224 6.90604 2.57599L10.0639 4.15492C10.137 4.19176 10.2178 4.21094 10.2997 4.21094C10.3816 4.21094 10.4623 4.19176 10.5355 4.15492L13.6933 2.57599Z" fill="#1F1F1F" fill-opacity="0.3"/>
</svg>
