<svg width="17" height="14" viewBox="0 0 17 14" fill="none" xmlns="http://www.w3.org/2000/svg">
<path d="M4.35645 4.62187C5.28613 5.63125 6.82676 6.21562 8.44707 6.21562C10.1205 6.21562 11.6611 5.60469 12.5908 4.54219L12.7502 4.38281C12.0596 2.94844 11.4752 1.77969 12.4049 0H4.59551C5.55176 1.80625 4.91426 3.00156 4.22363 4.4625L4.35645 4.62187Z" fill="#C61E72"/>
<path d="M12.9891 4.91405C12.0063 6.02968 10.3328 6.74686 8.44687 6.74686C6.5875 6.74686 4.96719 6.05624 3.95781 4.96718C3.69219 5.55155 3.45312 6.18905 3.32031 6.90624C5.81719 8.07499 7.225 10.3062 8.47344 10.3062C9.72188 10.3062 11.1563 8.04843 13.6531 6.90624C13.5203 6.16249 13.2812 5.49843 12.9891 4.91405ZM16.7344 2.23124H14.1047L15.0609 1.27499C15.1672 1.16874 15.1672 1.00936 15.0609 0.903113C14.9547 0.796863 14.7953 0.796863 14.6891 0.903113L13.2812 2.31093C13.175 2.41718 13.175 2.57655 13.2812 2.6828L14.6891 4.09061C14.7422 4.14374 14.8219 4.1703 14.875 4.1703C14.9281 4.1703 15.0078 4.14374 15.0609 4.09061C15.1672 3.98436 15.1672 3.82499 15.0609 3.71874L14.1047 2.76249H16.7344C16.8937 2.76249 17 2.65624 17 2.49686C17 2.33749 16.8937 2.23124 16.7344 2.23124ZM3.71875 2.31093L2.31094 0.903113C2.20469 0.796863 2.04531 0.796863 1.93906 0.903113C1.83281 1.00936 1.83281 1.16874 1.93906 1.27499L2.89531 2.23124H0.265625C0.10625 2.23124 0 2.33749 0 2.49686C0 2.65624 0.10625 2.76249 0.265625 2.76249H2.89531L1.93906 3.71874C1.83281 3.82499 1.83281 3.98436 1.93906 4.09061C1.96563 4.1703 2.04531 4.19686 2.09844 4.19686C2.15156 4.19686 2.23125 4.1703 2.28438 4.11718L3.69219 2.70936C3.825 2.60311 3.825 2.41718 3.71875 2.31093ZM10.9969 9.40311C10.1734 10.1203 9.48281 10.7047 8.76562 10.8109V13.175H12.4312C13.6531 10.7047 13.9187 8.89843 13.7594 7.46405C12.6438 7.9953 11.7672 8.73905 10.9969 9.40311ZM3.26719 7.49061C3.10781 8.92499 3.4 10.7312 4.59531 13.2016H8.23438V10.8375C7.51719 10.7312 6.82656 10.1469 6.00313 9.42968C5.20625 8.73905 4.32969 7.9953 3.26719 7.49061Z" fill="#C61E72"/>
</svg>
