<svg width="28" height="28" viewBox="0 0 28 28" fill="none" xmlns="http://www.w3.org/2000/svg">
<path d="M14 28C21.732 28 28 21.732 28 14C28 6.26801 21.732 0 14 0C6.26801 0 0 6.26801 0 14C0 21.732 6.26801 28 14 28Z" fill="#E1EBF0"/>
<path d="M8.88758 8.88779C7.76758 9.99813 7.00965 11.4802 6.81172 13.1312C6.74896 13.6237 6.34827 14.0002 5.85103 14.0002H2.93999C2.37999 14.0002 1.9262 13.5223 1.97447 12.9623C2.22551 10.0512 3.51447 7.42503 5.46965 5.46986L6.27585 5.31055L8.68965 7.24158L8.88758 8.88779Z" fill="#4AAFA3"/>
<path d="M13.9999 1.93115L14.4827 2.89667V5.79322L13.9999 6.75874C12.0062 6.75874 10.1958 7.56977 8.88754 8.8877L5.4696 5.46977C7.6565 3.28288 10.6737 1.93115 13.9999 1.93115Z" fill="#5DCEC4"/>
<path d="M22.5303 5.46977L22.6858 6.27646L20.2759 8.68977L19.1172 8.8877H19.1124C18.4438 8.21178 17.6476 7.67549 16.7699 7.31C15.8923 6.94452 14.9507 6.75713 14 6.75874V1.93115C17.3262 1.93115 20.3434 3.28288 22.5303 5.46977Z" fill="#F9D438"/>
<path d="M26.0255 12.9621C26.0737 13.5221 25.6199 14.0001 25.0599 14.0001H22.1489C21.6517 14.0001 21.251 13.6235 21.1882 13.1311C20.9903 11.4849 20.2372 10.0028 19.1172 8.88766L22.5303 5.46973C24.4855 7.4249 25.7744 10.0511 26.0255 12.9621Z" fill="#F9415B"/>
<path d="M21.1695 7.38968C19.9249 9.28934 17.642 12.5547 15.1929 15.0038C15.0287 15.1686 14.8296 15.2944 14.6102 15.3719C14.3908 15.4493 14.1568 15.4765 13.9255 15.4513C13.6942 15.4261 13.4715 15.3493 13.2739 15.2264C13.0763 15.1036 12.9089 14.9379 12.784 14.7416C12.3756 14.1218 12.5016 13.3006 13.0258 12.7763C15.4749 10.3374 18.72 8.06941 20.61 6.83017C20.9778 6.58348 21.4114 7.02182 21.1695 7.38968ZM15.5589 17.8742C15.453 17.8493 15.3419 17.8608 15.2434 17.9068C15.1449 17.9529 15.0649 18.0309 15.0163 18.1282L14 20.1611L12.9838 18.1282C12.9351 18.031 12.855 17.9532 12.7566 17.9071C12.6581 17.861 12.547 17.8494 12.4412 17.8742C12.2235 17.9259 12.069 18.1204 12.069 18.3444V23.172C12.069 23.3001 12.1199 23.4229 12.2104 23.5134C12.3009 23.6039 12.4237 23.6548 12.5518 23.6548C12.6798 23.6548 12.8026 23.6039 12.8931 23.5134C12.9837 23.4229 13.0345 23.3001 13.0345 23.172V20.3894L13.568 21.4568C13.7321 21.7841 14.2675 21.7841 14.4316 21.4568L14.9651 20.3894V23.172C14.9651 23.3001 15.0159 23.4229 15.1065 23.5134C15.197 23.6039 15.3198 23.6548 15.4478 23.6548C15.5759 23.6548 15.6987 23.6039 15.7892 23.5134C15.8797 23.4229 15.9306 23.3001 15.9306 23.172V18.3444C15.9306 18.1204 15.7771 17.9264 15.5589 17.8742ZM20.7587 22.6893H19.7931V18.8272H20.7587C20.8867 18.8272 21.0095 18.7763 21.1 18.6858C21.1906 18.5953 21.2414 18.4725 21.2414 18.3444C21.2414 18.2164 21.1906 18.0936 21.1 18.0031C21.0095 17.9125 20.8867 17.8617 20.7587 17.8617H17.8621C17.7341 17.8617 17.6113 17.9125 17.5208 18.0031C17.4302 18.0936 17.3794 18.2164 17.3794 18.3444C17.3794 18.4725 17.4302 18.5953 17.5208 18.6858C17.6113 18.7763 17.7341 18.8272 17.8621 18.8272H18.8276V22.6893H17.8621C17.7341 22.6893 17.6113 22.7401 17.5208 22.8307C17.4302 22.9212 17.3794 23.044 17.3794 23.172C17.3794 23.3001 17.4302 23.4229 17.5208 23.5134C17.6113 23.6039 17.7341 23.6548 17.8621 23.6548H20.7587C20.8867 23.6548 21.0095 23.6039 21.1 23.5134C21.1906 23.4229 21.2414 23.3001 21.2414 23.172C21.2414 23.044 21.1906 22.9212 21.1 22.8307C21.0095 22.7401 20.8867 22.6893 20.7587 22.6893ZM10.6207 19.5513C10.6207 18.6196 9.8628 17.8617 8.93108 17.8617H7.24143C7.11339 17.8617 6.9906 17.9125 6.90006 18.0031C6.80953 18.0936 6.75867 18.2164 6.75867 18.3444V23.172C6.75867 23.3001 6.80953 23.4229 6.90006 23.5134C6.9906 23.6039 7.11339 23.6548 7.24143 23.6548H8.93108C9.8628 23.6548 10.6207 22.8969 10.6207 21.9651C10.6207 21.492 10.4243 21.0653 10.11 20.7582C10.2715 20.6015 10.4 20.4139 10.4877 20.2066C10.5754 19.9993 10.6207 19.7764 10.6207 19.5513ZM9.65522 21.9651C9.65522 22.3644 9.33032 22.6893 8.93108 22.6893H7.72418V21.241H8.93108C9.33032 21.241 9.65522 21.5659 9.65522 21.9651ZM7.72418 20.2755V18.8272H8.93108C9.33032 18.8272 9.65522 19.1521 9.65522 19.5513C9.65522 19.9506 9.33032 20.2755 8.93108 20.2755H7.72418Z" fill="#313851"/>
</svg>
