<svg width="29" height="28" viewBox="0 0 29 28" fill="none" xmlns="http://www.w3.org/2000/svg">
<path d="M14.5 15.5C15.6046 15.5 16.5 14.6046 16.5 13.5C16.5 12.3954 15.6046 11.5 14.5 11.5C13.3954 11.5 12.5 12.3954 12.5 13.5C12.5 14.6046 13.3954 15.5 14.5 15.5Z" fill="#009CF7"/>
<path d="M21.5 10.5H19.5V12L20.5 12.5L20 14.5C19.3727 14.6568 18.7868 14.9475 18.2825 15.352C17.7781 15.7566 17.3672 16.2655 17.0781 16.8437L17 17L16.9495 16.9899C15.3325 16.6665 13.6675 16.6665 12.0505 16.9899L12 17L11.9219 16.8437C11.6328 16.2655 11.2219 15.7566 10.7175 15.352C10.2132 14.9475 9.62726 14.6568 9 14.5L8.5 12.5L9.5 12V10.5H7.5L6.5 12.5V14.1614C6.49996 15.0387 6.72888 15.9008 7.16413 16.6625C8.02921 18.1762 9.3812 19.3525 11 20L12 23L11.5 25H17.5L17 23L18 20C19.6188 19.3525 20.9708 18.1762 21.8359 16.6625C22.2711 15.9008 22.5 15.0387 22.5 14.1614V12.5L21.5 10.5Z" fill="#009CF7"/>
<path d="M1.2129e-05 14.5001C-0.00245498 16.4047 0.371471 18.2909 1.1003 20.0505C1.82913 21.81 2.8985 23.4082 4.24695 24.7532L6.36826 22.6319C5.30038 21.564 4.45329 20.2962 3.87536 18.901C3.29742 17.5058 2.99997 16.0103 2.99997 14.5001C2.99997 12.9899 3.29742 11.4945 3.87536 10.0993C4.45329 8.70401 5.30038 7.43626 6.36826 6.36838L4.24695 4.24707C2.8985 5.59204 1.82913 7.19023 1.1003 8.94979C0.371471 10.7093 -0.00245498 12.5956 1.2129e-05 14.5001Z" fill="#FFC864"/>
<path d="M24.7531 4.2472L22.6317 6.36851C23.6996 7.43638 24.5467 8.70413 25.1246 10.0994C25.7025 11.4946 26 12.99 26 14.5003C26 16.0105 25.7025 17.5059 25.1246 18.9011C24.5467 20.2964 23.6996 21.5641 22.6317 22.632L24.7531 24.7533C26.0996 23.4069 27.1676 21.8084 27.8963 20.0491C28.6251 18.2899 29.0001 16.4044 29.0001 14.5002C29.0001 12.596 28.6251 10.7105 27.8963 8.95123C27.1676 7.192 26.0996 5.59352 24.7531 4.24707V4.2472Z" fill="#02A437"/>
<path d="M14.5 1.2129e-05C12.5955 -0.00245498 10.7092 0.371471 8.94966 1.1003C7.1901 1.82913 5.59192 2.8985 4.24695 4.24695L6.36826 6.36826C8.52493 4.2116 11.45 3 14.5 3C17.55 3 20.475 4.2116 22.6317 6.36826L24.7531 4.24695C23.4081 2.8985 21.8099 1.82913 20.0503 1.1003C18.2908 0.371471 16.4045 -0.00245498 14.5 1.2129e-05Z" fill="#FD9226"/>
<path d="M6.5 25H22.5V28H6.5V25Z" fill="#EAE9E4"/>
<path d="M6.5 25H22.5V26H6.5V25Z" fill="#CDCCC8"/>
</svg>
