<svg width="28" height="28" viewBox="0 0 28 28" fill="none" xmlns="http://www.w3.org/2000/svg">
<path d="M25.5546 28.0002C26.5103 28.0002 27.2564 27.1605 27.1287 26.2134C26.2562 19.7422 20.7112 14.7529 14.0009 14.7529C7.29057 14.7529 1.74564 19.7421 0.873153 26.2134C0.745458 27.1605 1.49156 28.0002 2.44728 28.0002H25.5546Z" fill="#E3748E"/>
<path d="M10.3201 15.2715C5.34916 16.7064 1.57955 20.9739 0.873153 26.2133C0.745458 27.1605 1.49156 28.0001 2.44728 28.0001H12.6567C7.96306 24.3052 9.07546 18.5394 10.3201 15.2715Z" fill="#DF5F7D"/>
<path d="M14.0009 24.1709C12.4149 24.1709 10.9046 23.7225 9.74812 22.9083C8.44557 21.9913 7.69849 20.667 7.69849 19.2751C7.69849 17.8832 8.44557 16.559 9.74812 15.642C10.9045 14.8278 12.4149 14.3794 14.0009 14.3794C15.5869 14.3794 17.0972 14.8278 18.2537 15.642C19.5562 16.559 20.3033 17.8832 20.3033 19.2751C20.3033 20.6671 19.5562 21.9913 18.2537 22.9083C17.0972 23.7224 15.5869 24.1709 14.0009 24.1709Z" fill="#EC9EB0"/>
<path d="M9.74812 15.6422C8.44557 16.5592 7.69849 17.8835 7.69849 19.2754C7.69849 20.5405 8.31585 21.7498 9.40643 22.6482C8.91266 19.953 9.58816 17.1996 10.3128 15.2905C10.117 15.399 9.92788 15.5157 9.74812 15.6422Z" fill="#E8899E"/>
<path d="M14.0009 22.6211C16.6257 22.6211 18.7535 21.1231 18.7535 19.2751C18.7535 17.4272 16.6257 15.9292 14.0009 15.9292C11.3761 15.9292 9.24829 17.4272 9.24829 19.2751C9.24829 21.1231 11.3761 22.6211 14.0009 22.6211Z" fill="#FFDDCF"/>
<path d="M25.2792 12.9726C26.7818 12.9726 28 11.9536 28 10.6965C28 9.43945 26.7818 8.42041 25.2792 8.42041C23.7765 8.42041 22.5583 9.43945 22.5583 10.6965C22.5583 11.9536 23.7765 12.9726 25.2792 12.9726Z" fill="#FFCBBE"/>
<path d="M2.72081 12.9726C4.22348 12.9726 5.44162 11.9536 5.44162 10.6965C5.44162 9.43945 4.22348 8.42041 2.72081 8.42041C1.21815 8.42041 0 9.43945 0 10.6965C0 11.9536 1.21815 12.9726 2.72081 12.9726Z" fill="#FFDDCF"/>
<path d="M25.6074 10.6057C25.5688 4.74234 20.3872 0 14 0C7.61284 0 2.4312 4.74234 2.39259 10.6057C2.01536 11.3346 1.80957 12.2218 1.80957 13.3021C1.80957 18.9878 7.49751 20.6431 14 20.6431C20.5025 20.6431 26.1905 18.9878 26.1905 13.3021C26.1905 12.2218 25.9847 11.3347 25.6074 10.6057Z" fill="#FFDDCF"/>
<path d="M20.379 19.9161C5.40664 20.3781 5.5153 8.69356 10.7279 0.430664C5.93219 1.72364 2.42431 5.7855 2.39259 10.6057C2.01536 11.3346 1.80957 12.2218 1.80957 13.3021C1.80957 18.9878 7.49751 20.6431 14 20.6431C16.3003 20.6432 18.4983 20.4356 20.379 19.9161Z" fill="#FFCBBE"/>
<path d="M7.04892 15.0361C8.46541 15.0361 9.61371 14.1217 9.61371 12.9936C9.61371 11.8656 8.46541 10.9512 7.04892 10.9512C5.63243 10.9512 4.48413 11.8656 4.48413 12.9936C4.48413 14.1217 5.63243 15.0361 7.04892 15.0361Z" fill="#F1B3C1"/>
<path d="M20.951 15.0361C22.3675 15.0361 23.5158 14.1217 23.5158 12.9936C23.5158 11.8656 22.3675 10.9512 20.951 10.9512C19.5345 10.9512 18.3862 11.8656 18.3862 12.9936C18.3862 14.1217 19.5345 15.0361 20.951 15.0361Z" fill="#F1B3C1"/>
<path d="M8.5437 11.3662C8.43492 11.3662 8.3306 11.323 8.25368 11.2461C8.17676 11.1691 8.13354 11.0648 8.13354 10.956V10.0503C8.13354 9.82372 8.31719 9.64014 8.5437 9.64014C8.77022 9.64014 8.95386 9.82372 8.95386 10.0503V10.956C8.95386 11.0648 8.91064 11.1691 8.83373 11.2461C8.75681 11.323 8.65248 11.3662 8.5437 11.3662ZM19.4563 11.3662C19.3475 11.3662 19.2432 11.323 19.1662 11.2461C19.0893 11.1691 19.0461 11.0648 19.0461 10.956V10.0503C19.0461 9.82372 19.2297 9.64014 19.4563 9.64014C19.6828 9.64014 19.8664 9.82372 19.8664 10.0503V10.956C19.8664 11.0648 19.8232 11.1691 19.7463 11.2461C19.6694 11.323 19.565 11.3662 19.4563 11.3662ZM14 12.2127C13.3641 12.2127 12.749 11.9468 12.3125 11.4832C12.238 11.404 12.1979 11.2984 12.2012 11.1897C12.2045 11.081 12.2508 10.978 12.33 10.9034C12.4092 10.8288 12.5148 10.7888 12.6235 10.7921C12.7322 10.7953 12.8352 10.8417 12.9098 10.9209C13.1961 11.225 13.5833 11.3924 14 11.3924C14.4168 11.3924 14.804 11.225 15.0903 10.9209C15.1653 10.8436 15.2677 10.7989 15.3754 10.7965C15.4831 10.794 15.5874 10.8341 15.6659 10.9079C15.7443 10.9818 15.7905 11.0835 15.7946 11.1911C15.7986 11.2988 15.7602 11.4037 15.6875 11.4832C15.251 11.9468 14.6359 12.2127 14 12.2127Z" fill="#4E5660"/>
<path d="M12.344 12.8274C12.2695 12.8274 12.1965 12.807 12.1327 12.7686C12.0689 12.7301 12.0167 12.675 11.9819 12.6092C11.947 12.5433 11.9307 12.4693 11.9348 12.3949C11.9389 12.3205 11.9631 12.2486 12.005 12.187C12.1476 11.9766 12.2231 11.7304 12.2231 11.475C12.2231 11.2196 12.1477 10.9734 12.0049 10.7629C11.9439 10.6729 11.9211 10.5623 11.9416 10.4555C11.9621 10.3487 12.0241 10.2544 12.1142 10.1933C12.1587 10.1631 12.2088 10.1419 12.2616 10.131C12.3144 10.1201 12.3687 10.1198 12.4216 10.1299C12.4746 10.14 12.5249 10.1605 12.5699 10.1901C12.6149 10.2198 12.6536 10.258 12.6838 10.3026C12.9187 10.6484 13.044 11.057 13.0434 11.475C13.0441 11.8931 12.9188 12.3016 12.6838 12.6474C12.6463 12.7029 12.5956 12.7484 12.5364 12.7798C12.4771 12.8112 12.4111 12.8275 12.344 12.8274ZM15.6559 12.8274C15.5888 12.8275 15.5228 12.8112 15.4636 12.7798C15.4043 12.7484 15.3537 12.703 15.3161 12.6475C15.0809 12.3006 14.9565 11.8952 14.9565 11.4751C14.9565 11.0549 15.0808 10.6494 15.3161 10.3026C15.3774 10.2132 15.4716 10.1516 15.5781 10.1314C15.6847 10.1112 15.7949 10.1341 15.8846 10.1949C15.9744 10.2558 16.0364 10.3497 16.0571 10.4562C16.0778 10.5626 16.0554 10.6729 15.995 10.763C15.8524 10.973 15.7764 11.2212 15.7768 11.4751C15.7763 11.7289 15.8524 11.977 15.995 12.187C16.0368 12.2487 16.061 12.3205 16.0651 12.3949C16.0691 12.4693 16.0529 12.5434 16.018 12.6092C15.9831 12.675 15.931 12.7301 15.8672 12.7686C15.8034 12.807 15.7304 12.8274 15.6559 12.8274Z" fill="#4E5660"/>
<path d="M14 0C7.74854 0 2.65281 4.54311 2.40283 10.2336C3.64282 9.7983 4.98304 8.83553 4.99311 6.89232C7.17038 9.11405 12.9618 6.33292 14.0009 4.77772C15.04 6.33292 20.8314 9.11405 23.0087 6.89232C23.0188 8.8346 24.3577 9.79732 25.5971 10.2329C25.3468 4.54273 20.2511 0 14 0Z" fill="#4E5660"/>
<path d="M7.79245 7.70273C8.24619 5.23578 9.29389 2.7038 10.7279 0.430664C6.05639 1.69028 2.60736 5.57752 2.40283 10.2336C3.64282 9.79836 4.98304 8.83558 4.99311 6.89237C5.66434 7.57728 6.67928 7.7863 7.79245 7.70273Z" fill="#424952"/>
</svg>
