<svg width="28" height="28" viewBox="0 0 28 28" fill="none" xmlns="http://www.w3.org/2000/svg">
<path d="M16.1952 10.8496C15.9732 11.3538 15.7003 11.8291 15.3792 12.2666C15.0321 12.7396 14.8317 13.2937 14.7791 13.8623L15.0531 14.4092H21.3366L21.8294 13.8623C20.3908 12.2722 18.4187 11.1736 16.1952 10.8496Z" fill="#FDE9E2"/>
<path d="M14.779 13.8623C14.7133 14.5704 14.8771 15.3011 15.2747 15.9262C15.6072 16.449 15.8785 17.0014 16.0885 17.5707C18.7517 17.744 20.8588 19.9594 20.8588 22.6664V27.4532C20.8588 27.7553 21.1037 28.0001 21.4057 28.0001H23.7223C24.0243 28.0001 24.2692 27.7553 24.2692 27.4532V20.1979C24.2692 17.7602 23.3455 15.5382 21.8293 13.8623H14.779Z" fill="#FCD9CA"/>
<path d="M15.2454 13.0704C15.3356 12.8421 15.4547 12.6263 15.5996 12.4283C16.4856 11.2213 17.0171 9.74039 17.1369 8.14516C17.453 3.94406 14.8531 0 10.0625 0C3.19328 0 0.00888477 6.91441 0.000244141 13.8622L0.679244 14.4091H13.806L14.5724 13.8622L15.2454 13.0704Z" fill="#FF8381"/>
<path d="M15.0869 14.7111L14.5581 13.8791L14.5724 13.8623H0.00021875C0.000164063 13.8718 0 13.8813 0 13.8907C0 20.917 3.23258 27.7814 10.0625 27.7814C16.1432 27.7814 18.7152 20.824 15.5055 15.7791C15.2983 15.4535 15.1561 15.0908 15.0869 14.7111Z" fill="#FF5955"/>
<path d="M18.1016 15.5029C18.5546 15.5029 18.9219 15.1357 18.9219 14.6826C18.9219 14.2296 18.5546 13.8623 18.1016 13.8623C17.6485 13.8623 17.2812 14.2296 17.2812 14.6826C17.2812 15.1357 17.6485 15.5029 18.1016 15.5029Z" fill="#FF2B26"/>
<path d="M27.9885 12.015C27.9134 11.5682 27.4905 11.2668 27.0436 11.3419L26.188 11.4857L26.3873 10.6377C26.5212 10.0683 26.0312 9.54364 25.4529 9.64093L23.3803 9.98907C22.9335 10.0642 22.6322 10.4872 22.7072 10.934C22.7823 11.3808 23.2055 11.682 23.6521 11.6071L24.5079 11.4633L24.3085 12.3114C24.1747 12.8807 24.6647 13.4055 25.243 13.3081L27.3155 12.9599C27.7622 12.8848 28.0636 12.4618 27.9885 12.015ZM24.0693 7.43413C24.3633 7.08943 24.3222 6.57165 23.9774 6.27771C23.6328 5.98371 23.115 6.02483 22.821 6.36953L22.258 7.02966L21.8656 6.25189C21.6021 5.72968 20.8898 5.64278 20.5091 6.08898L19.1452 7.68788C18.8512 8.03257 18.8923 8.55036 19.2369 8.84436C19.5816 9.13841 20.0994 9.09729 20.3934 8.75264L20.9566 8.0924L21.349 8.87028C21.6123 9.39216 22.3247 9.47955 22.7055 9.03314L24.0693 7.43413Z" fill="#FF8381"/>
<path d="M15.2452 13.0705H14.2248C12.7438 13.0705 11.5391 11.8657 11.5391 10.3848V9.63121C12.9527 9.26699 14 7.98184 14 6.45605C14 6.00324 13.6325 5.63574 13.1797 5.63574C12.7269 5.63574 12.3594 6.00324 12.3594 6.45605C12.3594 7.35895 11.6244 8.09394 10.716 8.09394C9.81313 8.09394 9.07813 7.35895 9.07813 6.45605C9.07813 6.00324 8.71063 5.63574 8.25782 5.63574C7.80501 5.63574 7.43751 6.00324 7.43751 6.45605C7.43751 7.9802 8.48313 9.26535 9.89844 9.63066V10.3848C9.89844 11.3993 10.2501 12.3322 10.8369 13.0705H8.18672C7.83125 11.6437 6.54008 10.5833 5.005 10.5833C4.55219 10.5833 4.18469 10.9508 4.18469 11.4036C4.18469 11.857 4.55219 12.2239 5.005 12.2239C5.90844 12.2239 6.64344 12.9589 6.64344 13.8624L7.46184 14.4093H14.5724L15.0531 13.8624C15.0803 13.5908 15.145 13.3243 15.2452 13.0705Z" fill="#FF5955"/>
<path d="M15.0531 13.8623H6.64344V13.8678C6.64344 14.7707 5.90844 15.5057 5.005 15.5057C4.55219 15.5057 4.18469 15.8726 4.18469 16.326C4.18469 16.7788 4.55219 17.1463 5.005 17.1463C6.52149 17.1463 7.80008 16.1111 8.17305 14.7111H10.8369C10.2501 15.4493 9.89844 16.3823 9.89844 17.3968V18.1504C8.48477 18.5146 7.43751 19.7997 7.43751 21.3255C7.43751 21.7783 7.80501 22.1458 8.25782 22.1458C8.71063 22.1458 9.07813 21.7783 9.07813 21.3255C9.07813 20.4226 9.81313 19.6876 10.7215 19.6876C11.6244 19.6876 12.3594 20.4226 12.3594 21.3255C12.3594 21.7783 12.7269 22.1458 13.1797 22.1458C13.6325 22.1458 14 21.7783 14 21.3255C14 19.8014 12.9544 18.5162 11.5391 18.1509V17.3968C11.5391 15.9158 12.7438 14.7111 14.2248 14.7111H15.0872C15.0358 14.4312 15.0243 14.1454 15.0531 13.8623Z" fill="#FF2B26"/>
</svg>
