<svg width="28" height="28" viewBox="0 0 28 28" fill="none" xmlns="http://www.w3.org/2000/svg">
<path d="M13.7369 27.4737C21.3235 27.4737 27.4737 21.3235 27.4737 13.7369C27.4737 6.1502 21.3235 0 13.7369 0C6.1502 0 0 6.1502 0 13.7369C0 21.3235 6.1502 27.4737 13.7369 27.4737Z" fill="#B49ACA"/>
<path d="M13.7368 22.7368C18.7074 22.7368 22.7369 18.7074 22.7369 13.7368C22.7369 8.76626 18.7074 4.73682 13.7368 4.73682C8.76626 4.73682 4.73682 8.76626 4.73682 13.7368C4.73682 18.7074 8.76626 22.7368 13.7368 22.7368Z" fill="#ECF0F1"/>
<path d="M19.6579 27.9999C24.2361 27.9999 27.9474 24.2885 27.9474 19.7104C27.9474 15.1322 24.2361 11.4209 19.6579 11.4209C15.0797 11.4209 11.3684 15.1322 11.3684 19.7104C11.3684 24.2885 15.0797 27.9999 19.6579 27.9999Z" fill="#FF5364"/>
<path d="M6.15785 5.2633V10.4738C6.15819 10.8938 6.01871 11.302 5.7614 11.6339C5.50409 11.9658 5.14361 12.2026 4.7368 12.307C4.58238 12.3496 4.42322 12.37 4.26311 12.3686H2.36837C2.20839 12.37 2.04898 12.3493 1.89469 12.307C1.48788 12.2026 1.1274 11.9658 0.870088 11.6339C0.61278 11.302 0.473295 10.8938 0.473633 10.4738V5.2633C0.473633 4.98762 0.594423 4.72567 0.805213 4.54804C0.984796 4.39058 1.2178 4.30777 1.45647 4.31658C1.69514 4.32539 1.92141 4.42515 2.0889 4.59541C2.2689 4.77067 2.36979 5.01225 2.36837 5.2633C2.36881 5.13103 2.39685 5.00031 2.45071 4.87951C2.50457 4.7587 2.58306 4.65047 2.68115 4.56174C2.77925 4.47301 2.89479 4.40573 3.02037 4.36422C3.14596 4.32271 3.27883 4.30788 3.41048 4.32067C3.6279 4.34246 3.83064 4.44004 3.98364 4.59541C4.16364 4.77067 4.26454 5.01225 4.26311 5.2633C4.26386 5.01228 4.36392 4.77174 4.54142 4.59424C4.71892 4.41674 4.95946 4.31668 5.21048 4.31593C5.43736 4.31463 5.6567 4.39731 5.82627 4.54804C5.93077 4.63552 6.01467 4.74498 6.07198 4.86862C6.1293 4.99226 6.15862 5.12703 6.15785 5.2633Z" fill="#3B97D3"/>
<path d="M4.73689 12.3066V23.7367C4.73689 24.1135 4.58717 24.475 4.32067 24.7415C4.05417 25.008 3.69272 25.1577 3.31583 25.1577C2.93894 25.1577 2.57749 25.008 2.31099 24.7415C2.04449 24.475 1.89478 24.1135 1.89478 23.7367V12.3066C2.0492 12.3493 2.20835 12.3696 2.36846 12.3682H4.2632C4.42331 12.3696 4.58246 12.3493 4.73689 12.3066ZM10.4211 14.7366V23.7367C10.4211 24.1135 10.2714 24.475 10.0049 24.7415C9.73839 25.008 9.37694 25.1577 9.00005 25.1577C8.62316 25.1577 8.26171 25.008 7.99521 24.7415C7.72871 24.475 7.579 24.1135 7.579 23.7367V14.7366H10.4211Z" fill="#2980BA"/>
<path d="M10.4211 4.7896V14.737H7.57898V11.4212C7.57898 5.0596 8.64003 4.31592 9.94741 4.31592C10.073 4.31592 10.1935 4.36582 10.2824 4.45466C10.3712 4.54349 10.4211 4.66397 10.4211 4.7896Z" fill="#3B97D3"/>
<path d="M15.5279 17.2829C15.489 17.2343 15.4409 17.1939 15.3864 17.1638C15.3319 17.1338 15.272 17.1148 15.2102 17.108C15.1483 17.1011 15.0857 17.1065 15.026 17.1238C14.9662 17.1412 14.9104 17.1701 14.8619 17.209L13.2632 18.488V17.579C13.2632 17.4533 13.2133 17.3329 13.1244 17.244C13.0356 17.1552 12.9151 17.1053 12.7895 17.1053C12.6639 17.1053 12.5434 17.1552 12.4545 17.244C12.3657 17.3329 12.3158 17.4533 12.3158 17.579V21.3684C12.3158 21.4941 12.3657 21.6146 12.4545 21.7034C12.5434 21.7922 12.6639 21.8421 12.7895 21.8421C12.9151 21.8421 13.0356 21.7922 13.1244 21.7034C13.2133 21.6146 13.2632 21.4941 13.2632 21.3684V20.4594L14.8619 21.7384C14.9104 21.7773 14.9662 21.8062 15.026 21.8235C15.0857 21.8409 15.1483 21.8462 15.2102 21.8394C15.272 21.8325 15.3319 21.8135 15.3864 21.7835C15.4409 21.7535 15.489 21.7131 15.5279 21.6645C15.5667 21.6159 15.5957 21.5602 15.613 21.5004C15.6303 21.4406 15.6357 21.378 15.6288 21.3162C15.622 21.2544 15.603 21.1945 15.573 21.14C15.543 21.0854 15.5025 21.0374 15.454 20.9985L13.5474 19.4737L15.4535 17.9489C15.5021 17.9101 15.5426 17.862 15.5727 17.8076C15.6027 17.7531 15.6218 17.6932 15.6287 17.6313C15.6356 17.5695 15.6302 17.5069 15.6129 17.4471C15.5956 17.3873 15.5667 17.3315 15.5279 17.2829ZM17.5263 18.0527H18C18.2615 18.0527 18.4737 18.2649 18.4737 18.5263C18.4737 18.652 18.5236 18.7725 18.6124 18.8613C18.7013 18.9501 18.8218 19 18.9474 19C19.073 19 19.1935 18.9501 19.2823 18.8613C19.3712 18.7725 19.4211 18.652 19.4211 18.5263C19.4211 18.1495 19.2714 17.788 19.0049 17.5215C18.7384 17.255 18.3769 17.1053 18 17.1053H17.5263C17.1494 17.1053 16.788 17.255 16.5215 17.5215C16.255 17.788 16.1053 18.1495 16.1053 18.5263V20.4211C16.1053 20.798 16.255 21.1594 16.5215 21.4259C16.788 21.6924 17.1494 21.8421 17.5263 21.8421H18C18.3769 21.8421 18.7384 21.6924 19.0049 21.4259C19.2714 21.1594 19.4211 20.798 19.4211 20.4211C19.4211 20.2954 19.3712 20.175 19.2823 20.0861C19.1935 19.9973 19.073 19.9474 18.9474 19.9474C18.8218 19.9474 18.7013 19.9973 18.6124 20.0861C18.5236 20.175 18.4737 20.2954 18.4737 20.4211C18.4737 20.5467 18.4238 20.6672 18.335 20.756C18.2461 20.8449 18.1256 20.8948 18 20.8948H17.5263C17.4007 20.8948 17.2802 20.8449 17.1914 20.756C17.1026 20.6672 17.0526 20.5467 17.0526 20.4211V18.5263C17.0526 18.4007 17.1026 18.2802 17.1914 18.1914C17.2802 18.1026 17.4007 18.0527 17.5263 18.0527ZM22.2333 17.4127C22.1996 17.3222 22.139 17.2442 22.0597 17.1891C21.9804 17.134 21.8861 17.1045 21.7895 17.1045C21.6929 17.1045 21.5986 17.134 21.5193 17.1891C21.44 17.2442 21.3794 17.3222 21.3457 17.4127L19.9246 21.2022C19.9028 21.2605 19.8927 21.3225 19.8949 21.3847C19.8971 21.4468 19.9115 21.508 19.9374 21.5646C19.9632 21.6212 19.9999 21.6722 20.0454 21.7146C20.0909 21.757 20.1444 21.79 20.2027 21.8118C20.2609 21.8336 20.3229 21.8437 20.3851 21.8415C20.4473 21.8393 20.5084 21.8249 20.5651 21.7991C20.6217 21.7732 20.6726 21.7365 20.7151 21.691C20.7575 21.6455 20.7905 21.5921 20.8123 21.5338L21.052 20.8948H22.527L22.7667 21.5347C22.8108 21.6524 22.8999 21.7478 23.0143 21.7999C23.1287 21.8519 23.2591 21.8564 23.3768 21.8123C23.4945 21.7682 23.5899 21.6791 23.642 21.5647C23.694 21.4503 23.6985 21.3199 23.6544 21.2022L22.2333 17.4127ZM21.4072 19.9474L21.7895 18.928L22.1718 19.9474H21.4072ZM27 20.8948H25.1053V17.579C25.1053 17.4533 25.0554 17.3329 24.9666 17.244C24.8777 17.1552 24.7572 17.1053 24.6316 17.1053C24.506 17.1053 24.3855 17.1552 24.2967 17.244C24.2078 17.3329 24.1579 17.4533 24.1579 17.579V21.3684C24.1579 21.4941 24.2078 21.6146 24.2967 21.7034C24.3855 21.7922 24.506 21.8421 24.6316 21.8421H27C27.1257 21.8421 27.2461 21.7922 27.335 21.7034C27.4238 21.6146 27.4737 21.4941 27.4737 21.3684C27.4737 21.2428 27.4238 21.1223 27.335 21.0335C27.2461 20.9447 27.1257 20.8948 27 20.8948Z" fill="white"/>
<path d="M2.36839 5.26329V9.05277C2.36839 9.1784 2.31848 9.29888 2.22965 9.38771C2.14082 9.47655 2.02033 9.52645 1.89471 9.52645C1.76908 9.52645 1.64859 9.47655 1.55976 9.38771C1.47093 9.29888 1.42102 9.1784 1.42102 9.05277V4.31592C1.6717 4.31778 1.91159 4.41819 2.08886 4.59545C2.26612 4.77272 2.36653 5.0126 2.36839 5.26329ZM5.2105 4.31592V9.05277C5.2105 9.1784 5.1606 9.29888 5.07176 9.38771C4.98293 9.47655 4.86245 9.52645 4.73682 9.52645C4.61119 9.52645 4.4907 9.47655 4.40187 9.38771C4.31304 9.29888 4.26313 9.1784 4.26313 9.05277V5.26329C4.26388 5.01226 4.36393 4.77173 4.54144 4.59422C4.71894 4.41672 4.95947 4.31667 5.2105 4.31592Z" fill="#285680"/>
</svg>
