<svg width="28" height="28" viewBox="0 0 28 28" fill="none" xmlns="http://www.w3.org/2000/svg">
<path d="M14 28C21.732 28 28 21.732 28 14C28 6.26801 21.732 0 14 0C6.26801 0 0 6.26801 0 14C0 21.732 6.26801 28 14 28Z" fill="#FF9E4A"/>
<path d="M21.5871 6.41309L6.41296 21.5872L12.7716 27.9459C13.1765 27.9811 13.5861 28.0002 14 28.0002C21.732 28.0002 28 21.7321 28 14.0002C28 13.5862 27.981 13.1767 27.9458 12.7718L21.5871 6.41309Z" fill="#FC844C"/>
<path d="M6.41296 21.5871C7.63036 22.8045 9.33251 23.5371 11.2024 23.4679L14.8338 19.8365L16.9182 20.2533L20.2533 16.9183L19.8364 14.8339L23.4678 11.2025C23.537 9.33263 22.8044 7.63048 21.587 6.41309L11.6452 11.6454L6.41296 21.5871Z" fill="#A7F6FA"/>
<path d="M16.7976 4.53235L13.1662 8.16376L11.0818 7.74688L7.74675 11.0819L8.16363 13.1664L4.53222 16.7978C4.46298 18.6676 5.19558 20.3697 6.41298 21.5871L21.5871 6.41305C20.3697 5.19571 18.6675 4.46306 16.7976 4.53235Z" fill="#E0FEFF"/>
<path d="M20.0172 7.98291L12.8226 12.8228L7.98279 20.0173C8.63045 20.665 9.44278 21.0735 10.3251 21.2055L21.2054 10.3252C21.0733 9.4429 20.6649 8.63057 20.0172 7.98291Z" fill="#71E4EB"/>
<path d="M20.0171 7.98263C19.3695 7.33502 18.5571 6.9265 17.6749 6.79443L6.79456 17.6748C6.92668 18.5571 7.33509 19.3694 7.98275 20.0171L20.0171 7.98263Z" fill="#A7F6FA"/>
</svg>
