<svg width="28" height="28" viewBox="0 0 28 28" fill="none" xmlns="http://www.w3.org/2000/svg">
<path d="M10.6208 2.89659L12.0691 1.93106V0H15.9313V1.93106L17.3796 2.89659V7.72425H10.6208V2.89659Z" fill="#F7CCA9"/>
<path d="M25.1037 28.0003H2.89654C2.89654 16.8967 6.75866 14.9656 6.75866 14.9656L5.31037 12.069L1.44824 10.138C1.44824 10.138 3.3793 3.86202 5.79313 3.86202C8.20696 3.86202 10.6208 2.89648 10.6208 2.89648C10.6208 2.89648 10.6208 5.31031 14.0001 5.31031C17.3795 5.31031 17.3795 2.89648 17.3795 2.89648C17.3795 2.89648 19.7933 3.86202 22.2072 3.86202C24.621 3.86202 26.552 10.138 26.552 10.138L22.6899 12.069L21.2416 14.9656C21.2416 14.9656 25.1037 16.8967 25.1037 28.0003Z" fill="#FF9494"/>
<path d="M14.0002 5.31031C14.0002 5.31031 14.0002 7.24137 11.5864 7.24137C9.92504 7.24137 8.94985 4.95488 8.5033 3.52891C9.22328 3.36872 9.93092 3.15737 10.6208 2.89648C10.6208 2.89648 10.6208 5.31031 14.0002 5.31031ZM14.0002 5.31031C14.0002 5.31031 14.0002 7.24137 16.414 7.24137C18.0753 7.24137 19.0505 4.95488 19.4971 3.52891C18.7771 3.36872 18.0695 3.15737 17.3795 2.89648C17.3795 2.89648 17.3795 5.31031 14.0002 5.31031Z" fill="#ED6F6D"/>
<path d="M1.4483 10.1382C1.4483 10.1382 0 14.4831 0 16.8969C0 19.3107 4.82765 25.5867 4.82765 25.5867L9.71674 27.6238C9.83486 27.673 9.96158 27.6983 10.0895 27.6981C10.2175 27.6979 10.3441 27.6723 10.4621 27.6227C10.5801 27.5732 10.687 27.5007 10.7767 27.4094C10.8664 27.3181 10.9371 27.21 10.9846 27.0912L11.2743 26.367C11.3608 26.1507 11.3662 25.9104 11.2895 25.6905C11.2128 25.4705 11.0591 25.2857 10.8569 25.1701L8.20701 23.6556L8.40187 23.071C8.47974 22.8374 8.46541 22.5828 8.3618 22.3594C8.2582 22.136 8.07315 21.9607 7.84452 21.8692L6.27595 21.2418C6.27595 21.2418 5.31042 18.3452 3.86212 16.4141L5.31042 12.0692L1.4483 10.1382Z" fill="#F7CCA9"/>
<path d="M17.8617 26.5523C17.7407 26.5522 17.6242 26.5067 17.5352 26.4247C17.4461 26.3428 17.3911 26.2304 17.381 26.1099C17.3709 25.9893 17.4064 25.8694 17.4805 25.7737C17.5546 25.6781 17.6619 25.6138 17.7812 25.5935C17.8917 25.5742 20.4449 25.0938 21.7634 22.0172C21.8138 21.8995 21.9089 21.8066 22.0278 21.759C22.1467 21.7115 22.2796 21.713 22.3973 21.7635C22.515 21.8139 22.6078 21.909 22.6554 22.0279C22.703 22.1467 22.7014 22.2796 22.651 22.3973C21.1163 25.9782 18.0707 26.524 17.9417 26.5455C17.9152 26.5499 17.8885 26.5522 17.8617 26.5523ZM6.75912 15.4486C6.65261 15.4488 6.54905 15.4137 6.46457 15.3488C6.38009 15.2839 6.31943 15.1929 6.29205 15.09C6.26467 14.9871 6.2721 14.878 6.31318 14.7797C6.35427 14.6814 6.42669 14.5995 6.51919 14.5467C6.66172 14.4653 10.0552 12.5521 14.0002 12.5521C14.1282 12.5521 14.251 12.6029 14.3415 12.6935C14.4321 12.784 14.4829 12.9068 14.4829 13.0348C14.4829 13.1629 14.4321 13.2857 14.3415 13.3762C14.251 13.4667 14.1282 13.5176 14.0002 13.5176C10.309 13.5176 7.03092 15.3664 6.99821 15.385C6.92543 15.4267 6.843 15.4487 6.75912 15.4486ZM17.0202 21.4959L14.0002 24.1384L10.9802 21.4959C10.739 21.2849 10.5746 20.9998 10.5128 20.6854C10.4509 20.3709 10.4951 20.0449 10.6384 19.7582L10.7851 19.4648C10.8817 19.2717 11.0203 19.1026 11.1907 18.9699C11.361 18.8372 11.5589 18.7443 11.7699 18.698C11.9808 18.6517 12.1994 18.6531 12.4097 18.7022C12.62 18.7512 12.8167 18.8467 12.9853 18.9816L14.0002 19.7935L15.0151 18.9816C15.1837 18.8467 15.3804 18.7512 15.5907 18.7022C15.801 18.6531 16.0196 18.6517 16.2305 18.698C16.4414 18.7443 16.6393 18.8372 16.8097 18.9699C16.9801 19.1026 17.1186 19.2717 17.2152 19.4648L17.3619 19.7582C17.5052 20.0449 17.5494 20.3709 17.4876 20.6854C17.4257 20.9998 17.2614 21.2849 17.0202 21.4959ZM5.3098 12.5521C5.19562 12.5519 5.08518 12.5113 4.99811 12.4374C4.91104 12.3636 4.85297 12.2612 4.83422 12.1486C4.31657 9.04265 6.79436 6.52316 6.90009 6.41744C6.99074 6.32773 7.11321 6.27754 7.24074 6.27783C7.36828 6.27812 7.49051 6.32886 7.58076 6.41897C7.67101 6.50909 7.72193 6.63125 7.72241 6.75878C7.72289 6.88631 7.67289 7.00885 7.58332 7.09964C7.56093 7.12215 5.35162 9.37993 5.78659 11.9899C5.79807 12.0591 5.79434 12.1299 5.77567 12.1976C5.75699 12.2652 5.72382 12.3279 5.67845 12.3814C5.63309 12.4349 5.57661 12.4779 5.51296 12.5073C5.44931 12.5368 5.37994 12.5521 5.3098 12.5521Z" fill="#ED6F6D"/>
<path d="M26.5521 10.1382C26.5521 10.1382 28.0004 15.9314 28.0004 18.3452C28.0004 20.759 27.0348 21.2418 25.1038 21.2418C23.1727 21.2418 16.414 15.4486 16.414 15.4486H10.6208C10.3647 15.4486 10.1191 15.3469 9.93807 15.1658C9.757 14.9847 9.65527 14.7391 9.65527 14.4831V13.5175C9.65527 13.2615 9.757 13.0159 9.93807 12.8348C10.1191 12.6537 10.3647 12.552 10.6208 12.552H14.0002L14.1023 12.2456C14.1481 12.1084 14.224 11.9833 14.3246 11.8794C14.4251 11.7755 14.5477 11.6955 14.6833 11.6454C14.8189 11.5952 14.964 11.5762 15.108 11.5896C15.2519 11.603 15.391 11.6486 15.515 11.723L16.8968 12.552C16.8968 12.552 21.2416 13.5175 24.1382 15.4486L22.6899 12.0692L26.5521 10.1382Z" fill="#F7CCA9"/>
<path d="M22.6906 12.5521C22.6204 12.5521 22.5511 12.5368 22.4875 12.5073C22.4238 12.4779 22.3674 12.4349 22.322 12.3814C22.2766 12.3279 22.2435 12.2652 22.2248 12.1975C22.2061 12.1299 22.2024 12.0591 22.2138 11.9899C22.6489 9.37993 20.4397 7.12215 20.4172 7.09964C20.3276 7.00885 20.2776 6.88631 20.2781 6.75878C20.2786 6.63125 20.3295 6.50909 20.4197 6.41897C20.51 6.32886 20.6322 6.27812 20.7598 6.27783C20.8873 6.27754 21.0097 6.32773 21.1004 6.41744C21.2061 6.52316 23.684 9.04247 23.1663 12.1486C23.1476 12.2612 23.0895 12.3636 23.0024 12.4375C22.9153 12.5114 22.8048 12.552 22.6906 12.5521Z" fill="#ED6F6D"/>
</svg>
