<svg width="28" height="28" viewBox="0 0 28 28" fill="none" xmlns="http://www.w3.org/2000/svg">
<path fill-rule="evenodd" clip-rule="evenodd" d="M13.1086 7.4457C13.1086 10.5339 14.9888 13.1825 17.6669 14.3102C19.372 15.0282 18.7567 16.2328 18.7815 17.4562C18.8341 20.0513 20.8557 22.0654 23.3908 22.0654C25.9259 22.0654 28 19.9913 28 17.4562V7.4457C28 3.33356 24.6664 0 20.5543 0C16.4422 0 13.1086 3.33356 13.1086 7.4457Z" fill="#F76C82"/>
<path fill-rule="evenodd" clip-rule="evenodd" d="M15.3773 7.44599C15.3773 4.58615 17.6944 2.26904 20.5543 2.26904C23.4141 2.26904 25.7312 4.58615 25.7312 7.44599V17.4565C25.7312 18.7393 24.6735 19.797 23.3907 19.797C22.0498 19.797 21.0764 18.7276 21.0497 17.4106C21.0359 16.7317 21.1935 16.1786 21.1082 15.4352C20.9303 13.8853 19.9618 12.8152 18.5473 12.2195C16.629 11.4117 15.3773 9.53339 15.3773 7.44599Z" fill="#EB5463"/>
<path d="M20.3983 8.93306C21.2966 8.93306 22.0247 8.20488 22.0247 7.30662C22.0247 6.40836 21.2966 5.68018 20.3983 5.68018C19.5 5.68018 18.7719 6.40836 18.7719 7.30662C18.7719 8.20488 19.5 8.93306 20.3983 8.93306Z" fill="#E4E8EB"/>
<path fill-rule="evenodd" clip-rule="evenodd" d="M7.53863 12.0118C5.62717 12.0118 4.28918 10.6025 4.28918 8.2333C4.28918 5.8641 6.08188 3.43213 7.53863 3.43213C8.99539 3.43213 10.7881 5.8641 10.7881 8.2333C10.7881 10.6025 9.45009 12.0118 7.53863 12.0118Z" fill="#D5A889"/>
<path fill-rule="evenodd" clip-rule="evenodd" d="M3.24945 12.0117C1.33793 12.0117 0 10.6024 0 8.2333C0 5.8641 1.79269 3.43213 3.24945 3.43213C4.70614 3.43213 6.49884 5.8641 6.49884 8.2333C6.49884 10.6024 5.16091 12.0117 3.24945 12.0117Z" fill="#E1B695"/>
<path fill-rule="evenodd" clip-rule="evenodd" d="M2.11792 12.806C2.11792 10.8946 3.52719 9.55664 5.89639 9.55664C8.26559 9.55664 10.6976 11.3493 10.6976 12.806C10.6976 14.2628 8.26559 16.0555 5.89639 16.0555C3.52725 16.0555 2.11792 14.7175 2.11792 12.806Z" fill="#EFC7A4"/>
<path fill-rule="evenodd" clip-rule="evenodd" d="M4.7948 21.9352L14.3406 19.6137C14.2813 18.1976 12.9809 16.8648 12.1043 16.9963C8.57945 17.3102 4.97219 19.764 4.7948 21.9352Z" fill="#E4E8EB"/>
<path fill-rule="evenodd" clip-rule="evenodd" d="M4.78859 21.9392C6.80342 20.7393 8.79316 19.4962 11.7915 19.3253C13.8546 19.2077 16.3812 20.0988 18.5833 21.551C18.6597 21.6015 18.7047 21.6765 18.7131 21.7677C18.7215 21.859 18.691 21.941 18.625 22.0046L17.0266 23.545C16.971 23.5988 16.939 23.6723 16.9376 23.7496C16.9362 23.8269 16.9654 23.9016 17.0189 23.9574L18.5501 25.5462C18.614 25.6124 18.6414 25.6958 18.6292 25.7869C18.6172 25.8781 18.569 25.9514 18.4901 25.9987C16.2284 27.355 13.6628 28.1375 11.6314 27.9803C8.67772 27.7518 6.82535 26.4574 4.72273 25.0745L2.50741 26.2426C1.35248 26.8516 -0.0238365 26.0039 0.000313383 24.6985L0.0476799 22.1361C0.0717715 20.8307 1.47848 20.0344 2.61014 20.6856L4.78859 21.9392Z" fill="#CAD0D7"/>
<path fill-rule="evenodd" clip-rule="evenodd" d="M0.0701507 25.2237C0.0201769 25.0532 -0.0033521 24.8761 0.000384282 24.6984L0.00575088 24.407H1.52195C1.63024 24.407 1.7341 24.45 1.81068 24.5266C1.88726 24.6032 1.93028 24.707 1.93028 24.8153C1.93028 24.9236 1.88726 25.0275 1.81068 25.1041C1.7341 25.1807 1.63024 25.2237 1.52195 25.2237H0.0701507ZM0.0164842 23.8256L0.0315925 23.0089H3.04532C3.15361 23.0089 3.25747 23.052 3.33405 23.1285C3.41063 23.2051 3.45365 23.309 3.45365 23.4173C3.45365 23.5256 3.41063 23.6294 3.33405 23.706C3.25747 23.7826 3.15361 23.8256 3.04532 23.8256H0.0164842ZM0.0423258 22.4275L0.0476924 22.1361C0.0505727 21.9574 0.0809711 21.7803 0.137817 21.6109H1.52195C1.63024 21.6109 1.7341 21.6539 1.81068 21.7305C1.88726 21.807 1.93028 21.9109 1.93028 22.0192C1.93028 22.1275 1.88726 22.2314 1.81068 22.3079C1.7341 22.3845 1.63024 22.4275 1.52195 22.4275H0.0423258ZM14.879 21.4048C14.4864 21.4258 14.1851 21.7611 14.2061 22.1537C14.227 22.5464 14.5624 22.8476 14.955 22.8266C15.3476 22.8056 15.6489 22.4704 15.6279 22.0778C15.6069 21.6852 15.2716 21.3839 14.879 21.4048ZM8.65521 23.6876C8.34797 23.8876 8.18324 24.2115 8.20278 24.5777L8.25575 25.5696C8.27529 25.9357 8.47356 26.2403 8.8004 26.4064C9.12725 26.5726 9.46021 26.497 9.79743 26.3532L11.826 25.5369C11.6482 25.1287 11.5366 24.6692 11.5112 24.1696L9.65224 23.6344C9.30026 23.532 8.96251 23.4876 8.65521 23.6876Z" fill="#E4E8EB"/>
<path fill-rule="evenodd" clip-rule="evenodd" d="M11.5549 24.4333C11.7786 24.4087 11.8824 24.5963 11.907 24.82C11.9317 25.0437 11.868 25.2189 11.6442 25.2436L10.4316 25.3812C10.3248 25.3917 10.2182 25.3598 10.1348 25.2922C10.0514 25.2246 9.9981 25.1269 9.98634 25.0202C9.97458 24.9135 10.0054 24.8065 10.072 24.7224C10.1387 24.6383 10.2358 24.5838 10.3423 24.5709L11.5549 24.4333Z" fill="#CAD0D7"/>
<path fill-rule="evenodd" clip-rule="evenodd" d="M15.1418 27.5066C14.6233 27.6662 14.1094 27.7896 13.6089 27.8731C13.0249 27.5885 12.496 27.1862 12.0759 26.6811C11.4747 25.9582 11.0968 25.0304 11.0968 23.9418C11.0968 23.4699 11.1688 22.9663 11.3259 22.435C11.341 22.3837 11.366 22.3359 11.3996 22.2942C11.4331 22.2526 11.4746 22.218 11.5215 22.1923C11.5685 22.1667 11.62 22.1506 11.6732 22.1449C11.7264 22.1392 11.7802 22.144 11.8315 22.1591C11.8828 22.1742 11.9307 22.1992 11.9723 22.2328C12.014 22.2664 12.0486 22.3078 12.0742 22.3548C12.0998 22.4017 12.116 22.4533 12.1217 22.5065C12.1274 22.5597 12.1225 22.6134 12.1074 22.6648C11.9744 23.1147 11.9134 23.5414 11.9134 23.9418C11.9134 24.8285 12.2174 25.5796 12.7011 26.1611C13.1903 26.7492 13.8641 27.1692 14.5959 27.3855C14.7748 27.4385 14.9572 27.479 15.1418 27.5066Z" fill="#A9B0BB"/>
</svg>
