<svg width="29" height="28" viewBox="0 0 29 28" fill="none" xmlns="http://www.w3.org/2000/svg">
<path d="M11.4489 21.9478C11.1699 22.1334 10.8421 22.2323 10.507 22.2318H10.0961C7.81046 22.2318 5.95752 24.0847 5.95752 26.3704V27.9999H14.215L14.9436 25.632L14.215 22.9427C12.8779 22.9547 11.5421 22.625 11.4489 21.9478Z" fill="#ACE852"/>
<path d="M22.4724 26.3701C22.4724 24.0845 20.6195 22.2315 18.3338 22.2315H18.0444C17.6623 22.232 17.2912 22.1034 16.9913 21.8667C16.9154 22.5699 15.5645 22.9303 14.215 22.9424V27.9996H22.4724V26.3701Z" fill="#76DC00"/>
<path d="M12.2114 20.5275C12.2114 21.1205 11.9084 21.6425 11.449 21.9479C11.6361 23.3087 12.8028 24.357 14.2151 24.357L14.7008 21.8069L14.215 19.439H12.2114V20.5275Z" fill="#FFCCBD"/>
<path d="M16.9913 21.8671C16.5949 21.5551 16.34 21.0712 16.34 20.5276V19.439H14.215V24.357C15.6551 24.357 16.8402 23.267 16.9913 21.8671Z" fill="#FFBDA9"/>
<path d="M13.1814 8.50977C11.3058 8.50977 9.7854 10.0302 9.7854 11.9058V12.4564C9.7854 12.4564 11.9824 13.0207 14.215 13.5374L14.8222 10.9992L14.215 8.50977H13.1814Z" fill="#766E6E"/>
<path d="M15.2486 8.50977H14.215V13.5374C16.0998 13.9736 18.0099 14.3758 18.6445 14.3758V11.9058C18.6445 10.0302 17.1241 8.50977 15.2486 8.50977Z" fill="#5A5A5A"/>
<path d="M9.7854 12.4565V15.8468C9.7854 18.2931 11.7686 20.2763 14.215 20.2763L15.065 16.1603L14.215 12.4565H9.7854Z" fill="#FFEDE3"/>
<path d="M18.6445 15.8468V14.376C17.9588 14.376 17.2805 14.2339 16.6524 13.9586C16.0243 13.6834 15.4601 13.2809 14.9953 12.7767L14.7002 12.4565H14.215V20.2763C16.6613 20.2763 18.6445 18.2932 18.6445 15.8468Z" fill="#FFCCBD"/>
<path d="M21.2595 1.47532C20.2545 1.3134 19.2763 1.65062 18.5755 2.4004C18.0025 3.01342 17.6915 3.87743 17.6762 4.89896L17.676 4.91151C17.7323 7.85712 21.1114 10.2986 23.0531 11.1692L23.6819 6.09463L23.0531 2.48636C22.6139 2.02565 21.9846 1.5922 21.2595 1.47532Z" fill="#FF8756"/>
<path d="M28.4298 4.89896C28.4145 3.87743 28.1036 3.01342 27.5305 2.4004C26.8297 1.65062 25.8515 1.3134 24.8465 1.47532C24.1213 1.59215 23.492 2.02559 23.053 2.48636V11.1692C25.0019 10.2944 28.3729 7.8554 28.43 4.91157L28.4298 4.89896Z" fill="#EB5569"/>
<path d="M0 8.09407H2.49873V12.6046H3.94243L4.25605 12.0491L5.38659 5.99686L4.25605 0.561523L0 8.09407Z" fill="#FFE370"/>
<path d="M6.0468 4.51048V0H4.57344L4.2561 0.561603V12.0491L8.51216 4.51048H6.0468Z" fill="#FCBE00"/>
</svg>
