<svg width="28" height="28" viewBox="0 0 28 28" fill="none" xmlns="http://www.w3.org/2000/svg">
<path fill-rule="evenodd" clip-rule="evenodd" d="M21.442 27.5984C21.2617 27.9376 21.291 28.0001 21.0786 28.0001H13.0793L12.6567 27.0925L11.1377 23.8288L12.6567 22.1162L13.0793 21.6396L13.3278 21.2987L16.3541 17.1421L23.3206 17.2835C23.6023 20.3392 23.3194 24.0632 21.442 27.5984Z" fill="#FED1A3"/>
<path fill-rule="evenodd" clip-rule="evenodd" d="M13.0793 21.6395V28H5.0812C4.86765 28 4.89641 27.9375 4.71611 27.5983C2.83929 24.0631 2.55584 20.3392 2.83759 17.2834L9.35049 16.3944C9.75786 16.3375 11.8719 20.2761 12.7593 21.3639C12.9012 21.5386 13.0123 21.6395 13.0793 21.6395ZM4.45087 9.40029C4.25624 10.2619 4.03426 11.2151 3.78494 12.276C9.48562 16.3894 15.9102 17.6432 20.9675 13.6182L21.923 10.3438L20.0168 8.16895L12.9987 6.60652L4.78868 7.8668C4.6794 8.37869 4.5668 8.88986 4.45087 9.40029ZM4.74039 0.225039C5.30821 1.30845 5.535 2.32274 5.42726 3.89484C6.98433 4.28225 12.4647 6.04882 12.9987 6.04237C13.4684 6.04882 19.2254 4.2356 20.7278 3.85465C20.6265 2.30508 20.8549 1.29883 21.4178 0.225039C21.5304 0.00962499 21.5144 0 21.3809 0H4.77741C4.64551 0 4.62784 0.00962499 4.74039 0.225039Z" fill="#FED1A3"/>
<path fill-rule="evenodd" clip-rule="evenodd" d="M0 7.03102V10.0675C0 10.1912 0.0965234 10.2716 0.215523 10.2491L4.45085 9.40035C4.56677 8.88992 4.67937 8.37875 4.78866 7.86686C4.63099 7.82344 5.00905 6.79307 4.85138 6.74806C4.49909 6.6452 4.37845 6.35103 3.78492 6.04883L0.215523 6.76255C0.0965234 6.78667 0 6.90726 0 7.03102Z" fill="#D6DCEA"/>
<path fill-rule="evenodd" clip-rule="evenodd" d="M1.87073 6.92656C1.87073 8.00516 2.14094 8.99692 2.58976 9.77332L4.45083 9.40041C4.56674 8.88998 4.67935 8.3788 4.78863 7.86691C4.63097 7.82349 4.47495 7.77848 4.31734 7.73348C3.9908 7.63865 3.7849 7.58883 3.7849 7.24479V6.04883L1.89003 6.4282C1.87718 6.59062 1.87073 6.7578 1.87073 6.92656Z" fill="#92BCDE"/>
<path fill-rule="evenodd" clip-rule="evenodd" d="M16.4072 0.171992C15.9038 1.13323 15.508 2.03984 15.7236 4.71302C16.5021 4.64712 17.2854 4.54748 18.0785 4.41405C18.9503 4.26776 19.8318 4.08133 20.7277 3.85465C20.6264 2.30508 20.8548 1.29883 21.4178 0.225039C21.5304 0.00962499 21.5144 0 21.3809 0H16.4812C16.478 0.0321562 16.4523 0.0852031 16.4072 0.171992ZM16.4506 8.77182C16.8785 10.585 17.2983 12.006 17.6908 13.6086C18.5768 13.4382 19.4527 13.2187 20.3144 12.9511C20.31 12.9449 20.3051 12.939 20.2999 12.9335C19.8318 12.3275 19.5229 11.5913 19.4393 10.7891C19.3428 9.87613 19.5455 8.95825 20.0167 8.169C18.8414 8.44205 17.6505 8.64336 16.4506 8.77182ZM18.3664 17.9905C18.537 20.9048 18.1621 24.3318 16.4314 27.5982C16.2512 27.9373 16.2818 28 16.0679 28H21.0785C21.2909 28 21.2619 27.9373 21.442 27.5982C23.3192 24.0634 23.6023 20.3389 23.3208 17.2832C21.3745 17.2061 19.7322 17.4922 18.3681 17.9905H18.3664Z" fill="#FFBC85"/>
<path fill-rule="evenodd" clip-rule="evenodd" d="M22.2139 3.81144V6.35906C21.2893 6.69369 20.514 7.33824 20.017 8.16922C17.6686 8.71401 15.3325 8.96191 12.9987 8.9326C10.2705 8.9664 7.53946 8.62274 4.78873 7.86723C4.63096 7.82386 4.47488 7.7788 4.31711 7.73369C3.99089 7.63847 3.78467 7.58887 3.78467 7.24467V3.81144C3.78467 3.59116 3.78636 3.44471 4.03087 3.51733L4.29343 3.59286C4.66989 3.6988 5.04782 3.79947 5.4271 3.89484C6.12803 4.06837 6.81993 4.21766 7.50451 4.34158C7.77863 4.3915 8.05344 4.43751 8.32887 4.47962L8.34298 4.48186C9.7747 4.70099 11.1793 4.81086 12.5762 4.8154C12.7171 4.81655 12.8579 4.81594 12.9987 4.81425C13.1396 4.81594 13.2805 4.81649 13.4213 4.8154C14.8192 4.81091 16.2245 4.70159 17.6562 4.48186C17.7965 4.46042 17.9374 4.43789 18.0788 4.41426C18.2176 4.39114 18.3562 4.36673 18.4946 4.34104C19.2305 4.20749 19.9736 4.04529 20.7276 3.85481C21.0547 3.77161 21.3808 3.68429 21.7057 3.59286L21.9677 3.51733C22.2122 3.44465 22.2139 3.59116 22.2139 3.81144Z" fill="#F8F2F0"/>
<path fill-rule="evenodd" clip-rule="evenodd" d="M15.8362 5.82874C16.0405 6.94108 16.2463 7.90233 16.4507 8.77197C17.6505 8.64349 18.8414 8.44219 20.0168 8.1692C20.1091 8.01488 20.2112 7.86668 20.3225 7.72552C20.6265 7.33976 20.9997 7.00375 21.4179 6.74661C21.656 6.59229 21.9471 6.45568 22.2142 6.35921V3.81137C22.2142 3.59115 22.2126 3.44486 21.9681 3.51721L21.7059 3.59273C21.3778 3.68433 21.0528 3.77276 20.7279 3.85474C19.832 4.08136 18.9505 4.26785 18.0787 4.41414C17.2856 4.54758 16.5023 4.64722 15.7238 4.71311C15.7539 5.08569 15.7914 5.45764 15.8362 5.82874Z" fill="#D6DCEA"/>
<path d="M13.5019 21.6394V27.9999H12.6567V21.6394C12.6567 21.534 12.6956 21.4377 12.7593 21.3639C12.7988 21.3176 12.8479 21.2805 12.9031 21.2551C12.9584 21.2297 13.0185 21.2167 13.0793 21.2168C13.1723 21.2168 13.2579 21.2467 13.3278 21.2985C13.3818 21.3374 13.4257 21.3887 13.456 21.4479C13.4863 21.5072 13.502 21.5728 13.5019 21.6394Z" fill="#FFBC85"/>
<path d="M13.4213 4.81518V6.0422C13.4213 6.27545 13.232 6.46472 12.9987 6.46472C12.7655 6.46472 12.5761 6.27545 12.5761 6.0422V4.81518C12.717 4.81633 12.8579 4.81573 12.9987 4.81403C13.1396 4.81573 13.2804 4.81627 13.4213 4.81518ZM8.34294 4.48164V5.57627C8.34294 5.80951 8.15362 5.99878 7.92037 5.99878C7.68713 5.99878 7.4978 5.80951 7.4978 5.57627V4.41405C7.4978 4.38927 7.50005 4.36505 7.50458 4.34137L8.34294 4.48164ZM18.5013 4.41405V5.57632C18.5013 5.68837 18.4567 5.79581 18.3775 5.87504C18.2982 5.95427 18.1908 5.99879 18.0787 5.99884C18.0232 5.99887 17.9683 5.98797 17.917 5.96675C17.8657 5.94553 17.8191 5.91441 17.7799 5.87517C17.7406 5.83593 17.7095 5.78934 17.6883 5.73806C17.6671 5.68678 17.6561 5.63182 17.6562 5.57632V4.48164C17.7964 4.4602 17.9373 4.43767 18.0787 4.41405C18.2176 4.39092 18.3562 4.36651 18.4946 4.34082C18.4991 4.36445 18.5013 4.38922 18.5013 4.41405Z" fill="#1C74BB"/>
<path d="M12.9986 11.9738C12.9431 11.9738 12.8882 11.9628 12.8369 11.9416C12.7856 11.9204 12.7391 11.8893 12.6998 11.85C12.6606 11.8108 12.6295 11.7642 12.6082 11.7129C12.587 11.6617 12.576 11.6067 12.576 11.5512V11.0144C12.576 10.9023 12.6206 10.7948 12.6998 10.7156C12.7791 10.6363 12.8865 10.5918 12.9986 10.5918C13.1107 10.5918 13.2182 10.6363 13.2974 10.7156C13.3767 10.7948 13.4212 10.9023 13.4212 11.0144V11.5512C13.4212 11.6633 13.3766 11.7708 13.2974 11.85C13.2182 11.9292 13.1107 11.9738 12.9986 11.9738Z" fill="#FFBC85"/>
<path fill-rule="evenodd" clip-rule="evenodd" d="M3.37629 14.0006C3.15109 14.9522 2.94842 16.0646 2.8374 17.283C7.64055 17.0917 10.589 19.1155 12.0817 21.0605C12.3729 21.4399 12.5916 21.6392 13.079 21.6392C13.5664 21.6392 13.7852 21.4399 14.0763 21.0605C15.569 19.1155 18.5175 17.0917 23.3206 17.283C23.2289 16.2768 23.0745 15.3428 22.8975 14.5102C21.8536 14.3237 20.9415 13.7531 20.3142 12.951C15.0237 14.5922 9.29244 14.417 3.78475 12.2759C3.65618 12.8223 3.51946 13.3962 3.37629 14.0006Z" fill="#FD8087"/>
<path fill-rule="evenodd" clip-rule="evenodd" d="M17.7712 13.9479C18.0431 15.094 18.2796 16.4732 18.368 17.9907C19.7321 17.4923 21.3744 17.2062 23.3207 17.2834C23.229 16.2771 23.0746 15.3432 22.8976 14.5106C22.6805 12.8436 21.5497 12.7231 20.3143 12.9514C19.4527 13.2189 18.5768 13.4384 17.6908 13.6088C17.7181 13.7213 17.7455 13.8338 17.7712 13.9479Z" fill="#FE636E"/>
<path fill-rule="evenodd" clip-rule="evenodd" d="M20.0168 8.16913C19.6356 8.8057 19.4152 9.5483 19.4152 10.344C19.4152 11.3278 19.7513 12.2327 20.3143 12.9513C20.9417 13.7534 21.8537 14.324 22.8977 14.5105C23.1422 14.5555 23.3947 14.578 23.6537 14.578C25.9941 14.578 27.8906 12.6828 27.8906 10.344C27.8906 8.00518 25.9941 6.1084 23.6537 6.1084C23.1486 6.1084 22.6628 6.19683 22.214 6.35914C21.2891 6.6935 20.5154 7.3381 20.0168 8.16913Z" fill="#80D261"/>
<path fill-rule="evenodd" clip-rule="evenodd" d="M22.8446 6.1872C24.6059 6.69995 25.8944 8.3251 25.8944 10.2524C25.8944 12.1717 24.6172 13.792 22.8654 14.3128C22.7345 14.3513 22.602 14.384 22.4681 14.4108C22.6094 14.4516 22.7528 14.4849 22.8976 14.5105C23.1421 14.5555 23.3947 14.578 23.6536 14.578C25.9941 14.578 27.8905 12.6828 27.8905 10.344C27.8905 8.00518 25.9941 6.1084 23.6536 6.1084C23.3769 6.1084 23.1051 6.13574 22.8429 6.18556L22.8446 6.1872Z" fill="#4FC122"/>
<path d="M23.232 11.9157C23.1531 11.9157 23.0758 11.8936 23.009 11.8518L21.9939 11.2201C21.8988 11.1609 21.8311 11.0663 21.8057 10.9571C21.7931 10.9031 21.7913 10.8471 21.8004 10.7924C21.8094 10.7376 21.8292 10.6852 21.8585 10.6381C21.8878 10.591 21.9261 10.5501 21.9713 10.5178C22.0164 10.4855 22.0674 10.4624 22.1214 10.4499C22.2306 10.4245 22.3454 10.4435 22.4405 10.5027L23.1382 10.937L24.7613 8.92746C24.8322 8.84165 24.934 8.78725 25.0447 8.77607C25.1554 8.76488 25.2661 8.79782 25.3526 8.86772C25.4392 8.93763 25.4947 9.03886 25.5071 9.14945C25.5195 9.26003 25.4878 9.37104 25.4188 9.45837L23.561 11.7586C23.5214 11.8077 23.4712 11.8473 23.4143 11.8745C23.3574 11.9017 23.2951 11.9158 23.232 11.9157Z" fill="#F8F2F0"/>
</svg>
