<svg width="111" height="27" viewBox="0 0 111 27" fill="none" xmlns="http://www.w3.org/2000/svg">
<path d="M38.9926 12.8118H47.2048V23.5486C46.1214 23.9162 44.9897 24.2064 43.8096 24.4192C42.6489 24.632 41.3237 24.7384 39.8341 24.7384C37.7835 24.7384 36.0327 24.3321 34.5817 23.5196C33.1502 22.7071 32.0571 21.5076 31.3027 19.9213C30.5675 18.3349 30.2 16.381 30.2 14.0596C30.2 11.8928 30.6159 10.0163 31.4477 8.42997C32.299 6.84362 33.5274 5.61517 35.1331 4.74462C36.7388 3.87406 38.7024 3.43878 41.0239 3.43878C42.1266 3.43878 43.2099 3.55486 44.2739 3.78701C45.3379 4.01915 46.3052 4.32868 47.1758 4.7156L45.7249 8.22684C45.0864 7.89796 44.361 7.62712 43.5485 7.41432C42.7359 7.20152 41.8847 7.09511 40.9948 7.09511C39.718 7.09511 38.6056 7.3853 37.6577 7.96567C36.7291 8.54604 36.0037 9.36823 35.4813 10.4322C34.9783 11.4769 34.7268 12.715 34.7268 14.1466C34.7268 15.5008 34.9106 16.7002 35.2782 17.7449C35.6458 18.7896 36.2261 19.6118 37.0193 20.2115C37.8125 20.7918 38.8475 21.082 40.1243 21.082C40.5499 21.082 40.9175 21.0724 41.227 21.053C41.5559 21.0143 41.8557 20.9756 42.1266 20.9369C42.3974 20.8789 42.6586 20.8305 42.9101 20.7919V16.4681H38.9926V12.8118Z" fill="white"/>
<path d="M58.3082 8.31389C59.7785 8.31389 61.036 8.5944 62.0806 9.15543C63.1447 9.71645 63.9668 10.529 64.5472 11.593C65.1276 12.657 65.4178 13.9628 65.4178 15.5105V17.5998H55.2033C55.2419 18.8186 55.5998 19.7762 56.2769 20.4726C56.9734 21.1691 57.931 21.5173 59.1498 21.5173C60.1751 21.5173 61.1037 21.4206 61.9355 21.2271C62.7674 21.0143 63.6283 20.6951 64.5182 20.2695V23.6066C63.7444 23.9936 62.9222 24.2741 62.0516 24.4482C61.2004 24.6416 60.1654 24.7384 58.9466 24.7384C57.3603 24.7384 55.9577 24.4482 54.739 23.8678C53.5202 23.2681 52.5626 22.3685 51.8661 21.1691C51.1697 19.9697 50.8215 18.4607 50.8215 16.6422C50.8215 14.785 51.131 13.247 51.7501 12.0283C52.3885 10.7901 53.2687 9.86155 54.3907 9.24248C55.5128 8.62342 56.8186 8.31389 58.3082 8.31389ZM58.3373 11.3899C57.5054 11.3899 56.8089 11.6607 56.2479 12.2024C55.7062 12.7441 55.387 13.5856 55.2903 14.727H61.3552C61.3552 14.0886 61.2391 13.5179 61.007 13.0149C60.7942 12.5119 60.4653 12.1153 60.0203 11.8251C59.5754 11.5349 59.0144 11.3899 58.3373 11.3899Z" fill="white"/>
<path d="M75.5981 21.2852C76.0817 21.2852 76.546 21.2368 76.9909 21.1401C77.4359 21.0433 77.8808 20.9273 78.3258 20.7919V24.0129C77.8615 24.2064 77.2811 24.3708 76.5847 24.5062C75.9076 24.661 75.1628 24.7384 74.3503 24.7384C73.4023 24.7384 72.5511 24.5836 71.7966 24.2741C71.0615 23.9645 70.4715 23.4325 70.0265 22.6781C69.6009 21.9042 69.3881 20.8402 69.3881 19.486V11.8541H67.3278V10.026L69.7073 8.57506L70.9551 5.23793H73.7118V8.60408H78.1517V11.8541H73.7118V19.486C73.7118 20.0857 73.886 20.5404 74.2342 20.8499C74.5824 21.1401 75.037 21.2852 75.5981 21.2852Z" fill="white"/>
<path d="M90.2696 11.8541H86.5262V24.4482H82.2025V11.8541H79.823V9.76482L82.2025 8.60408V7.44334C82.2025 6.08914 82.425 5.04447 82.8699 4.30934C83.3342 3.55486 83.9823 3.02285 84.8142 2.71332C85.6654 2.40379 86.6617 2.24902 87.8031 2.24902C88.6543 2.24902 89.4184 2.31673 90.0955 2.45215C90.792 2.58757 91.353 2.74234 91.7786 2.91645L90.6759 6.07947C90.347 5.98274 89.9891 5.89568 89.6022 5.8183C89.2153 5.72157 88.7703 5.67321 88.2674 5.67321C87.6676 5.67321 87.2227 5.85699 86.9325 6.22456C86.6617 6.59213 86.5262 7.05642 86.5262 7.61745V8.60408H90.2696V11.8541ZM97.06 8.60408V24.4482H92.7362V8.60408H97.06ZM94.9126 2.39412C95.551 2.39412 96.1023 2.54888 96.5667 2.85841C97.0309 3.1486 97.2631 3.69995 97.2631 4.51247C97.2631 5.30564 97.0309 5.85699 96.5667 6.16652C96.1023 6.47605 95.551 6.63082 94.9126 6.63082C94.2548 6.63082 93.6938 6.47605 93.2295 6.16652C92.7846 5.85699 92.5621 5.30564 92.5621 4.51247C92.5621 3.69995 92.7846 3.1486 93.2295 2.85841C93.6938 2.54888 94.2548 2.39412 94.9126 2.39412Z" fill="white"/>
<path d="M108.272 21.2852C108.756 21.2852 109.22 21.2368 109.665 21.1401C110.11 21.0433 110.555 20.9273 111 20.7919V24.0129C110.536 24.2064 109.955 24.3708 109.259 24.5062C108.582 24.661 107.837 24.7384 107.024 24.7384C106.076 24.7384 105.225 24.5836 104.471 24.2741C103.736 23.9645 103.146 23.4325 102.701 22.6781C102.275 21.9042 102.062 20.8402 102.062 19.486V11.8541H100.002V10.026L102.381 8.57506L103.629 5.23793H106.386V8.60408H110.826V11.8541H106.386V19.486C106.386 20.0857 106.56 20.5404 106.908 20.8499C107.257 21.1401 107.711 21.2852 108.272 21.2852Z" fill="white"/>
<circle cx="13.4936" cy="13.4936" r="13.4936" fill="white"/>
<mask id="mask0_128_2441" style="mask-type:alpha" maskUnits="userSpaceOnUse" x="0" y="0" width="27" height="27">
<circle cx="13.4936" cy="13.4936" r="13.4936" fill="white"/>
</mask>
<g mask="url(#mask0_128_2441)">
<path d="M-6.20413 13.4751H-6.10413H4.62755L6.05055 11.2755C6.09858 11.2012 6.16422 11.1366 6.24223 11.0845C6.32024 11.0324 6.40978 10.9932 6.50544 10.9684C6.60112 10.9435 6.70188 10.9333 6.80217 10.938C6.90244 10.9427 7.00107 10.9624 7.09253 10.9962C7.19304 11.0333 7.28375 11.0871 7.3575 11.1553C7.4313 11.2236 7.4869 11.3052 7.5179 11.3955L7.51784 11.3954L7.42336 11.4281L7.51796 11.3957L-6.20413 13.4751ZM-6.20413 13.4751V13.5751V14.4006V14.4986L-6.10612 14.5006L5.10911 14.7243L5.10911 14.7243H5.11112C5.26679 14.7243 5.42034 14.6885 5.55158 14.6199C5.68085 14.5523 5.7853 14.4543 5.84646 14.3351L6.53045 13.2778M-6.20413 13.4751L6.53045 13.2778M13.0329 8.9441L16.065 16.1066L16.065 16.1066C16.0991 16.187 16.1529 16.2594 16.2214 16.3206C16.2899 16.3817 16.3722 16.4308 16.4629 16.4661C16.5537 16.5014 16.6519 16.5225 16.7522 16.5288C16.8524 16.535 16.9535 16.5263 17.0498 16.5029C17.1573 16.477 17.2576 16.4331 17.3432 16.3733C17.4287 16.3134 17.4984 16.2382 17.5449 16.1518L17.545 16.1516L19.3503 12.7743L20.5817 14.4178L13.0329 8.9441ZM13.0329 8.9441L10.7008 20.7763L13.0329 8.9441ZM6.53045 13.2778L9.15425 20.8448C9.15426 20.8448 9.15427 20.8448 9.15428 20.8448C9.2112 21.0109 9.34931 21.1442 9.52661 21.2232C9.70422 21.3023 9.91359 21.3241 10.1102 21.2855C10.1102 21.2855 10.1101 21.2855 10.1101 21.2855L6.53045 13.2778ZM9.70353 17.6988L9.66517 17.8934L9.73016 18.0808L9.76852 17.8862L9.70353 17.6988ZM16.8397 14.2521L16.8898 14.3705L16.9504 14.2571L16.9003 14.1388L16.8397 14.2521ZM13.517 6.14778C13.5166 6.14644 13.5161 6.1451 13.5157 6.14377L13.5142 6.14027L13.4221 6.17925L13.517 6.14778ZM11.9675 6.21185L11.9674 6.21225C11.9674 6.21226 11.9674 6.21226 11.9674 6.21227L12.0656 6.23119L11.9675 6.21185ZM21.7145 13.4751L19.9335 11.0982L20.5818 14.4179C20.6537 14.5141 20.7555 14.5912 20.8744 14.6439C20.9934 14.6966 21.1273 14.724 21.2627 14.7243H21.2629H44.3363H44.4363V14.6243V13.5751V13.4751H44.3363H21.7145Z" fill="#C61E72" stroke="#C61E72" stroke-width="0.2"/>
</g>
</svg>
