<svg width="14" height="7" viewBox="0 0 14 7" fill="none" xmlns="http://www.w3.org/2000/svg">
<path d="M7.24992 7C7.17331 7.00008 7.09744 6.98502 7.02666 6.95569C6.95589 6.92636 6.8916 6.88333 6.83751 6.82908L1.0042 0.995781C0.776268 0.767845 0.776268 0.398743 1.0042 0.170952C1.23214 -0.0568382 1.60124 -0.0569841 1.82903 0.170952L7.24992 5.59184L12.6708 0.170952C12.8987 -0.0569841 13.2678 -0.0569841 13.4956 0.170952C13.7234 0.398889 13.7236 0.76799 13.4956 0.995781L7.66234 6.82908C7.60824 6.88333 7.54396 6.92636 7.47318 6.95569C7.40241 6.98502 7.32653 7.00008 7.24992 7Z" fill="white"/>
</svg>
