<svg width="15" height="15" viewBox="0 0 15 15" fill="none" xmlns="http://www.w3.org/2000/svg">
<g clip-path="url(#clip0_29_1127)">
<path d="M14.0898 7.0035C14.0898 5.8593 13.1553 4.9275 12.0105 4.9275C10.8657 4.9275 9.93056 5.859 9.93056 7.0035C9.93041 7.49392 10.1043 7.96849 10.4212 8.34276C10.7381 8.71703 11.1775 8.96672 11.6613 9.0474V11.2275C11.6613 12.9267 10.2822 14.3058 8.58296 14.3058C6.88376 14.3058 5.50436 12.9264 5.50436 11.2275L5.49686 8.73C6.30266 8.6226 7.09016 8.1513 7.79066 7.3464C7.89356 7.2282 7.92476 7.0758 7.90706 6.9303C8.82266 5.7198 9.39056 4.0713 9.39056 2.8041C9.39056 0.847801 8.51396 0.644701 7.06436 0.312901L7.06226 0.309301C6.97316 0.129901 6.79316 7.48429e-07 6.57506 7.48429e-07C6.42854 -0.000239506 6.2879 0.0575899 6.18394 0.160825C6.07997 0.264061 6.02115 0.404288 6.02036 0.550801C6.02036 0.857101 6.26846 1.1052 6.57506 1.1052C6.69626 1.1052 6.80996 1.0548 6.90026 0.983101L6.91316 0.987901C8.32046 1.311 8.70026 1.3986 8.70026 2.8041C8.70026 3.9186 8.17286 5.4111 7.36676 6.4887C7.22681 6.49703 7.09585 6.56045 7.00256 6.6651C6.59066 7.1418 5.93246 7.7124 5.15486 7.7124C4.37786 7.7124 3.72026 7.1472 3.30836 6.6717C3.21531 6.56727 3.08468 6.50395 2.94506 6.4956C2.13686 5.4141 1.60826 3.9198 1.60826 2.8038C1.60826 1.3974 1.98176 1.3101 3.39776 0.987001L3.40256 0.982501C3.49976 1.0542 3.60566 1.1049 3.73466 1.1049C3.88169 1.1049 4.02271 1.04649 4.12668 0.942521C4.23065 0.838551 4.28906 0.697537 4.28906 0.550501C4.28818 0.40404 4.22933 0.26389 4.12537 0.160719C4.02141 0.0575483 3.88082 -0.000239873 3.73436 7.48429e-07C3.51566 7.48429e-07 3.33596 0.129901 3.24056 0.308701L3.23936 0.309001C1.78826 0.643801 0.910156 0.843301 0.910156 2.8041C0.910156 4.0725 1.48016 5.727 2.40386 6.9372C2.38616 7.0827 2.41766 7.2354 2.52056 7.3533C3.22046 8.1528 4.00046 8.6223 4.80536 8.73L4.80626 11.2272C4.80656 13.3077 6.50276 15 8.58296 15C10.6632 15 12.3522 13.3077 12.3522 11.2272V9.0471C13.3338 8.8833 14.0898 8.0337 14.0898 7.0035ZM12.0105 8.3925C11.6424 8.39171 11.2897 8.2452 11.0294 7.98501C10.7691 7.72482 10.6224 7.37214 10.6215 7.0041C10.6215 6.2409 11.2476 5.619 12.0105 5.619C12.7734 5.619 13.3923 6.2409 13.3923 7.0041C13.3926 7.77 12.7734 8.3925 12.0105 8.3925Z" fill="black"/>
<path d="M12.0105 5.96729C11.7352 5.96697 11.471 6.07596 11.2761 6.27032C11.0811 6.46467 10.9713 6.72849 10.9707 7.00379C10.9707 7.14032 10.9975 7.27552 11.0498 7.40166C11.102 7.52779 11.1786 7.6424 11.2752 7.73891C11.3718 7.83543 11.4864 7.91196 11.6126 7.96413C11.7388 8.01631 11.874 8.0431 12.0105 8.04299C12.147 8.0431 12.2822 8.01631 12.4084 7.96413C12.5346 7.91196 12.6492 7.83543 12.7458 7.73891C12.8424 7.6424 12.919 7.52779 12.9712 7.40166C13.0235 7.27552 13.0503 7.14032 13.0503 7.00379C13.0497 6.72851 12.9398 6.46474 12.7449 6.27041C12.5499 6.07607 12.2858 5.96705 12.0105 5.96729Z" fill="black"/>
</g>
<defs>
<clipPath id="clip0_29_1127">
<rect width="15" height="15" fill="white"/>
</clipPath>
</defs>
</svg>
