<svg width="60" height="19" viewBox="0 0 60 19" fill="none" xmlns="http://www.w3.org/2000/svg">
<path d="M23.2273 9.18182C23.2273 10.4091 23.0057 11.4697 22.5625 12.3636C22.1193 13.2576 21.5114 13.947 20.7386 14.4318C19.9659 14.9167 19.0833 15.1591 18.0909 15.1591C17.0985 15.1591 16.2159 14.9167 15.4432 14.4318C14.6705 13.947 14.0625 13.2576 13.6193 12.3636C13.1761 11.4697 12.9545 10.4091 12.9545 9.18182C12.9545 7.95455 13.1761 6.89394 13.6193 6C14.0625 5.10606 14.6705 4.41667 15.4432 3.93182C16.2159 3.44697 17.0985 3.20455 18.0909 3.20455C19.0833 3.20455 19.9659 3.44697 20.7386 3.93182C21.5114 4.41667 22.1193 5.10606 22.5625 6C23.0057 6.89394 23.2273 7.95455 23.2273 9.18182ZM21.8636 9.18182C21.8636 8.17424 21.6951 7.32386 21.358 6.63068C21.0246 5.9375 20.572 5.41288 20 5.05682C19.4318 4.70076 18.7955 4.52273 18.0909 4.52273C17.3864 4.52273 16.7481 4.70076 16.1761 5.05682C15.608 5.41288 15.1553 5.9375 14.8182 6.63068C14.4848 7.32386 14.3182 8.17424 14.3182 9.18182C14.3182 10.1894 14.4848 11.0398 14.8182 11.733C15.1553 12.4261 15.608 12.9508 16.1761 13.3068C16.7481 13.6629 17.3864 13.8409 18.0909 13.8409C18.7955 13.8409 19.4318 13.6629 20 13.3068C20.572 12.9508 21.0246 12.4261 21.358 11.733C21.6951 11.0398 21.8636 10.1894 21.8636 9.18182ZM26.7557 9.75V15H25.4148V6.27273H26.7102V7.63636H26.8239C27.0284 7.19318 27.339 6.83712 27.7557 6.56818C28.1723 6.29545 28.7102 6.15909 29.3693 6.15909C29.9602 6.15909 30.4773 6.2803 30.9205 6.52273C31.3636 6.76136 31.7083 7.125 31.9545 7.61364C32.2008 8.09848 32.3239 8.71212 32.3239 9.45455V15H30.983V9.54545C30.983 8.85985 30.8049 8.32576 30.4489 7.94318C30.0928 7.55682 29.6042 7.36364 28.983 7.36364C28.5549 7.36364 28.1723 7.45644 27.8352 7.64205C27.5019 7.82765 27.2386 8.09848 27.0455 8.45455C26.8523 8.81061 26.7557 9.24242 26.7557 9.75ZM36.1151 3.36364V15H34.7741V3.36364H36.1151ZM38.571 15V6.27273H39.9119V15H38.571ZM39.2528 4.81818C38.9915 4.81818 38.7661 4.72917 38.5767 4.55114C38.3911 4.37311 38.2983 4.15909 38.2983 3.90909C38.2983 3.65909 38.3911 3.44508 38.5767 3.26705C38.7661 3.08902 38.9915 3 39.2528 3C39.5142 3 39.7377 3.08902 39.9233 3.26705C40.1127 3.44508 40.2074 3.65909 40.2074 3.90909C40.2074 4.15909 40.1127 4.37311 39.9233 4.55114C39.7377 4.72917 39.5142 4.81818 39.2528 4.81818ZM43.7088 9.75V15H42.3679V6.27273H43.6634V7.63636H43.777C43.9815 7.19318 44.2921 6.83712 44.7088 6.56818C45.1255 6.29545 45.6634 6.15909 46.3224 6.15909C46.9134 6.15909 47.4304 6.2803 47.8736 6.52273C48.3168 6.76136 48.6615 7.125 48.9077 7.61364C49.1539 8.09848 49.277 8.71212 49.277 9.45455V15H47.9361V9.54545C47.9361 8.85985 47.758 8.32576 47.402 7.94318C47.0459 7.55682 46.5573 7.36364 45.9361 7.36364C45.508 7.36364 45.1255 7.45644 44.7884 7.64205C44.455 7.82765 44.1918 8.09848 43.9986 8.45455C43.8054 8.81061 43.7088 9.24242 43.7088 9.75ZM55.3864 15.1818C54.5455 15.1818 53.8201 14.9962 53.2102 14.625C52.6042 14.25 52.1364 13.7273 51.8068 13.0568C51.4811 12.3826 51.3182 11.5985 51.3182 10.7045C51.3182 9.81061 51.4811 9.02273 51.8068 8.34091C52.1364 7.6553 52.5947 7.12121 53.1818 6.73864C53.7727 6.35227 54.4621 6.15909 55.25 6.15909C55.7045 6.15909 56.1534 6.23485 56.5966 6.38636C57.0398 6.53788 57.4432 6.78409 57.8068 7.125C58.1705 7.46212 58.4602 7.90909 58.6761 8.46591C58.892 9.02273 59 9.70833 59 10.5227V11.0909H52.2727V9.93182H57.6364C57.6364 9.43939 57.5379 9 57.3409 8.61364C57.1477 8.22727 56.8712 7.92235 56.5114 7.69886C56.1553 7.47538 55.7348 7.36364 55.25 7.36364C54.7159 7.36364 54.2538 7.49621 53.8636 7.76136C53.4773 8.02273 53.1799 8.36364 52.9716 8.78409C52.7633 9.20455 52.6591 9.6553 52.6591 10.1364V10.9091C52.6591 11.5682 52.7727 12.1269 53 12.5852C53.2311 13.0398 53.5511 13.3864 53.9602 13.625C54.3693 13.8598 54.8447 13.9773 55.3864 13.9773C55.7386 13.9773 56.0568 13.928 56.3409 13.8295C56.6288 13.7273 56.8769 13.5758 57.0852 13.375C57.2936 13.1705 57.4545 12.9167 57.5682 12.6136L58.8636 12.9773C58.7273 13.4167 58.4981 13.803 58.1761 14.1364C57.8542 14.4659 57.4564 14.7235 56.983 14.9091C56.5095 15.0909 55.9773 15.1818 55.3864 15.1818Z" fill="#232824"/>
<circle cx="5" cy="10" r="5" fill="#008000"/>
</svg>
