<svg width="20" height="25" viewBox="0 0 20 25" fill="none" xmlns="http://www.w3.org/2000/svg">
<path d="M14.7205 0H14.895C15.035 1.73004 14.3747 3.02273 13.5721 3.95885C12.7847 4.88851 11.7063 5.79015 9.9623 5.65335C9.84595 3.94808 10.5074 2.75127 11.3088 1.8173C12.0521 0.946892 13.4148 0.172358 14.7205 0ZM20 18.0071V18.0556C19.5099 19.54 18.8107 20.8122 17.9576 21.9929C17.1787 23.0647 16.2243 24.5072 14.5201 24.5072C13.0475 24.5072 12.0694 23.5603 10.5602 23.5344C8.9637 23.5086 8.08575 24.3262 6.62609 24.5319H6.12841C5.05656 24.3768 4.19153 23.528 3.56135 22.7631C1.70311 20.5031 0.267155 17.5838 0 13.8479V12.7502C0.11311 10.0765 1.41226 7.90262 3.13907 6.84908C4.05041 6.28892 5.30324 5.8117 6.69827 6.02499C7.29613 6.11763 7.90693 6.32231 8.44231 6.52483C8.94969 6.71981 9.58419 7.0656 10.1853 7.04729C10.5925 7.03544 10.9975 6.82323 11.408 6.67349C12.6101 6.23936 13.7886 5.74168 15.342 5.97544C17.2089 6.25768 18.5339 7.08715 19.3526 8.36691C17.7733 9.37197 16.5248 10.8866 16.7381 13.473C16.9277 15.8225 18.2937 17.197 20 18.0071Z" fill="#101011"/>
</svg>
