<svg width="129" height="39" viewBox="0 0 129 39" fill="none" xmlns="http://www.w3.org/2000/svg">
<path d="M124.013 38.9998H5.08994C2.3377 38.9998 0.108398 36.8004 0.108398 34.0849V5.24449C0.108398 2.52906 2.3377 0.32959 5.08994 0.32959H124.013C126.765 0.32959 128.995 2.52906 128.995 5.24449V34.0849C128.995 36.8004 126.765 38.9998 124.013 38.9998Z" fill="#0C0C0D"/>
<path d="M11.825 16.1304C9.7332 19.7101 11.0621 25.1437 13.375 28.4362C14.5287 30.0825 15.6986 31.5612 17.2971 31.5612C17.3268 31.5612 17.3565 31.5612 17.3888 31.5586C18.1409 31.5293 18.6854 31.3006 19.2084 31.0798C19.7987 30.8325 20.4079 30.5745 21.3649 30.5745C22.276 30.5745 22.8555 30.8219 23.4162 31.0612C23.9715 31.2979 24.5403 31.5426 25.384 31.5266C27.1874 31.4947 28.2926 29.899 29.2711 28.4921C30.2901 27.024 30.8023 25.5958 30.9748 25.0506L30.9829 25.0293C31.0152 24.9336 30.9694 24.8272 30.875 24.7846C30.875 24.7846 30.8643 24.7793 30.8616 24.7793C30.5435 24.6516 27.7589 23.4336 27.7292 20.1117C27.7023 17.4123 29.8184 15.9841 30.2416 15.7234L30.2605 15.7101C30.3063 15.6809 30.3386 15.6357 30.3494 15.5825C30.3602 15.5293 30.3494 15.4734 30.3171 15.4309C28.856 13.3218 26.6186 13.0053 25.7156 12.9655C25.5862 12.9522 25.4514 12.9468 25.314 12.9468C24.2546 12.9468 23.241 13.3405 22.4269 13.6596C21.8636 13.8777 21.3783 14.0665 21.0441 14.0665C20.6667 14.0665 20.1788 13.875 19.6127 13.6543C18.8552 13.3591 17.998 13.0213 17.0896 13.0213C17.068 13.0213 17.0464 13.0213 17.0249 13.0213C14.9196 13.0532 12.9248 14.2447 11.825 16.1304Z" fill="white"/>
<path d="M25.7214 7.16212C24.4436 7.21266 22.9098 7.98925 21.9933 9.04776C21.2143 9.93872 20.4541 11.4228 20.6536 12.9174C20.6671 13.0105 20.7425 13.0823 20.8396 13.0903C20.9258 13.0956 21.0148 13.101 21.1011 13.101C22.3518 13.101 23.6997 12.4174 24.6189 11.319C25.5893 10.1595 26.0772 8.6701 25.9289 7.33766C25.9182 7.23393 25.8265 7.15681 25.7214 7.16212Z" fill="white"/>
<path d="M40.4216 9.15295H42.845C43.4812 9.15295 44.0446 9.28327 44.5379 9.54125C45.0312 9.79923 45.414 10.1583 45.6889 10.6157C45.9639 11.0732 46.1013 11.5918 46.1013 12.1742C46.1013 12.7567 45.9639 13.2753 45.6889 13.7327C45.414 14.1902 45.0312 14.5492 44.5379 14.8072C44.0446 15.0652 43.4812 15.1955 42.845 15.1955H40.4216V9.15295ZM42.81 14.7992C43.3761 14.7992 43.8747 14.6875 44.306 14.4668C44.7373 14.246 45.0689 13.9349 45.3034 13.5386C45.538 13.1423 45.6539 12.6875 45.6539 12.1742C45.6539 11.6609 45.538 11.2061 45.3034 10.8099C45.0689 10.4136 44.7373 10.1024 44.306 9.88168C43.8747 9.66093 43.3761 9.54923 42.81 9.54923H40.8664V14.7992H42.81Z" fill="white"/>
<path d="M48.1231 14.938C47.7753 14.7412 47.5031 14.4699 47.3036 14.1215C47.1041 13.7731 47.0071 13.3795 47.0071 12.9433C47.0071 12.5071 47.1068 12.1135 47.3036 11.7651C47.5031 11.4167 47.7753 11.1454 48.1231 10.9486C48.4708 10.7518 48.859 10.6561 49.2903 10.6561C49.7216 10.6561 50.1124 10.7545 50.4575 10.9486C50.8052 11.1454 51.0775 11.4167 51.277 11.7651C51.4764 12.1135 51.5735 12.5071 51.5735 12.9433C51.5735 13.3795 51.4738 13.7731 51.277 14.1215C51.0775 14.4699 50.8052 14.7412 50.4575 14.938C50.1098 15.1348 49.7216 15.2305 49.2903 15.2305C48.8617 15.2305 48.4708 15.1321 48.1231 14.938ZM50.2338 14.6002C50.5114 14.438 50.7298 14.2146 50.8888 13.9273C51.0478 13.6401 51.1287 13.3103 51.1287 12.9433C51.1287 12.5763 51.0478 12.2465 50.8888 11.9593C50.7271 11.672 50.5087 11.446 50.2338 11.2864C49.9561 11.1242 49.6434 11.0444 49.293 11.0444C48.9426 11.0444 48.6298 11.1242 48.3522 11.2864C48.0745 11.4486 47.8562 11.672 47.6972 11.9593C47.5354 12.2465 47.4573 12.5763 47.4573 12.9433C47.4573 13.313 47.5381 13.6401 47.6972 13.9273C47.8562 14.2146 48.0772 14.4406 48.3522 14.6002C48.6298 14.7625 48.9426 14.8422 49.293 14.8422C49.6434 14.8422 49.9561 14.7625 50.2338 14.6002Z" fill="white"/>
<path d="M59.3303 10.6902L57.597 15.1956H57.1846L55.6454 11.286L54.0954 15.1956H53.6937L51.9604 10.6902H52.381L53.904 14.7142L55.4621 10.6902H55.8395L57.3895 14.7035L58.9287 10.6902H59.3303Z" fill="white"/>
<path d="M63.9331 11.1481C64.2647 11.4752 64.4318 11.9486 64.4318 12.563V15.196H63.9951V12.5976C63.9951 12.0922 63.8657 11.7066 63.6069 11.4406C63.3481 11.1747 62.9842 11.0444 62.5179 11.0444C61.9815 11.0444 61.5582 11.2039 61.2482 11.5204C60.9382 11.8369 60.7846 12.2625 60.7846 12.797V15.196H60.3479V10.6906H60.7684V11.6667C60.9248 11.3502 61.162 11.1029 61.472 10.9247C61.7847 10.7465 62.154 10.6561 62.5799 10.6561C63.1487 10.6561 63.6015 10.821 63.9331 11.1481Z" fill="white"/>
<path d="M66.2344 8.79108H66.6711V15.198H66.2344V8.79108Z" fill="white"/>
<path d="M69.1321 14.938C68.7844 14.7412 68.5121 14.4699 68.3126 14.1215C68.1132 13.7731 68.0161 13.3795 68.0161 12.9433C68.0161 12.5071 68.1159 12.1135 68.3126 11.7651C68.5121 11.4167 68.7844 11.1454 69.1321 10.9486C69.4798 10.7518 69.868 10.6561 70.2993 10.6561C70.7306 10.6561 71.1215 10.7545 71.4665 10.9486C71.8143 11.1454 72.0865 11.4167 72.286 11.7651C72.4855 12.1135 72.5825 12.5071 72.5825 12.9433C72.5825 13.3795 72.4828 13.7731 72.286 14.1215C72.0865 14.4699 71.8143 14.7412 71.4665 14.938C71.1188 15.1348 70.7306 15.2305 70.2993 15.2305C69.868 15.2305 69.4798 15.1321 69.1321 14.938ZM71.2401 14.6002C71.5177 14.438 71.7361 14.2146 71.8951 13.9273C72.0542 13.6401 72.1351 13.3103 72.1351 12.9433C72.1351 12.5763 72.0542 12.2465 71.8951 11.9593C71.7334 11.672 71.5151 11.446 71.2401 11.2864C70.9624 11.1242 70.6498 11.0444 70.2993 11.0444C69.9489 11.0444 69.6362 11.1242 69.3586 11.2864C69.0809 11.4486 68.8625 11.672 68.7035 11.9593C68.5418 12.2465 68.4636 12.5763 68.4636 12.9433C68.4636 13.313 68.5445 13.6401 68.7035 13.9273C68.8625 14.2146 69.0836 14.4406 69.3586 14.6002C69.6362 14.7625 69.9489 14.8422 70.2993 14.8422C70.6498 14.8422 70.9651 14.7625 71.2401 14.6002Z" fill="white"/>
<path d="M76.7712 11.0835C77.0758 11.3681 77.2268 11.7883 77.2268 12.3388V15.1952H76.8063V14.392C76.6607 14.658 76.4477 14.8628 76.1674 15.0091C75.887 15.1553 75.5528 15.2298 75.1619 15.2298C74.6551 15.2298 74.2535 15.1128 73.9597 14.8761C73.6658 14.6394 73.5176 14.3282 73.5176 13.9426C73.5176 13.5676 73.6524 13.2644 73.9246 13.033C74.1969 12.799 74.6282 12.6846 75.2239 12.6846H76.7901V12.3229C76.7901 11.9027 76.6742 11.5835 76.445 11.3654C76.2159 11.1474 75.8789 11.0383 75.4342 11.0383C75.1296 11.0383 74.8411 11.0888 74.5635 11.1926C74.2858 11.2963 74.0513 11.4346 73.8599 11.6075L73.6416 11.2963C73.868 11.0942 74.143 10.9373 74.4637 10.8255C74.7845 10.7138 75.1188 10.658 75.4692 10.658C76.0326 10.6553 76.4693 10.7963 76.7712 11.0835ZM76.1889 14.6181C76.4531 14.4452 76.6553 14.1952 76.7874 13.8681V13.0224H75.2293C74.7791 13.0224 74.4557 13.1021 74.2535 13.2644C74.0513 13.4266 73.9516 13.6474 73.9516 13.9293C73.9516 14.2218 74.0621 14.4559 74.2831 14.6234C74.5042 14.7936 74.8169 14.8787 75.2185 14.8787C75.6013 14.8761 75.9248 14.791 76.1889 14.6181Z" fill="white"/>
<path d="M83.0947 8.79108V15.198H82.6661V14.1342C82.4855 14.4852 82.2321 14.7565 81.9059 14.9453C81.5797 15.1342 81.2077 15.2299 80.7953 15.2299C80.3694 15.2299 79.9839 15.1315 79.6416 14.9374C79.2965 14.7405 79.027 14.4719 78.8329 14.1262C78.6361 13.7804 78.5391 13.3868 78.5391 12.9427C78.5391 12.4985 78.6361 12.1049 78.8329 11.7565C79.027 11.4081 79.2992 11.1368 79.6416 10.9453C79.9866 10.7538 80.3694 10.6554 80.7953 10.6554C81.2023 10.6554 81.569 10.7512 81.8924 10.94C82.2159 11.1288 82.472 11.3948 82.658 11.7352V8.79108H83.0947ZM81.7603 14.5996C82.038 14.4374 82.2563 14.214 82.4154 13.9267C82.5744 13.6395 82.6553 13.3097 82.6553 12.9427C82.6553 12.5757 82.5744 12.2459 82.4154 11.9586C82.2536 11.6714 82.0353 11.4453 81.7603 11.2858C81.4827 11.1235 81.17 11.0437 80.8196 11.0437C80.4691 11.0437 80.1564 11.1235 79.8788 11.2858C79.6011 11.448 79.3828 11.6714 79.2237 11.9586C79.062 12.2459 78.9838 12.5757 78.9838 12.9427C78.9838 13.3124 79.0647 13.6395 79.2237 13.9267C79.3828 14.214 79.6038 14.44 79.8788 14.5996C80.1564 14.7618 80.4691 14.8416 80.8196 14.8416C81.17 14.8416 81.4827 14.7618 81.7603 14.5996Z" fill="white"/>
<path d="M87.8094 14.938C87.4616 14.7412 87.1893 14.4699 86.9899 14.1215C86.7904 13.7731 86.6934 13.3795 86.6934 12.9433C86.6934 12.5071 86.7931 12.1135 86.9899 11.7651C87.1893 11.4167 87.4616 11.1454 87.8094 10.9486C88.1571 10.7518 88.5453 10.6561 88.9766 10.6561C89.4079 10.6561 89.7987 10.7545 90.1438 10.9486C90.4915 11.1454 90.7638 11.4167 90.9632 11.7651C91.1627 12.1135 91.2598 12.5071 91.2598 12.9433C91.2598 13.3795 91.16 13.7731 90.9632 14.1215C90.7638 14.4699 90.4915 14.7412 90.1438 14.938C89.796 15.1348 89.4079 15.2305 88.9766 15.2305C88.5453 15.2305 88.1571 15.1321 87.8094 14.938ZM89.9173 14.6002C90.195 14.438 90.4133 14.2146 90.5724 13.9273C90.7314 13.6401 90.8123 13.3103 90.8123 12.9433C90.8123 12.5763 90.7314 12.2465 90.5724 11.9593C90.4106 11.672 90.1923 11.446 89.9173 11.2864C89.6397 11.1242 89.327 11.0444 88.9766 11.0444C88.6261 11.0444 88.3134 11.1242 88.0358 11.2864C87.7581 11.4486 87.5398 11.672 87.3807 11.9593C87.219 12.2465 87.1408 12.5763 87.1408 12.9433C87.1408 13.313 87.2217 13.6401 87.3807 13.9273C87.5398 14.2146 87.7608 14.4406 88.0358 14.6002C88.3134 14.7625 88.6261 14.8422 88.9766 14.8422C89.327 14.8422 89.6397 14.7625 89.9173 14.6002Z" fill="white"/>
<path d="M96.2009 11.1481C96.5325 11.4752 96.6996 11.9486 96.6996 12.563V15.196H96.2629V12.5976C96.2629 12.0922 96.1335 11.7066 95.8748 11.4406C95.616 11.1747 95.252 11.0444 94.7857 11.0444C94.2493 11.0444 93.8261 11.2039 93.5161 11.5204C93.2061 11.8369 93.0524 12.2625 93.0524 12.797V15.196H92.6157V10.6906H93.0362V11.6667C93.1926 11.3502 93.4298 11.1029 93.7398 10.9247C94.0525 10.7465 94.4218 10.6561 94.8477 10.6561C95.4165 10.6561 95.8693 10.821 96.2009 11.1481Z" fill="white"/>
<path d="M103.02 14.9111C102.909 15.0148 102.769 15.0946 102.605 15.1478C102.438 15.2037 102.265 15.2303 102.084 15.2303C101.688 15.2303 101.381 15.1212 101.165 14.9058C100.95 14.6904 100.842 14.3898 100.842 14.0042V11.0601H100.001V10.6877H100.842V9.70367H101.278V10.6877H102.731V11.0601H101.278V13.9617C101.278 14.2542 101.349 14.4776 101.494 14.6319C101.637 14.7835 101.847 14.8606 102.128 14.8606C102.413 14.8606 102.651 14.7781 102.837 14.6106L103.02 14.9111Z" fill="white"/>
<path d="M107.823 11.1475C108.155 11.4746 108.322 11.948 108.322 12.5624V15.1953H107.885V12.5969C107.885 12.0916 107.756 11.706 107.497 11.44C107.238 11.1741 106.874 11.0437 106.408 11.0437C105.872 11.0437 105.448 11.2033 105.138 11.5198C104.828 11.8363 104.675 12.2618 104.675 12.7964V15.1953H104.238V8.79108H104.675V11.6315C104.831 11.3203 105.066 11.081 105.376 10.9108C105.686 10.7405 106.05 10.6554 106.47 10.6554C107.039 10.6554 107.492 10.8203 107.823 11.1475Z" fill="white"/>
<path d="M113.993 13.047H110.066C110.077 13.3981 110.168 13.7093 110.338 13.9832C110.508 14.2571 110.737 14.4672 111.025 14.6188C111.314 14.7678 111.64 14.8422 112.001 14.8422C112.298 14.8422 112.575 14.789 112.829 14.6827C113.082 14.5763 113.295 14.4194 113.462 14.2119L113.716 14.4965C113.516 14.7332 113.268 14.914 112.966 15.0417C112.667 15.1694 112.341 15.2305 111.991 15.2305C111.535 15.2305 111.131 15.1321 110.775 14.938C110.419 14.7412 110.141 14.4726 109.939 14.1268C109.737 13.7811 109.637 13.3875 109.637 12.9433C109.637 12.5071 109.732 12.1135 109.923 11.7651C110.112 11.4167 110.373 11.1454 110.707 10.9486C111.039 10.7518 111.414 10.6561 111.826 10.6561C112.241 10.6561 112.613 10.7518 112.942 10.946C113.271 11.1401 113.532 11.4087 113.721 11.7545C113.91 12.1002 114.004 12.4912 114.004 12.9273L113.993 13.047ZM110.955 11.2465C110.699 11.3875 110.492 11.5869 110.338 11.8422C110.184 12.0976 110.095 12.3875 110.071 12.7093H113.57C113.554 12.3875 113.465 12.1002 113.309 11.8449C113.152 11.5922 112.945 11.3928 112.689 11.2492C112.433 11.1055 112.144 11.0337 111.823 11.0337C111.5 11.0364 111.211 11.1055 110.955 11.2465Z" fill="white"/>
<path d="M46.9013 28.5539H41.6664L40.634 30.9448H38.6311L43.3404 20.6177H45.2543L49.9797 30.9448H47.9472L46.9013 28.5539ZM46.257 27.0512L44.2838 22.5379L42.3241 27.0512H46.257Z" fill="white"/>
<path d="M57.6437 23.4799C58.2557 23.815 58.7382 24.2857 59.0859 24.8974C59.4336 25.5065 59.6089 26.2112 59.6089 27.0065C59.6089 27.8043 59.4336 28.5091 59.0859 29.1235C58.7382 29.7378 58.2557 30.2139 57.6437 30.5464C57.0318 30.8815 56.3364 31.049 55.5573 31.049C54.4818 31.049 53.6273 30.6953 52.9992 29.9878V33.8097H51.1311V23.0676H52.9102V24.0995C53.2202 23.7245 53.6003 23.4453 54.0532 23.2591C54.506 23.0729 55.0074 22.9799 55.5546 22.9799C56.3364 22.9799 57.0318 23.1474 57.6437 23.4799ZM57.0453 28.791C57.4901 28.3389 57.7111 27.7432 57.7111 27.0065C57.7111 26.2698 57.4901 25.674 57.0453 25.2219C56.6005 24.7698 56.0371 24.5437 55.3471 24.5437C54.8996 24.5437 54.4952 24.6448 54.1367 24.8469C53.7782 25.049 53.4925 25.3362 53.2849 25.7112C53.0747 26.0862 52.9722 26.5171 52.9722 27.0091C52.9722 27.5011 53.0773 27.9346 53.2849 28.307C53.4952 28.682 53.7782 28.9692 54.1367 29.1714C54.4952 29.3735 54.8996 29.4745 55.3471 29.4745C56.0371 29.4692 56.6032 29.2432 57.0453 28.791Z" fill="white"/>
<path d="M67.8989 23.4799C68.5108 23.815 68.9933 24.2857 69.3411 24.8974C69.6888 25.5065 69.864 26.2112 69.864 27.0065C69.864 27.8043 69.6888 28.5091 69.3411 29.1235C68.9933 29.7378 68.5108 30.2139 67.8989 30.5464C67.287 30.8815 66.5915 31.049 65.8125 31.049C64.7369 31.049 63.8824 30.6953 63.2543 29.9878V33.8097H61.3862V23.0676H63.1653V24.0995C63.4753 23.7245 63.8554 23.4453 64.3083 23.2591C64.7612 23.0729 65.2625 22.9799 65.8098 22.9799C66.5915 22.9799 67.287 23.1474 67.8989 23.4799ZM67.3032 28.791C67.7479 28.3389 67.969 27.7432 67.969 27.0065C67.969 26.2698 67.7479 25.674 67.3032 25.2219C66.8584 24.7698 66.295 24.5437 65.6049 24.5437C65.1574 24.5437 64.7531 24.6448 64.3946 24.8469C64.036 25.049 63.7503 25.3362 63.5427 25.7112C63.3325 26.0862 63.23 26.5171 63.23 27.0091C63.23 27.5011 63.3352 27.9346 63.5427 28.307C63.753 28.682 64.036 28.9692 64.3946 29.1714C64.7531 29.3735 65.1574 29.4745 65.6049 29.4745C66.2923 29.4692 66.8584 29.2432 67.3032 28.791Z" fill="white"/>
<path d="M76.8583 30.7534C76.1062 30.5273 75.5104 30.2268 75.071 29.8544L75.745 28.3651C76.1736 28.7002 76.6992 28.9714 77.3219 29.1842C77.9446 29.397 78.57 29.5007 79.1981 29.5007C79.9744 29.5007 80.5566 29.3784 80.9394 29.131C81.3222 28.8863 81.5163 28.5619 81.5163 28.1576C81.5163 27.8624 81.4085 27.6204 81.1955 27.4262C80.9799 27.2347 80.7103 27.0858 80.3814 26.9768C80.0526 26.8677 79.6051 26.7454 79.0363 26.6071C78.2384 26.4209 77.5941 26.2321 77.1008 26.0459C76.6075 25.8597 76.1843 25.5672 75.8285 25.1682C75.4754 24.7693 75.2975 24.2321 75.2975 23.5539C75.2975 22.9847 75.4538 22.4635 75.7692 21.998C76.0819 21.5299 76.5563 21.1603 77.1898 20.8837C77.8233 20.6071 78.5969 20.4714 79.5161 20.4714C80.155 20.4714 80.7831 20.5512 81.4004 20.7081C82.0177 20.8651 82.5514 21.0911 83.0016 21.3863L82.3897 22.8757C81.9314 22.6097 81.4516 22.4076 80.9529 22.272C80.4542 22.1337 79.9717 22.0645 79.5027 22.0645C78.7344 22.0645 78.1656 22.1922 77.7909 22.4475C77.4162 22.7028 77.2302 23.0432 77.2302 23.4661C77.2302 23.7613 77.3381 24.0034 77.551 24.1895C77.764 24.3757 78.0362 24.5246 78.3651 24.631C78.694 24.7401 79.1414 24.8624 79.7102 25.0007C80.4866 25.1789 81.1254 25.3624 81.6241 25.5539C82.1228 25.7454 82.5487 26.0379 82.9019 26.4315C83.255 26.8252 83.4329 27.3571 83.4329 28.0246C83.4329 28.5964 83.2765 29.1124 82.9612 29.5725C82.6485 30.0353 82.1713 30.405 81.5325 30.6789C80.8936 30.9528 80.1173 31.0911 79.2008 31.0911C78.3921 31.0938 77.6103 30.9794 76.8583 30.7534Z" fill="white"/>
<path d="M89.9809 30.5169C89.7626 30.6951 89.4957 30.8254 89.1803 30.9158C88.8676 31.0036 88.536 31.0488 88.1856 31.0488C87.3095 31.0488 86.6302 30.8227 86.1531 30.3706C85.6733 29.9185 85.4361 29.2589 85.4361 28.3945V24.602H84.1206V23.1259H85.4361V21.3254H87.3041V23.1259H89.4418V24.602H87.3041V28.3493C87.3041 28.7323 87.3985 29.0249 87.5872 29.227C87.7759 29.4291 88.0508 29.5302 88.4094 29.5302C88.8272 29.5302 89.1776 29.4211 89.4553 29.2057L89.9809 30.5169Z" fill="white"/>
<path d="M92.6562 30.5331C92.0092 30.19 91.5024 29.7086 91.1385 29.0942C90.7746 28.4799 90.594 27.7831 90.594 27.0065C90.594 26.2299 90.7746 25.5357 91.1385 24.9267C91.5024 24.3176 92.0092 23.8389 92.6562 23.4958C93.3031 23.1527 94.0309 22.9799 94.8396 22.9799C95.6564 22.9799 96.3896 23.1527 97.0366 23.4958C97.6835 23.8389 98.1903 24.3176 98.5542 24.9267C98.9181 25.5357 99.0987 26.2299 99.0987 27.0065C99.0987 27.7831 98.9154 28.4799 98.5542 29.0942C98.1903 29.7086 97.6835 30.1873 97.0366 30.5331C96.3896 30.8761 95.6564 31.049 94.8396 31.049C94.0309 31.049 93.3031 30.8761 92.6562 30.5331ZM96.5433 28.791C96.9907 28.3389 97.2172 27.7432 97.2172 27.0065C97.2172 26.2698 96.9934 25.674 96.5433 25.2219C96.0958 24.7698 95.527 24.5437 94.8396 24.5437C94.1522 24.5437 93.5862 24.7698 93.1414 25.2219C92.6966 25.674 92.4756 26.2698 92.4756 27.0065C92.4756 27.7432 92.6966 28.3389 93.1414 28.791C93.5862 29.2432 94.1495 29.4692 94.8396 29.4692C95.527 29.4692 96.0931 29.2432 96.5433 28.791Z" fill="white"/>
<path d="M105.517 22.9799V24.7352C105.358 24.7059 105.212 24.69 105.083 24.69C104.355 24.69 103.786 24.9001 103.379 25.3176C102.969 25.7352 102.767 26.3389 102.767 27.1261V30.948H100.899V23.0676H102.678V24.2192C103.214 23.3921 104.161 22.9799 105.517 22.9799Z" fill="white"/>
<path d="M114.503 27.5969H108.238C108.348 28.1767 108.634 28.6368 109.098 28.9772C109.562 29.3176 110.138 29.4852 110.826 29.4852C111.702 29.4852 112.427 29.2006 112.993 28.6288L113.996 29.7644C113.637 30.1873 113.184 30.5065 112.635 30.7245C112.087 30.94 111.467 31.049 110.78 31.049C109.904 31.049 109.13 30.8761 108.462 30.5331C107.793 30.19 107.278 29.7086 106.914 29.0942C106.55 28.4799 106.37 27.7831 106.37 27.0065C106.37 26.2405 106.548 25.549 106.901 24.9346C107.254 24.3203 107.745 23.8416 108.373 23.4958C109.001 23.1527 109.71 22.9799 110.497 22.9799C111.273 22.9799 111.969 23.1501 112.583 23.4878C113.195 23.8283 113.675 24.3043 114.02 24.9187C114.365 25.5331 114.535 26.2432 114.535 27.0517C114.532 27.1793 114.521 27.3602 114.503 27.5969ZM108.977 24.9772C108.564 25.3256 108.311 25.791 108.222 26.3708H112.753C112.672 25.8017 112.43 25.3389 112.02 24.9852C111.61 24.6315 111.103 24.4533 110.494 24.4533C109.896 24.4533 109.392 24.6288 108.977 24.9772Z" fill="white"/>
</svg>
