<svg width="9" height="16" viewBox="0 0 9 16" fill="none" xmlns="http://www.w3.org/2000/svg">
<path d="M1.0055 5.57751L6.2507 0.332302C6.46481 0.119464 6.75444 0 7.05634 0C7.35824 0 7.64787 0.119464 7.86198 0.332302C7.96909 0.438535 8.0541 0.564924 8.11212 0.704178C8.17013 0.843433 8.2 0.992796 8.2 1.14365C8.2 1.29451 8.17013 1.44387 8.11212 1.58313C8.0541 1.72238 7.96909 1.84877 7.86198 1.955L2.60534 7.18878C2.49824 7.29501 2.41322 7.4214 2.35521 7.56066C2.29719 7.69991 2.26732 7.84927 2.26732 8.00013C2.26732 8.15099 2.29719 8.30035 2.35521 8.4396C2.41322 8.57886 2.49824 8.70525 2.60534 8.81148L7.86198 14.0453C8.07716 14.2589 8.19865 14.5493 8.19972 14.8526C8.2008 15.1558 8.08136 15.4471 7.86769 15.6622C7.65402 15.8774 7.36363 15.9989 7.06038 16C6.75714 16.0011 6.46589 15.8816 6.2507 15.668L1.0055 10.4228C0.363503 9.77996 0.00289822 8.90862 0.00289822 8.00013C0.00289822 7.09164 0.363503 6.2203 1.0055 5.57751Z" fill="#101011"/>
</svg>
