<svg width="11" height="11" viewBox="0 0 11 11" fill="none" xmlns="http://www.w3.org/2000/svg">
<path d="M0.343417 1.9426H5.57205C5.72964 2.6599 6.3702 3.1984 7.13413 3.1984C7.89806 3.1984 8.53862 2.65992 8.69621 1.9426H10.6459C10.8356 1.9426 10.9894 1.78884 10.9894 1.59919C10.9894 1.40954 10.8356 1.25577 10.6459 1.25577H8.69604C8.53815 0.538843 7.89671 0 7.13413 0C6.37114 0 5.73 0.538757 5.57218 1.25577H0.343417C0.153765 1.25577 0 1.40954 0 1.59919C0 1.78884 0.153765 1.9426 0.343417 1.9426ZM6.2218 1.60009L6.22182 1.5964C6.22332 1.09486 6.63257 0.686856 7.13413 0.686856C7.63498 0.686856 8.04425 1.0943 8.04642 1.5956L8.04648 1.60065C8.04569 2.10304 7.63672 2.51158 7.13413 2.51158C6.63175 2.51158 6.22292 2.10345 6.22178 1.60136L6.2218 1.60009ZM10.6459 9.05737H8.69604C8.53813 8.34047 7.89671 7.8016 7.13413 7.8016C6.37114 7.8016 5.73 8.34038 5.57218 9.05737H0.343417C0.153765 9.05737 0 9.21112 0 9.40079C0 9.59047 0.153765 9.74421 0.343417 9.74421H5.57205C5.72964 10.4615 6.3702 11 7.13413 11C7.89806 11 8.53862 10.4615 8.69621 9.74421H10.6459C10.8356 9.74421 10.9894 9.59047 10.9894 9.40079C10.9894 9.21112 10.8356 9.05737 10.6459 9.05737ZM7.13413 10.3132C6.63175 10.3132 6.22292 9.90504 6.22178 9.40294L6.2218 9.40169L6.22182 9.398C6.22332 8.89646 6.63257 8.48844 7.13413 8.48844C7.63498 8.48844 8.04425 8.89588 8.04642 9.39717L8.04648 9.40221C8.04575 9.90467 7.63676 10.3132 7.13413 10.3132ZM10.6459 5.15658H5.4173C5.25972 4.43929 4.61916 3.90081 3.85522 3.90081C3.09129 3.90081 2.45073 4.43929 2.29315 5.15658H0.343417C0.153765 5.15658 0 5.31035 0 5.5C0 5.68967 0.153765 5.84342 0.343417 5.84342H2.29332C2.45123 6.56032 3.09264 7.09919 3.85522 7.09919C4.61821 7.09919 5.25935 6.56041 5.41717 5.84342H10.6459C10.8356 5.84342 10.9894 5.68967 10.9894 5.5C10.9894 5.31035 10.8356 5.15658 10.6459 5.15658ZM4.76756 5.4991L4.76753 5.50279C4.76603 6.00433 4.35679 6.41233 3.85522 6.41233C3.35437 6.41233 2.9451 6.00489 2.94294 5.50361L2.94287 5.49858C2.94362 4.99612 3.35261 4.58765 3.85522 4.58765C4.3576 4.58765 4.76644 4.99576 4.76758 5.49788L4.76756 5.4991Z" fill="#101011"/>
</svg>
