<svg width="8" height="15" viewBox="0 0 8 15" fill="none" xmlns="http://www.w3.org/2000/svg">
<path d="M8.00004 7.12427C8.00013 7.20933 7.98292 7.29357 7.9494 7.37215C7.91588 7.45073 7.86671 7.5221 7.80471 7.58217L1.13804 14.0588C0.877541 14.3119 0.455708 14.3119 0.195375 14.0588C-0.0649583 13.8058 -0.065125 13.396 0.195375 13.143L6.39071 7.12427L0.195375 1.10548C-0.065125 0.852407 -0.065125 0.442595 0.195375 0.18968C0.455875 -0.0632343 0.877708 -0.0633965 1.13804 0.18968L7.80471 6.66636C7.86671 6.72643 7.91588 6.7978 7.9494 6.87638C7.98292 6.95496 8.00013 7.0392 8.00004 7.12427Z" fill="#101011" fill-opacity="0.7"/>
</svg>
