<svg width="129" height="39" viewBox="0 0 129 39" fill="none" xmlns="http://www.w3.org/2000/svg">
<path d="M123.905 38.6702H4.98153C2.22929 38.6702 0 36.4708 0 33.7553V4.9149C0 2.19947 2.22929 0 4.98153 0H123.905C126.657 0 128.886 2.19947 128.886 4.9149V33.7553C128.886 36.4708 126.657 38.6702 123.905 38.6702Z" fill="#0C0C0D"/>
<path d="M42.2405 23.3589H44.0385V27.3828C43.5129 27.7951 42.8983 28.1142 42.1974 28.335C41.4965 28.5557 40.7741 28.6674 40.0355 28.6674C38.9923 28.6674 38.0542 28.444 37.2159 27.9972C36.3775 27.5504 35.7198 26.9334 35.2427 26.1435C34.7655 25.3562 34.5256 24.4653 34.5256 23.4759C34.5256 22.4866 34.7655 21.5956 35.2427 20.8084C35.7198 20.0211 36.3802 19.4014 37.224 18.9546C38.0677 18.5078 39.0139 18.2844 40.0652 18.2844C40.9224 18.2844 41.7014 18.4227 42.4023 18.702C43.1031 18.9812 43.6935 19.3881 44.1706 19.928L42.9711 21.0823C42.192 20.3137 41.2512 19.928 40.1514 19.928C39.429 19.928 38.7901 20.077 38.2294 20.3749C37.6687 20.6727 37.2294 21.0903 36.914 21.6302C36.5986 22.1674 36.4395 22.7844 36.4395 23.4759C36.4395 24.1488 36.5986 24.7552 36.914 25.2924C37.2294 25.8296 37.6687 26.2525 38.2294 26.561C38.7901 26.8695 39.4263 27.0211 40.1352 27.0211C40.9332 27.0211 41.6367 26.8483 42.2405 26.5025V23.3589Z" fill="white"/>
<path d="M47.7331 28.1162C47.0997 27.7811 46.6064 27.3103 46.2505 26.7093C45.8947 26.1082 45.7168 25.4274 45.7168 24.6694C45.7168 23.9114 45.8947 23.2332 46.2505 22.6375C46.6064 22.0417 47.0997 21.5763 47.7331 21.2385C48.3666 20.9034 49.0783 20.7332 49.8654 20.7332C50.6633 20.7332 51.3803 20.9008 52.0138 21.2385C52.6473 21.5763 53.1406 22.0417 53.4964 22.6375C53.8522 23.2332 54.0301 23.9114 54.0301 24.6694C54.0301 25.43 53.8522 26.1082 53.4964 26.7093C53.1406 27.3103 52.6473 27.7784 52.0138 28.1162C51.3803 28.454 50.6633 28.6215 49.8654 28.6215C49.0783 28.6215 48.3666 28.454 47.7331 28.1162ZM51.5313 26.4167C51.9707 25.9752 52.189 25.3928 52.189 24.672C52.189 23.9513 51.9707 23.3689 51.5313 22.9274C51.0919 22.4859 50.5366 22.2651 49.8654 22.2651C49.1942 22.2651 48.6389 22.4859 48.2076 22.9274C47.7736 23.3689 47.5579 23.9513 47.5579 24.672C47.5579 25.3928 47.7736 25.9752 48.2076 26.4167C48.6416 26.8582 49.1942 27.079 49.8654 27.079C50.5393 27.079 51.0946 26.8582 51.5313 26.4167Z" fill="white"/>
<path d="M57.1631 28.1166C56.5296 27.7815 56.0363 27.3108 55.6805 26.7097C55.3246 26.1086 55.1467 25.4278 55.1467 24.6698C55.1467 23.9118 55.3246 23.2336 55.6805 22.6379C56.0363 22.0422 56.5296 21.5767 57.1631 21.239C57.7965 20.9039 58.5082 20.7336 59.2953 20.7336C60.0932 20.7336 60.8103 20.9012 61.4437 21.239C62.0772 21.5767 62.5705 22.0422 62.9263 22.6379C63.2822 23.2336 63.4601 23.9118 63.4601 24.6698C63.4601 25.4305 63.2822 26.1086 62.9263 26.7097C62.5705 27.3108 62.0772 27.7789 61.4437 28.1166C60.8103 28.4544 60.0932 28.6219 59.2953 28.6219C58.5082 28.6219 57.7965 28.4544 57.1631 28.1166ZM60.9639 26.4172C61.4033 25.9757 61.6216 25.3932 61.6216 24.6725C61.6216 23.9517 61.4033 23.3693 60.9639 22.9278C60.5245 22.4863 59.9692 22.2656 59.298 22.2656C58.6268 22.2656 58.0715 22.4863 57.6402 22.9278C57.2062 23.3693 56.9905 23.9517 56.9905 24.6725C56.9905 25.3932 57.2062 25.9757 57.6402 26.4172C58.0742 26.8586 58.6268 27.0794 59.298 27.0794C59.9692 27.0794 60.5245 26.8586 60.9639 26.4172Z" fill="white"/>
<path d="M72.9567 20.8228V27.3547C72.9567 30.0648 71.5549 31.4212 68.7488 31.4212C67.9994 31.4212 67.2878 31.3281 66.6165 31.1393C65.9453 30.9531 65.39 30.6792 64.9506 30.3254L65.7701 28.9691C66.1098 29.2483 66.5411 29.4717 67.064 29.6393C67.5843 29.8068 68.1126 29.8919 68.6491 29.8919C69.5063 29.8919 70.1343 29.7004 70.5333 29.3148C70.9323 28.9292 71.1317 28.3441 71.1317 27.5568V27.1526C70.819 27.4903 70.439 27.743 69.9915 27.9159C69.544 28.0887 69.0507 28.1765 68.5143 28.1765C67.773 28.1765 67.1045 28.0196 66.506 27.7084C65.9076 27.3973 65.4332 26.9558 65.0881 26.3893C64.7431 25.8228 64.5706 25.1738 64.5706 24.4425C64.5706 23.7111 64.7431 23.0648 65.0881 22.5036C65.4332 21.9425 65.9076 21.5063 66.506 21.1978C67.1045 20.8893 67.7757 20.7377 68.5143 20.7377C69.0804 20.7377 69.5925 20.8281 70.0562 21.0116C70.5198 21.1951 70.9053 21.4717 71.218 21.8467V20.8228H72.9567ZM70.4929 26.0355C70.935 25.626 71.1587 25.0967 71.1587 24.4425C71.1587 23.7988 70.9376 23.2749 70.4929 22.8707C70.0481 22.4664 69.482 22.2643 68.7892 22.2643C68.0884 22.2643 67.5142 22.4664 67.0721 22.8707C66.6273 23.2749 66.4063 23.7988 66.4063 24.4425C66.4063 25.0967 66.6273 25.626 67.0721 26.0355C67.5142 26.4451 68.0884 26.6473 68.7892 26.6473C69.482 26.6473 70.0508 26.4451 70.4929 26.0355Z" fill="white"/>
<path d="M75.3533 17.8209H77.1809V28.5204H75.3533V17.8209Z" fill="white"/>
<path d="M86.884 25.2466H80.7622C80.87 25.8131 81.1504 26.2625 81.6032 26.595C82.0561 26.9274 82.6195 27.0923 83.2907 27.0923C84.1479 27.0923 84.8542 26.8131 85.4095 26.2572L86.388 27.3663C86.0376 27.7785 85.5928 28.0923 85.059 28.3024C84.5226 28.5152 83.9188 28.6189 83.2476 28.6189C82.3904 28.6189 81.6356 28.4514 80.9832 28.1136C80.3309 27.7785 79.8268 27.3078 79.471 26.7067C79.1152 26.1056 78.9373 25.4248 78.9373 24.6668C78.9373 23.9168 79.1098 23.2413 79.4548 22.6402C79.7999 22.0391 80.2797 21.5711 80.8943 21.2333C81.5089 20.8982 82.199 20.728 82.9699 20.728C83.7301 20.728 84.4094 20.8929 85.0078 21.2253C85.6063 21.5578 86.0753 22.0232 86.4096 22.6242C86.7465 23.2253 86.9136 23.9195 86.9136 24.7067C86.9136 24.8397 86.9029 25.0179 86.884 25.2466ZM81.4846 22.6881C81.0803 23.0285 80.835 23.4833 80.746 24.0498H85.175C85.0968 23.4913 84.8596 23.0418 84.4579 22.6934C84.059 22.3476 83.5603 22.1748 82.9672 22.1748C82.3823 22.1774 81.889 22.3476 81.4846 22.6881Z" fill="white"/>
<path d="M99.3943 18.8614C100.052 19.1486 100.556 19.5635 100.907 20.1007C101.257 20.638 101.432 21.2789 101.432 22.0183C101.432 22.7497 101.257 23.3853 100.907 23.9279C100.556 24.4704 100.052 24.888 99.3943 25.1752C98.7366 25.4624 97.9656 25.6087 97.0787 25.6087H94.7686V28.5209H92.8682V18.4279H97.0761C97.9656 18.4279 98.7366 18.5715 99.3943 18.8614ZM98.8767 23.5023C99.3053 23.1566 99.521 22.6619 99.521 22.0183C99.521 21.3747 99.3053 20.88 98.8767 20.5342C98.4481 20.1885 97.82 20.0156 96.9925 20.0156H94.7713V24.0236H96.9925C97.8173 24.0236 98.4454 23.8507 98.8767 23.5023Z" fill="white"/>
<path d="M103.311 17.8213H105.138V28.5208H103.311V17.8213Z" fill="white"/>
<path d="M113.145 21.5496C113.755 22.0922 114.059 22.9113 114.059 24.0071V28.5204H112.334V27.5842C112.11 27.922 111.79 28.1773 111.377 28.3555C110.962 28.5337 110.463 28.6214 109.878 28.6214C109.293 28.6214 108.781 28.523 108.345 28.3262C107.905 28.1294 107.568 27.8555 107.328 27.5044C107.088 27.1533 106.97 26.7571 106.97 26.3156C106.97 25.6241 107.231 25.0682 107.751 24.6507C108.272 24.2331 109.094 24.023 110.213 24.023H112.229V23.9087C112.229 23.3714 112.064 22.9565 111.738 22.6693C111.412 22.3821 110.927 22.2358 110.285 22.2358C109.846 22.2358 109.415 22.3023 108.991 22.4379C108.568 22.5735 108.21 22.7597 107.919 22.9991L107.202 21.6879C107.611 21.3794 108.102 21.1454 108.679 20.9805C109.253 20.8182 109.862 20.7358 110.506 20.7358C111.657 20.7358 112.536 21.0071 113.145 21.5496ZM111.48 26.9991C111.835 26.7916 112.086 26.4964 112.232 26.1134V25.2198H110.347C109.296 25.2198 108.77 25.5603 108.77 26.2438C108.77 26.5709 108.903 26.8289 109.164 27.023C109.428 27.2145 109.792 27.3103 110.261 27.3103C110.717 27.3103 111.124 27.2065 111.48 26.9991Z" fill="white"/>
<path d="M123.562 20.8216L119.909 29.1408C119.567 29.9759 119.154 30.5663 118.667 30.9067C118.179 31.2472 117.591 31.4174 116.898 31.4174C116.507 31.4174 116.125 31.3536 115.744 31.2312C115.364 31.1062 115.052 30.9333 114.809 30.7126L115.54 29.3855C115.715 29.5477 115.922 29.678 116.16 29.7738C116.4 29.8695 116.639 29.9174 116.882 29.9174C117.203 29.9174 117.47 29.8349 117.677 29.6727C117.887 29.5105 118.079 29.2365 118.254 28.8509L118.386 28.5477L114.982 20.819H116.882L119.338 26.5131L121.807 20.819H123.562V20.8216Z" fill="white"/>
<path d="M31.0142 18.8423L26.1028 16.0444L22.0647 19.8982L25.755 23.4194L31.0142 20.4248C31.3026 20.2599 31.4778 19.9646 31.4778 19.6349C31.4752 19.3024 31.3026 19.0072 31.0142 18.8423Z" fill="#FFD109"/>
<path d="M25.2628 15.5713L19.858 12.4942L8.01611 6.50482L21.3918 19.2628L25.2628 15.5713Z" fill="#06EF79"/>
<path d="M8.21143 33.0993L19.8781 26.7589L24.9136 23.8919L21.3904 20.5302L8.21143 33.0993Z" fill="#F93646"/>
<path d="M7.23443 7.02063L7.22095 32.784L20.7342 19.8983L7.23443 7.02063Z" fill="#05D5FB"/>
<path d="M37.7971 12.8275C37.3847 12.8275 36.9992 12.7397 36.6434 12.5615C36.2875 12.3834 35.9748 12.1467 35.7107 11.8461C35.4465 11.5456 35.2389 11.2105 35.0907 10.8355C34.9424 10.4605 34.8696 10.0722 34.8696 9.67059C34.8696 9.25303 34.9424 8.8541 35.0907 8.4791C35.2389 8.1041 35.4438 7.77165 35.7053 7.48176C35.9668 7.19186 36.2768 6.96314 36.6326 6.79824C36.9884 6.63335 37.3766 6.5509 37.7944 6.5509C38.4009 6.5509 38.9023 6.6759 39.2959 6.9259C39.6894 7.1759 39.9886 7.50037 40.1881 7.90197L39.5789 8.31952C39.3956 7.95782 39.1449 7.69186 38.8268 7.51633C38.5087 7.3408 38.1583 7.25569 37.7755 7.25569C37.4574 7.25569 37.169 7.32218 36.9102 7.45516C36.6514 7.58814 36.4277 7.77165 36.2417 8.00037C36.0557 8.2291 35.9155 8.48973 35.8185 8.78229C35.7215 9.07218 35.6729 9.37537 35.6729 9.6892C35.6729 10.0217 35.7268 10.3328 35.8374 10.628C35.9452 10.9206 36.1015 11.1812 36.301 11.4046C36.5005 11.628 36.735 11.8036 36.9992 11.9312C37.2634 12.0589 37.5491 12.1227 37.8564 12.1227C38.2149 12.1227 38.5573 12.0323 38.8807 11.8514C39.2042 11.6706 39.5115 11.394 39.7999 11.0217V11.8328C39.2366 12.4951 38.568 12.8275 37.7971 12.8275ZM39.7056 10.2876H38.3524V9.69452H40.3768V12.7823H39.7056V10.2876Z" fill="white"/>
<path d="M45.8492 12.0854V12.7823H41.5874V6.59076H45.7683V7.28757H42.3826V9.29289H45.3262V9.94714H42.3826V12.0828H45.8492V12.0854Z" fill="white"/>
<path d="M51.4642 7.28757H49.2996V12.7823H48.5044V7.28757H46.3398V6.59076H51.4669V7.28757H51.4642Z" fill="white"/>
<path d="M54.3391 12.7823V6.59076H55.1343V12.7823H54.3391Z" fill="white"/>
<path d="M57.4314 8.03757V12.7823H56.6362V6.59076H57.3074L61.1433 11.4312V6.59874H61.9385V12.7823H61.2134L57.4314 8.03757Z" fill="white"/>
<path d="M68.2257 12.8275C67.7836 12.8275 67.3819 12.7397 67.0234 12.5669C66.6649 12.3913 66.3522 12.1546 66.0907 11.8568C65.8292 11.5562 65.6271 11.2211 65.4842 10.8461C65.344 10.4711 65.2712 10.0855 65.2712 9.6892C65.2712 9.27697 65.3467 8.88335 65.4977 8.50835C65.6486 8.13335 65.8562 7.79824 66.1258 7.50569C66.3926 7.21314 66.708 6.9791 67.0665 6.80888C67.4251 6.63867 67.8186 6.5509 68.2418 6.5509C68.6839 6.5509 69.0856 6.64133 69.4441 6.82218C69.8026 7.00303 70.1126 7.24505 70.3714 7.54559C70.6302 7.84878 70.8323 8.18654 70.9725 8.55622C71.1127 8.92856 71.1855 9.30888 71.1855 9.69984C71.1855 10.1121 71.1127 10.5057 70.9644 10.8807C70.8162 11.2557 70.6086 11.5908 70.3417 11.8834C70.0722 12.1759 69.7595 12.4073 69.4009 12.5775C69.0424 12.7424 68.6516 12.8275 68.2257 12.8275ZM66.0772 9.68654C66.0772 10.0004 66.1285 10.3036 66.2309 10.5988C66.3333 10.8913 66.4789 11.152 66.6676 11.378C66.8563 11.6041 67.0827 11.7849 67.3496 11.9179C67.6137 12.0509 67.9103 12.1174 68.2337 12.1174C68.5707 12.1174 68.8699 12.0482 69.1341 11.9073C69.3983 11.769 69.6247 11.5828 69.8107 11.3488C69.9967 11.1174 70.1369 10.8541 70.2339 10.5642C70.3309 10.2743 70.3795 9.9791 70.3795 9.68388C70.3795 9.37005 70.3282 9.06686 70.2258 8.77697C70.1234 8.48708 69.9751 8.22644 69.7837 7.99505C69.5923 7.76633 69.3659 7.58548 69.1017 7.45516C68.8403 7.32484 68.5491 7.25835 68.231 7.25835C67.8941 7.25835 67.5949 7.3275 67.328 7.46314C67.0638 7.59878 66.8374 7.78495 66.6514 8.01633C66.4654 8.24771 66.3225 8.50835 66.2228 8.79825C66.1285 9.08814 66.0772 9.38335 66.0772 9.68654Z" fill="white"/>
<path d="M73.0845 8.03757V12.7823H72.2893V6.59076H72.9605L76.7964 11.4312V6.59874H77.5916V12.7823H76.8665L73.0845 8.03757Z" fill="white"/>
</svg>
