<svg width="52" height="52" viewBox="0 0 52 52" fill="none" xmlns="http://www.w3.org/2000/svg">
<path d="M26 52C40.3598 52 52 40.3598 52 26C52 11.6402 40.3598 0 26 0C11.6402 0 0 11.6402 0 26C0 40.3598 11.6402 52 26 52Z" fill="#D1D1D1"/>
<path d="M25.9999 12.8179C20.6179 12.8179 16.2499 17.1859 16.2499 22.5679C16.2499 27.8459 20.3839 32.1359 25.8699 32.2919H26.3379C28.8618 32.2089 31.2546 31.1481 33.0108 29.3337C34.7671 27.5192 35.7493 25.0931 35.7499 22.5679C35.7499 17.1859 31.3819 12.8179 25.9999 12.8179ZM43.6279 45.1099C38.8296 49.5449 32.534 52.0056 25.9999 51.9999C19.1879 51.9999 12.9999 49.3739 8.37195 45.1099C8.99595 42.7439 10.6859 40.5859 13.1559 38.9219C20.2539 34.1899 31.7979 34.1899 38.8439 38.9219C41.3399 40.5859 43.0039 42.7439 43.6279 45.1099Z" fill="#C61E72"/>
</svg>
