<svg width="76" height="13" viewBox="0 0 76 13" fill="none" xmlns="http://www.w3.org/2000/svg">
<path d="M6.11742 0L8.06631 3.43501L11.9354 4.22704L9.27079 7.14201L9.71316 11.0665L6.11742 9.43307L2.52169 11.0665L2.96406 7.14201L0.299408 4.22704L4.16854 3.43501L6.11742 0Z" fill="#FFD80E"/>
<path d="M6.11742 0L8.06631 3.43501L11.9354 4.22704L9.27079 7.14201L9.71316 11.0665L6.11742 9.43307L2.52169 11.0665L2.96406 7.14201L0.299408 4.22704L4.16854 3.43501L6.11742 0Z" fill="#FFD80E"/>
<path d="M21.9508 0L23.8997 3.43501L27.7688 4.22704L25.1042 7.14201L25.5465 11.0665L21.9508 9.43307L18.3551 11.0665L18.7974 7.14201L16.1328 4.22704L20.0019 3.43501L21.9508 0Z" fill="#FFD80E"/>
<path d="M37.784 0L39.7329 3.43501L43.6021 4.22704L40.9374 7.14201L41.3798 11.0665L37.784 9.43307L34.1883 11.0665L34.6307 7.14201L31.966 4.22704L35.8352 3.43501L37.784 0Z" fill="#FFD80E"/>
<path d="M53.6174 0L55.5663 3.43501L59.4354 4.22704L56.7708 7.14201L57.2132 11.0665L53.6174 9.43307L50.0217 11.0665L50.4641 7.14201L47.7994 4.22704L51.6685 3.43501L53.6174 0Z" fill="#FFD80E"/>
<path d="M69.4508 1.01324L70.9648 3.68175L71.0769 3.8793L71.2994 3.92485L74.3052 4.54014L72.2351 6.80466L72.0819 6.97231L72.1073 7.19802L72.451 10.2468L69.6576 8.97784L69.4508 8.88389L69.244 8.97784L66.4506 10.2468L66.7943 7.19802L66.8197 6.97231L66.6665 6.80466L64.5964 4.54014L67.6022 3.92485L67.8247 3.8793L67.9368 3.68175L69.4508 1.01324Z" stroke="#FFD80E"/>
</svg>
