<svg width="12" height="10" viewBox="0 0 12 10" fill="none" xmlns="http://www.w3.org/2000/svg">
<g clip-path="url(#clip0_578_16328)">
<path d="M6.45224 0.699463H1.24802C0.561607 0.699463 0 1.3802 0 2.21221V7.31016C0 8.14217 0.561607 8.82291 1.24802 8.82291H6.45224C7.13865 8.82291 7.70025 8.14217 7.70025 7.31016V2.21221C7.70025 1.36507 7.13865 0.699463 6.45224 0.699463ZM10.4833 1.53147C10.4084 1.5466 10.3336 1.59198 10.2712 1.63736L8.32426 2.99884V6.50841L10.2836 7.86988C10.6456 8.12704 11.0949 7.97577 11.307 7.53707C11.3694 7.40093 11.4069 7.24965 11.4069 7.08325V2.40886C11.4069 1.84915 10.9701 1.39533 10.4833 1.53147Z" fill="#C61E72"/>
</g>
<defs>
<clipPath id="clip0_578_16328">
<rect width="11.4069" height="9.4097" fill="white" transform="translate(0 0.200378)"/>
</clipPath>
</defs>
</svg>
