<svg width="18" height="15" viewBox="0 0 18 15" fill="none" xmlns="http://www.w3.org/2000/svg">
<g clip-path="url(#clip0_473_852)">
<path d="M10.1039 1.23566H2.43285C1.42108 1.23566 0.593262 2.23907 0.593262 3.46546V10.9799C0.593262 12.2063 1.42108 13.2097 2.43285 13.2097H10.1039C11.1157 13.2097 11.9435 12.2063 11.9435 10.9799V3.46546C11.9435 2.21677 11.1157 1.23566 10.1039 1.23566ZM16.0458 2.46205C15.9354 2.48435 15.8251 2.55124 15.7331 2.61814L12.8633 4.62496V9.7981L15.7515 11.8049C16.285 12.184 16.9472 11.961 17.2599 11.3144C17.3519 11.1137 17.4071 10.8907 17.4071 10.6454V3.75534C17.4071 2.93031 16.7632 2.26137 16.0458 2.46205Z" fill="white"/>
</g>
<defs>
<clipPath id="clip0_473_852">
<rect width="16.8138" height="13.87" fill="white" transform="translate(0.593262 0.5)"/>
</clipPath>
</defs>
</svg>
